G04 #@! TF.GenerationSoftware,KiCad,Pcbnew,5.0.0-fee4fd1~66~ubuntu18.04.1*
G04 #@! TF.CreationDate,2018-08-25T15:06:22-04:00*
G04 #@! TF.ProjectId,RGB Pulse Blinky,5247422050756C736520426C696E6B79,1*
G04 #@! TF.SameCoordinates,Original*
G04 #@! TF.FileFunction,Copper,L2,Bot,Signal*
G04 #@! TF.FilePolarity,Positive*
%FSLAX46Y46*%
G04 Gerber Fmt 4.6, Leading zero omitted, Abs format (unit mm)*
G04 Created by KiCad (PCBNEW 5.0.0-fee4fd1~66~ubuntu18.04.1) date Sat Aug 25 15:06:22 2018*
%MOMM*%
%LPD*%
G01*
G04 APERTURE LIST*
G04 #@! TA.AperFunction,ComponentPad*
%ADD10O,1.900000X1.200000*%
G04 #@! TD*
G04 #@! TA.AperFunction,ComponentPad*
%ADD11C,1.450000*%
G04 #@! TD*
G04 #@! TA.AperFunction,ComponentPad*
%ADD12C,1.500000*%
G04 #@! TD*
G04 #@! TA.AperFunction,ComponentPad*
%ADD13R,1.500000X1.500000*%
G04 #@! TD*
G04 #@! TA.AperFunction,ComponentPad*
%ADD14O,2.000000X1.500000*%
G04 #@! TD*
G04 #@! TA.AperFunction,ComponentPad*
%ADD15O,2.000000X1.000000*%
G04 #@! TD*
G04 #@! TA.AperFunction,ComponentPad*
%ADD16C,2.000000*%
G04 #@! TD*
G04 #@! TA.AperFunction,ViaPad*
%ADD17C,0.800000*%
G04 #@! TD*
G04 #@! TA.AperFunction,Conductor*
%ADD18C,0.250000*%
G04 #@! TD*
G04 #@! TA.AperFunction,Conductor*
%ADD19C,0.254000*%
G04 #@! TD*
G04 APERTURE END LIST*
D10*
G04 #@! TO.P,J1,6*
G04 #@! TO.N,GND*
X132492000Y-131770000D03*
X132492000Y-124770000D03*
D11*
X135192000Y-130770000D03*
X135192000Y-125770000D03*
G04 #@! TD*
D12*
G04 #@! TO.P,J2,5*
G04 #@! TO.N,Net-(J2-Pad5)*
X142782000Y-104050000D03*
G04 #@! TO.P,J2,4*
G04 #@! TO.N,Net-(J2-Pad4)*
X140242000Y-104050000D03*
G04 #@! TO.P,J2,3*
G04 #@! TO.N,GND*
X137702000Y-104050000D03*
G04 #@! TO.P,J2,2*
G04 #@! TO.N,VDD*
X135162000Y-104050000D03*
D13*
G04 #@! TO.P,J2,1*
G04 #@! TO.N,Net-(C3-Pad1)*
X132622000Y-104050000D03*
G04 #@! TD*
D12*
G04 #@! TO.P,J3,4*
G04 #@! TO.N,GND*
X154212000Y-111540000D03*
G04 #@! TO.P,J3,3*
G04 #@! TO.N,Net-(J3-Pad3)*
X154212000Y-114080000D03*
G04 #@! TO.P,J3,2*
G04 #@! TO.N,Net-(J3-Pad2)*
X154212000Y-116620000D03*
D13*
G04 #@! TO.P,J3,1*
G04 #@! TO.N,VDD*
X154212000Y-119160000D03*
G04 #@! TD*
D14*
G04 #@! TO.P,SW1,5*
G04 #@! TO.N,N/C*
X133096000Y-121348000D03*
D15*
G04 #@! TO.P,SW1,4*
X133096000Y-119348000D03*
G04 #@! TO.P,SW1,3*
X133096000Y-117348000D03*
G04 #@! TO.P,SW1,2*
G04 #@! TO.N,VDD*
X133096000Y-115348000D03*
D14*
G04 #@! TO.P,SW1,1*
G04 #@! TO.N,Net-(C1-Pad1)*
X133096000Y-113348000D03*
G04 #@! TD*
D16*
G04 #@! TO.P,SW2,2*
G04 #@! TO.N,Net-(R1-Pad2)*
X143682000Y-126480000D03*
G04 #@! TO.P,SW2,1*
G04 #@! TO.N,GND*
X143682000Y-130980000D03*
G04 #@! TO.P,SW2,4*
G04 #@! TO.N,N/C*
X150182000Y-126480000D03*
G04 #@! TO.P,SW2,3*
X150182000Y-130980000D03*
G04 #@! TD*
D17*
G04 #@! TO.N,GND*
X136398000Y-111252000D03*
X141732000Y-129540000D03*
X136906000Y-115570000D03*
X159004000Y-130556000D03*
G04 #@! TO.N,Net-(C3-Pad1)*
X143002000Y-120142000D03*
X143002000Y-118110000D03*
G04 #@! TO.N,GND*
X139192000Y-110490000D03*
X156210000Y-126746000D03*
G04 #@! TO.N,VDD*
X135128000Y-106680000D03*
G04 #@! TD*
D18*
G04 #@! TO.N,Net-(C3-Pad1)*
X143002000Y-120142000D02*
X143002000Y-118110000D01*
G04 #@! TO.N,VDD*
X135162000Y-104050000D02*
X135162000Y-106646000D01*
X135162000Y-106646000D02*
X135128000Y-106680000D01*
G04 #@! TD*
D19*
G04 #@! TO.N,GND*
G36*
X159310000Y-132615000D02*
X150507222Y-132615000D01*
X151108153Y-132366086D01*
X151568086Y-131906153D01*
X151817000Y-131305222D01*
X151817000Y-130654778D01*
X151568086Y-130053847D01*
X151108153Y-129593914D01*
X150507222Y-129345000D01*
X149856778Y-129345000D01*
X149255847Y-129593914D01*
X148795914Y-130053847D01*
X148547000Y-130654778D01*
X148547000Y-131305222D01*
X148795914Y-131906153D01*
X149255847Y-132366086D01*
X149856778Y-132615000D01*
X143712247Y-132615000D01*
X144067460Y-132601856D01*
X144556264Y-132399387D01*
X144654927Y-132132532D01*
X143682000Y-131159605D01*
X142709073Y-132132532D01*
X142807736Y-132399387D01*
X143388100Y-132615000D01*
X133730764Y-132615000D01*
X133805080Y-132553474D01*
X134031592Y-132125281D01*
X134035462Y-132087609D01*
X133910731Y-131897000D01*
X132619000Y-131897000D01*
X132619000Y-131917000D01*
X132365000Y-131917000D01*
X132365000Y-131897000D01*
X131073269Y-131897000D01*
X130948538Y-132087609D01*
X130952408Y-132125281D01*
X131178920Y-132553474D01*
X131253236Y-132615000D01*
X130758000Y-132615000D01*
X130758000Y-131723398D01*
X134418207Y-131723398D01*
X134483122Y-131961753D01*
X134993146Y-132142312D01*
X135533444Y-132113949D01*
X135900878Y-131961753D01*
X135965793Y-131723398D01*
X135192000Y-130949605D01*
X134418207Y-131723398D01*
X130758000Y-131723398D01*
X130758000Y-131452391D01*
X130948538Y-131452391D01*
X131073269Y-131643000D01*
X132365000Y-131643000D01*
X132365000Y-130535000D01*
X132619000Y-130535000D01*
X132619000Y-131643000D01*
X133910731Y-131643000D01*
X134015424Y-131483012D01*
X134238602Y-131543793D01*
X135012395Y-130770000D01*
X135371605Y-130770000D01*
X136145398Y-131543793D01*
X136383753Y-131478878D01*
X136564312Y-130968854D01*
X136551011Y-130715461D01*
X142036092Y-130715461D01*
X142060144Y-131365460D01*
X142262613Y-131854264D01*
X142529468Y-131952927D01*
X143502395Y-130980000D01*
X143861605Y-130980000D01*
X144834532Y-131952927D01*
X145101387Y-131854264D01*
X145327908Y-131244539D01*
X145303856Y-130594540D01*
X145101387Y-130105736D01*
X144834532Y-130007073D01*
X143861605Y-130980000D01*
X143502395Y-130980000D01*
X142529468Y-130007073D01*
X142262613Y-130105736D01*
X142036092Y-130715461D01*
X136551011Y-130715461D01*
X136535949Y-130428556D01*
X136383753Y-130061122D01*
X136145398Y-129996207D01*
X135371605Y-130770000D01*
X135012395Y-130770000D01*
X134238602Y-129996207D01*
X134000247Y-130061122D01*
X133819688Y-130571146D01*
X133845505Y-131062945D01*
X133805080Y-130986526D01*
X133431947Y-130677610D01*
X132969000Y-130535000D01*
X132619000Y-130535000D01*
X132365000Y-130535000D01*
X132015000Y-130535000D01*
X131552053Y-130677610D01*
X131178920Y-130986526D01*
X130952408Y-131414719D01*
X130948538Y-131452391D01*
X130758000Y-131452391D01*
X130758000Y-129816602D01*
X134418207Y-129816602D01*
X135192000Y-130590395D01*
X135954927Y-129827468D01*
X142709073Y-129827468D01*
X143682000Y-130800395D01*
X144654927Y-129827468D01*
X144556264Y-129560613D01*
X143946539Y-129334092D01*
X143296540Y-129358144D01*
X142807736Y-129560613D01*
X142709073Y-129827468D01*
X135954927Y-129827468D01*
X135965793Y-129816602D01*
X135900878Y-129578247D01*
X135390854Y-129397688D01*
X134850556Y-129426051D01*
X134483122Y-129578247D01*
X134418207Y-129816602D01*
X130758000Y-129816602D01*
X130758000Y-126723398D01*
X134418207Y-126723398D01*
X134483122Y-126961753D01*
X134993146Y-127142312D01*
X135533444Y-127113949D01*
X135900878Y-126961753D01*
X135965793Y-126723398D01*
X135192000Y-125949605D01*
X134418207Y-126723398D01*
X130758000Y-126723398D01*
X130758000Y-125087609D01*
X130948538Y-125087609D01*
X130952408Y-125125281D01*
X131178920Y-125553474D01*
X131552053Y-125862390D01*
X132015000Y-126005000D01*
X132365000Y-126005000D01*
X132365000Y-124897000D01*
X132619000Y-124897000D01*
X132619000Y-126005000D01*
X132969000Y-126005000D01*
X133431947Y-125862390D01*
X133805080Y-125553474D01*
X133868158Y-125434232D01*
X133819688Y-125571146D01*
X133848051Y-126111444D01*
X134000247Y-126478878D01*
X134238602Y-126543793D01*
X135012395Y-125770000D01*
X135371605Y-125770000D01*
X136145398Y-126543793D01*
X136383753Y-126478878D01*
X136498491Y-126154778D01*
X142047000Y-126154778D01*
X142047000Y-126805222D01*
X142295914Y-127406153D01*
X142755847Y-127866086D01*
X143356778Y-128115000D01*
X144007222Y-128115000D01*
X144608153Y-127866086D01*
X145068086Y-127406153D01*
X145317000Y-126805222D01*
X145317000Y-126154778D01*
X148547000Y-126154778D01*
X148547000Y-126805222D01*
X148795914Y-127406153D01*
X149255847Y-127866086D01*
X149856778Y-128115000D01*
X150507222Y-128115000D01*
X151108153Y-127866086D01*
X151568086Y-127406153D01*
X151817000Y-126805222D01*
X151817000Y-126154778D01*
X151568086Y-125553847D01*
X151108153Y-125093914D01*
X150507222Y-124845000D01*
X149856778Y-124845000D01*
X149255847Y-125093914D01*
X148795914Y-125553847D01*
X148547000Y-126154778D01*
X145317000Y-126154778D01*
X145068086Y-125553847D01*
X144608153Y-125093914D01*
X144007222Y-124845000D01*
X143356778Y-124845000D01*
X142755847Y-125093914D01*
X142295914Y-125553847D01*
X142047000Y-126154778D01*
X136498491Y-126154778D01*
X136564312Y-125968854D01*
X136535949Y-125428556D01*
X136383753Y-125061122D01*
X136145398Y-124996207D01*
X135371605Y-125770000D01*
X135012395Y-125770000D01*
X134238602Y-124996207D01*
X134015424Y-125056988D01*
X133910731Y-124897000D01*
X132619000Y-124897000D01*
X132365000Y-124897000D01*
X131073269Y-124897000D01*
X130948538Y-125087609D01*
X130758000Y-125087609D01*
X130758000Y-124816602D01*
X134418207Y-124816602D01*
X135192000Y-125590395D01*
X135965793Y-124816602D01*
X135900878Y-124578247D01*
X135390854Y-124397688D01*
X134850556Y-124426051D01*
X134483122Y-124578247D01*
X134418207Y-124816602D01*
X130758000Y-124816602D01*
X130758000Y-124452391D01*
X130948538Y-124452391D01*
X131073269Y-124643000D01*
X132365000Y-124643000D01*
X132365000Y-123535000D01*
X132619000Y-123535000D01*
X132619000Y-124643000D01*
X133910731Y-124643000D01*
X134035462Y-124452391D01*
X134031592Y-124414719D01*
X133805080Y-123986526D01*
X133431947Y-123677610D01*
X132969000Y-123535000D01*
X132619000Y-123535000D01*
X132365000Y-123535000D01*
X132015000Y-123535000D01*
X131552053Y-123677610D01*
X131178920Y-123986526D01*
X130952408Y-124414719D01*
X130948538Y-124452391D01*
X130758000Y-124452391D01*
X130758000Y-113348000D01*
X131433867Y-113348000D01*
X131541359Y-113888400D01*
X131847471Y-114346529D01*
X131949667Y-114414814D01*
X131777711Y-114529711D01*
X131526854Y-114905145D01*
X131438765Y-115348000D01*
X131526854Y-115790855D01*
X131777711Y-116166289D01*
X132049661Y-116348000D01*
X131777711Y-116529711D01*
X131526854Y-116905145D01*
X131438765Y-117348000D01*
X131526854Y-117790855D01*
X131777711Y-118166289D01*
X132049661Y-118348000D01*
X131777711Y-118529711D01*
X131526854Y-118905145D01*
X131438765Y-119348000D01*
X131526854Y-119790855D01*
X131777711Y-120166289D01*
X131949667Y-120281186D01*
X131847471Y-120349471D01*
X131541359Y-120807600D01*
X131433867Y-121348000D01*
X131541359Y-121888400D01*
X131847471Y-122346529D01*
X132305600Y-122652641D01*
X132709593Y-122733000D01*
X133482407Y-122733000D01*
X133886400Y-122652641D01*
X134344529Y-122346529D01*
X134650641Y-121888400D01*
X134758133Y-121348000D01*
X134650641Y-120807600D01*
X134344529Y-120349471D01*
X134242333Y-120281186D01*
X134414289Y-120166289D01*
X134665146Y-119790855D01*
X134753235Y-119348000D01*
X134665146Y-118905145D01*
X134414289Y-118529711D01*
X134142339Y-118348000D01*
X134414289Y-118166289D01*
X134589460Y-117904126D01*
X141967000Y-117904126D01*
X141967000Y-118315874D01*
X142124569Y-118696280D01*
X142242001Y-118813712D01*
X142242000Y-119438289D01*
X142124569Y-119555720D01*
X141967000Y-119936126D01*
X141967000Y-120347874D01*
X142124569Y-120728280D01*
X142415720Y-121019431D01*
X142796126Y-121177000D01*
X143207874Y-121177000D01*
X143588280Y-121019431D01*
X143879431Y-120728280D01*
X144037000Y-120347874D01*
X144037000Y-119936126D01*
X143879431Y-119555720D01*
X143762000Y-119438289D01*
X143762000Y-118813711D01*
X143879431Y-118696280D01*
X143998011Y-118410000D01*
X152814560Y-118410000D01*
X152814560Y-119910000D01*
X152863843Y-120157765D01*
X153004191Y-120367809D01*
X153214235Y-120508157D01*
X153462000Y-120557440D01*
X154962000Y-120557440D01*
X155209765Y-120508157D01*
X155419809Y-120367809D01*
X155560157Y-120157765D01*
X155609440Y-119910000D01*
X155609440Y-118410000D01*
X155560157Y-118162235D01*
X155419809Y-117952191D01*
X155209765Y-117811843D01*
X155017156Y-117773531D01*
X155386147Y-117404540D01*
X155597000Y-116895494D01*
X155597000Y-116344506D01*
X155386147Y-115835460D01*
X154996540Y-115445853D01*
X154765130Y-115350000D01*
X154996540Y-115254147D01*
X155386147Y-114864540D01*
X155597000Y-114355494D01*
X155597000Y-113804506D01*
X155386147Y-113295460D01*
X154996540Y-112905853D01*
X154781070Y-112816603D01*
X154935923Y-112752460D01*
X155003912Y-112511517D01*
X154212000Y-111719605D01*
X153420088Y-112511517D01*
X153488077Y-112752460D01*
X153654658Y-112811745D01*
X153427460Y-112905853D01*
X153037853Y-113295460D01*
X152827000Y-113804506D01*
X152827000Y-114355494D01*
X153037853Y-114864540D01*
X153427460Y-115254147D01*
X153658870Y-115350000D01*
X153427460Y-115445853D01*
X153037853Y-115835460D01*
X152827000Y-116344506D01*
X152827000Y-116895494D01*
X153037853Y-117404540D01*
X153406844Y-117773531D01*
X153214235Y-117811843D01*
X153004191Y-117952191D01*
X152863843Y-118162235D01*
X152814560Y-118410000D01*
X143998011Y-118410000D01*
X144037000Y-118315874D01*
X144037000Y-117904126D01*
X143879431Y-117523720D01*
X143588280Y-117232569D01*
X143207874Y-117075000D01*
X142796126Y-117075000D01*
X142415720Y-117232569D01*
X142124569Y-117523720D01*
X141967000Y-117904126D01*
X134589460Y-117904126D01*
X134665146Y-117790855D01*
X134753235Y-117348000D01*
X134665146Y-116905145D01*
X134414289Y-116529711D01*
X134142339Y-116348000D01*
X134414289Y-116166289D01*
X134665146Y-115790855D01*
X134753235Y-115348000D01*
X134665146Y-114905145D01*
X134414289Y-114529711D01*
X134242333Y-114414814D01*
X134344529Y-114346529D01*
X134650641Y-113888400D01*
X134758133Y-113348000D01*
X134650641Y-112807600D01*
X134344529Y-112349471D01*
X133886400Y-112043359D01*
X133482407Y-111963000D01*
X132709593Y-111963000D01*
X132305600Y-112043359D01*
X131847471Y-112349471D01*
X131541359Y-112807600D01*
X131433867Y-113348000D01*
X130758000Y-113348000D01*
X130758000Y-111335171D01*
X152814799Y-111335171D01*
X152842770Y-111885448D01*
X152999540Y-112263923D01*
X153240483Y-112331912D01*
X154032395Y-111540000D01*
X154391605Y-111540000D01*
X155183517Y-112331912D01*
X155424460Y-112263923D01*
X155609201Y-111744829D01*
X155581230Y-111194552D01*
X155424460Y-110816077D01*
X155183517Y-110748088D01*
X154391605Y-111540000D01*
X154032395Y-111540000D01*
X153240483Y-110748088D01*
X152999540Y-110816077D01*
X152814799Y-111335171D01*
X130758000Y-111335171D01*
X130758000Y-110568483D01*
X153420088Y-110568483D01*
X154212000Y-111360395D01*
X155003912Y-110568483D01*
X154935923Y-110327540D01*
X154416829Y-110142799D01*
X153866552Y-110170770D01*
X153488077Y-110327540D01*
X153420088Y-110568483D01*
X130758000Y-110568483D01*
X130758000Y-103300000D01*
X131224560Y-103300000D01*
X131224560Y-104800000D01*
X131273843Y-105047765D01*
X131414191Y-105257809D01*
X131624235Y-105398157D01*
X131872000Y-105447440D01*
X133372000Y-105447440D01*
X133619765Y-105398157D01*
X133829809Y-105257809D01*
X133970157Y-105047765D01*
X134008469Y-104855156D01*
X134377460Y-105224147D01*
X134402000Y-105234312D01*
X134402001Y-105942288D01*
X134250569Y-106093720D01*
X134093000Y-106474126D01*
X134093000Y-106885874D01*
X134250569Y-107266280D01*
X134541720Y-107557431D01*
X134922126Y-107715000D01*
X135333874Y-107715000D01*
X135714280Y-107557431D01*
X136005431Y-107266280D01*
X136163000Y-106885874D01*
X136163000Y-106474126D01*
X136005431Y-106093720D01*
X135922000Y-106010289D01*
X135922000Y-105234312D01*
X135946540Y-105224147D01*
X136149170Y-105021517D01*
X136910088Y-105021517D01*
X136978077Y-105262460D01*
X137497171Y-105447201D01*
X138047448Y-105419230D01*
X138425923Y-105262460D01*
X138493912Y-105021517D01*
X137702000Y-104229605D01*
X136910088Y-105021517D01*
X136149170Y-105021517D01*
X136336147Y-104834540D01*
X136425397Y-104619070D01*
X136489540Y-104773923D01*
X136730483Y-104841912D01*
X137522395Y-104050000D01*
X137881605Y-104050000D01*
X138673517Y-104841912D01*
X138914460Y-104773923D01*
X138973745Y-104607342D01*
X139067853Y-104834540D01*
X139457460Y-105224147D01*
X139966506Y-105435000D01*
X140517494Y-105435000D01*
X141026540Y-105224147D01*
X141416147Y-104834540D01*
X141512000Y-104603130D01*
X141607853Y-104834540D01*
X141997460Y-105224147D01*
X142506506Y-105435000D01*
X143057494Y-105435000D01*
X143566540Y-105224147D01*
X143956147Y-104834540D01*
X144167000Y-104325494D01*
X144167000Y-103774506D01*
X143956147Y-103265460D01*
X143566540Y-102875853D01*
X143057494Y-102665000D01*
X142506506Y-102665000D01*
X141997460Y-102875853D01*
X141607853Y-103265460D01*
X141512000Y-103496870D01*
X141416147Y-103265460D01*
X141026540Y-102875853D01*
X140517494Y-102665000D01*
X139966506Y-102665000D01*
X139457460Y-102875853D01*
X139067853Y-103265460D01*
X138978603Y-103480930D01*
X138914460Y-103326077D01*
X138673517Y-103258088D01*
X137881605Y-104050000D01*
X137522395Y-104050000D01*
X136730483Y-103258088D01*
X136489540Y-103326077D01*
X136430255Y-103492658D01*
X136336147Y-103265460D01*
X136149170Y-103078483D01*
X136910088Y-103078483D01*
X137702000Y-103870395D01*
X138493912Y-103078483D01*
X138425923Y-102837540D01*
X137906829Y-102652799D01*
X137356552Y-102680770D01*
X136978077Y-102837540D01*
X136910088Y-103078483D01*
X136149170Y-103078483D01*
X135946540Y-102875853D01*
X135437494Y-102665000D01*
X134886506Y-102665000D01*
X134377460Y-102875853D01*
X134008469Y-103244844D01*
X133970157Y-103052235D01*
X133829809Y-102842191D01*
X133619765Y-102701843D01*
X133372000Y-102652560D01*
X131872000Y-102652560D01*
X131624235Y-102701843D01*
X131414191Y-102842191D01*
X131273843Y-103052235D01*
X131224560Y-103300000D01*
X130758000Y-103300000D01*
X130758000Y-100049000D01*
X159310001Y-100049000D01*
X159310000Y-132615000D01*
X159310000Y-132615000D01*
G37*
X159310000Y-132615000D02*
X150507222Y-132615000D01*
X151108153Y-132366086D01*
X151568086Y-131906153D01*
X151817000Y-131305222D01*
X151817000Y-130654778D01*
X151568086Y-130053847D01*
X151108153Y-129593914D01*
X150507222Y-129345000D01*
X149856778Y-129345000D01*
X149255847Y-129593914D01*
X148795914Y-130053847D01*
X148547000Y-130654778D01*
X148547000Y-131305222D01*
X148795914Y-131906153D01*
X149255847Y-132366086D01*
X149856778Y-132615000D01*
X143712247Y-132615000D01*
X144067460Y-132601856D01*
X144556264Y-132399387D01*
X144654927Y-132132532D01*
X143682000Y-131159605D01*
X142709073Y-132132532D01*
X142807736Y-132399387D01*
X143388100Y-132615000D01*
X133730764Y-132615000D01*
X133805080Y-132553474D01*
X134031592Y-132125281D01*
X134035462Y-132087609D01*
X133910731Y-131897000D01*
X132619000Y-131897000D01*
X132619000Y-131917000D01*
X132365000Y-131917000D01*
X132365000Y-131897000D01*
X131073269Y-131897000D01*
X130948538Y-132087609D01*
X130952408Y-132125281D01*
X131178920Y-132553474D01*
X131253236Y-132615000D01*
X130758000Y-132615000D01*
X130758000Y-131723398D01*
X134418207Y-131723398D01*
X134483122Y-131961753D01*
X134993146Y-132142312D01*
X135533444Y-132113949D01*
X135900878Y-131961753D01*
X135965793Y-131723398D01*
X135192000Y-130949605D01*
X134418207Y-131723398D01*
X130758000Y-131723398D01*
X130758000Y-131452391D01*
X130948538Y-131452391D01*
X131073269Y-131643000D01*
X132365000Y-131643000D01*
X132365000Y-130535000D01*
X132619000Y-130535000D01*
X132619000Y-131643000D01*
X133910731Y-131643000D01*
X134015424Y-131483012D01*
X134238602Y-131543793D01*
X135012395Y-130770000D01*
X135371605Y-130770000D01*
X136145398Y-131543793D01*
X136383753Y-131478878D01*
X136564312Y-130968854D01*
X136551011Y-130715461D01*
X142036092Y-130715461D01*
X142060144Y-131365460D01*
X142262613Y-131854264D01*
X142529468Y-131952927D01*
X143502395Y-130980000D01*
X143861605Y-130980000D01*
X144834532Y-131952927D01*
X145101387Y-131854264D01*
X145327908Y-131244539D01*
X145303856Y-130594540D01*
X145101387Y-130105736D01*
X144834532Y-130007073D01*
X143861605Y-130980000D01*
X143502395Y-130980000D01*
X142529468Y-130007073D01*
X142262613Y-130105736D01*
X142036092Y-130715461D01*
X136551011Y-130715461D01*
X136535949Y-130428556D01*
X136383753Y-130061122D01*
X136145398Y-129996207D01*
X135371605Y-130770000D01*
X135012395Y-130770000D01*
X134238602Y-129996207D01*
X134000247Y-130061122D01*
X133819688Y-130571146D01*
X133845505Y-131062945D01*
X133805080Y-130986526D01*
X133431947Y-130677610D01*
X132969000Y-130535000D01*
X132619000Y-130535000D01*
X132365000Y-130535000D01*
X132015000Y-130535000D01*
X131552053Y-130677610D01*
X131178920Y-130986526D01*
X130952408Y-131414719D01*
X130948538Y-131452391D01*
X130758000Y-131452391D01*
X130758000Y-129816602D01*
X134418207Y-129816602D01*
X135192000Y-130590395D01*
X135954927Y-129827468D01*
X142709073Y-129827468D01*
X143682000Y-130800395D01*
X144654927Y-129827468D01*
X144556264Y-129560613D01*
X143946539Y-129334092D01*
X143296540Y-129358144D01*
X142807736Y-129560613D01*
X142709073Y-129827468D01*
X135954927Y-129827468D01*
X135965793Y-129816602D01*
X135900878Y-129578247D01*
X135390854Y-129397688D01*
X134850556Y-129426051D01*
X134483122Y-129578247D01*
X134418207Y-129816602D01*
X130758000Y-129816602D01*
X130758000Y-126723398D01*
X134418207Y-126723398D01*
X134483122Y-126961753D01*
X134993146Y-127142312D01*
X135533444Y-127113949D01*
X135900878Y-126961753D01*
X135965793Y-126723398D01*
X135192000Y-125949605D01*
X134418207Y-126723398D01*
X130758000Y-126723398D01*
X130758000Y-125087609D01*
X130948538Y-125087609D01*
X130952408Y-125125281D01*
X131178920Y-125553474D01*
X131552053Y-125862390D01*
X132015000Y-126005000D01*
X132365000Y-126005000D01*
X132365000Y-124897000D01*
X132619000Y-124897000D01*
X132619000Y-126005000D01*
X132969000Y-126005000D01*
X133431947Y-125862390D01*
X133805080Y-125553474D01*
X133868158Y-125434232D01*
X133819688Y-125571146D01*
X133848051Y-126111444D01*
X134000247Y-126478878D01*
X134238602Y-126543793D01*
X135012395Y-125770000D01*
X135371605Y-125770000D01*
X136145398Y-126543793D01*
X136383753Y-126478878D01*
X136498491Y-126154778D01*
X142047000Y-126154778D01*
X142047000Y-126805222D01*
X142295914Y-127406153D01*
X142755847Y-127866086D01*
X143356778Y-128115000D01*
X144007222Y-128115000D01*
X144608153Y-127866086D01*
X145068086Y-127406153D01*
X145317000Y-126805222D01*
X145317000Y-126154778D01*
X148547000Y-126154778D01*
X148547000Y-126805222D01*
X148795914Y-127406153D01*
X149255847Y-127866086D01*
X149856778Y-128115000D01*
X150507222Y-128115000D01*
X151108153Y-127866086D01*
X151568086Y-127406153D01*
X151817000Y-126805222D01*
X151817000Y-126154778D01*
X151568086Y-125553847D01*
X151108153Y-125093914D01*
X150507222Y-124845000D01*
X149856778Y-124845000D01*
X149255847Y-125093914D01*
X148795914Y-125553847D01*
X148547000Y-126154778D01*
X145317000Y-126154778D01*
X145068086Y-125553847D01*
X144608153Y-125093914D01*
X144007222Y-124845000D01*
X143356778Y-124845000D01*
X142755847Y-125093914D01*
X142295914Y-125553847D01*
X142047000Y-126154778D01*
X136498491Y-126154778D01*
X136564312Y-125968854D01*
X136535949Y-125428556D01*
X136383753Y-125061122D01*
X136145398Y-124996207D01*
X135371605Y-125770000D01*
X135012395Y-125770000D01*
X134238602Y-124996207D01*
X134015424Y-125056988D01*
X133910731Y-124897000D01*
X132619000Y-124897000D01*
X132365000Y-124897000D01*
X131073269Y-124897000D01*
X130948538Y-125087609D01*
X130758000Y-125087609D01*
X130758000Y-124816602D01*
X134418207Y-124816602D01*
X135192000Y-125590395D01*
X135965793Y-124816602D01*
X135900878Y-124578247D01*
X135390854Y-124397688D01*
X134850556Y-124426051D01*
X134483122Y-124578247D01*
X134418207Y-124816602D01*
X130758000Y-124816602D01*
X130758000Y-124452391D01*
X130948538Y-124452391D01*
X131073269Y-124643000D01*
X132365000Y-124643000D01*
X132365000Y-123535000D01*
X132619000Y-123535000D01*
X132619000Y-124643000D01*
X133910731Y-124643000D01*
X134035462Y-124452391D01*
X134031592Y-124414719D01*
X133805080Y-123986526D01*
X133431947Y-123677610D01*
X132969000Y-123535000D01*
X132619000Y-123535000D01*
X132365000Y-123535000D01*
X132015000Y-123535000D01*
X131552053Y-123677610D01*
X131178920Y-123986526D01*
X130952408Y-124414719D01*
X130948538Y-124452391D01*
X130758000Y-124452391D01*
X130758000Y-113348000D01*
X131433867Y-113348000D01*
X131541359Y-113888400D01*
X131847471Y-114346529D01*
X131949667Y-114414814D01*
X131777711Y-114529711D01*
X131526854Y-114905145D01*
X131438765Y-115348000D01*
X131526854Y-115790855D01*
X131777711Y-116166289D01*
X132049661Y-116348000D01*
X131777711Y-116529711D01*
X131526854Y-116905145D01*
X131438765Y-117348000D01*
X131526854Y-117790855D01*
X131777711Y-118166289D01*
X132049661Y-118348000D01*
X131777711Y-118529711D01*
X131526854Y-118905145D01*
X131438765Y-119348000D01*
X131526854Y-119790855D01*
X131777711Y-120166289D01*
X131949667Y-120281186D01*
X131847471Y-120349471D01*
X131541359Y-120807600D01*
X131433867Y-121348000D01*
X131541359Y-121888400D01*
X131847471Y-122346529D01*
X132305600Y-122652641D01*
X132709593Y-122733000D01*
X133482407Y-122733000D01*
X133886400Y-122652641D01*
X134344529Y-122346529D01*
X134650641Y-121888400D01*
X134758133Y-121348000D01*
X134650641Y-120807600D01*
X134344529Y-120349471D01*
X134242333Y-120281186D01*
X134414289Y-120166289D01*
X134665146Y-119790855D01*
X134753235Y-119348000D01*
X134665146Y-118905145D01*
X134414289Y-118529711D01*
X134142339Y-118348000D01*
X134414289Y-118166289D01*
X134589460Y-117904126D01*
X141967000Y-117904126D01*
X141967000Y-118315874D01*
X142124569Y-118696280D01*
X142242001Y-118813712D01*
X142242000Y-119438289D01*
X142124569Y-119555720D01*
X141967000Y-119936126D01*
X141967000Y-120347874D01*
X142124569Y-120728280D01*
X142415720Y-121019431D01*
X142796126Y-121177000D01*
X143207874Y-121177000D01*
X143588280Y-121019431D01*
X143879431Y-120728280D01*
X144037000Y-120347874D01*
X144037000Y-119936126D01*
X143879431Y-119555720D01*
X143762000Y-119438289D01*
X143762000Y-118813711D01*
X143879431Y-118696280D01*
X143998011Y-118410000D01*
X152814560Y-118410000D01*
X152814560Y-119910000D01*
X152863843Y-120157765D01*
X153004191Y-120367809D01*
X153214235Y-120508157D01*
X153462000Y-120557440D01*
X154962000Y-120557440D01*
X155209765Y-120508157D01*
X155419809Y-120367809D01*
X155560157Y-120157765D01*
X155609440Y-119910000D01*
X155609440Y-118410000D01*
X155560157Y-118162235D01*
X155419809Y-117952191D01*
X155209765Y-117811843D01*
X155017156Y-117773531D01*
X155386147Y-117404540D01*
X155597000Y-116895494D01*
X155597000Y-116344506D01*
X155386147Y-115835460D01*
X154996540Y-115445853D01*
X154765130Y-115350000D01*
X154996540Y-115254147D01*
X155386147Y-114864540D01*
X155597000Y-114355494D01*
X155597000Y-113804506D01*
X155386147Y-113295460D01*
X154996540Y-112905853D01*
X154781070Y-112816603D01*
X154935923Y-112752460D01*
X155003912Y-112511517D01*
X154212000Y-111719605D01*
X153420088Y-112511517D01*
X153488077Y-112752460D01*
X153654658Y-112811745D01*
X153427460Y-112905853D01*
X153037853Y-113295460D01*
X152827000Y-113804506D01*
X152827000Y-114355494D01*
X153037853Y-114864540D01*
X153427460Y-115254147D01*
X153658870Y-115350000D01*
X153427460Y-115445853D01*
X153037853Y-115835460D01*
X152827000Y-116344506D01*
X152827000Y-116895494D01*
X153037853Y-117404540D01*
X153406844Y-117773531D01*
X153214235Y-117811843D01*
X153004191Y-117952191D01*
X152863843Y-118162235D01*
X152814560Y-118410000D01*
X143998011Y-118410000D01*
X144037000Y-118315874D01*
X144037000Y-117904126D01*
X143879431Y-117523720D01*
X143588280Y-117232569D01*
X143207874Y-117075000D01*
X142796126Y-117075000D01*
X142415720Y-117232569D01*
X142124569Y-117523720D01*
X141967000Y-117904126D01*
X134589460Y-117904126D01*
X134665146Y-117790855D01*
X134753235Y-117348000D01*
X134665146Y-116905145D01*
X134414289Y-116529711D01*
X134142339Y-116348000D01*
X134414289Y-116166289D01*
X134665146Y-115790855D01*
X134753235Y-115348000D01*
X134665146Y-114905145D01*
X134414289Y-114529711D01*
X134242333Y-114414814D01*
X134344529Y-114346529D01*
X134650641Y-113888400D01*
X134758133Y-113348000D01*
X134650641Y-112807600D01*
X134344529Y-112349471D01*
X133886400Y-112043359D01*
X133482407Y-111963000D01*
X132709593Y-111963000D01*
X132305600Y-112043359D01*
X131847471Y-112349471D01*
X131541359Y-112807600D01*
X131433867Y-113348000D01*
X130758000Y-113348000D01*
X130758000Y-111335171D01*
X152814799Y-111335171D01*
X152842770Y-111885448D01*
X152999540Y-112263923D01*
X153240483Y-112331912D01*
X154032395Y-111540000D01*
X154391605Y-111540000D01*
X155183517Y-112331912D01*
X155424460Y-112263923D01*
X155609201Y-111744829D01*
X155581230Y-111194552D01*
X155424460Y-110816077D01*
X155183517Y-110748088D01*
X154391605Y-111540000D01*
X154032395Y-111540000D01*
X153240483Y-110748088D01*
X152999540Y-110816077D01*
X152814799Y-111335171D01*
X130758000Y-111335171D01*
X130758000Y-110568483D01*
X153420088Y-110568483D01*
X154212000Y-111360395D01*
X155003912Y-110568483D01*
X154935923Y-110327540D01*
X154416829Y-110142799D01*
X153866552Y-110170770D01*
X153488077Y-110327540D01*
X153420088Y-110568483D01*
X130758000Y-110568483D01*
X130758000Y-103300000D01*
X131224560Y-103300000D01*
X131224560Y-104800000D01*
X131273843Y-105047765D01*
X131414191Y-105257809D01*
X131624235Y-105398157D01*
X131872000Y-105447440D01*
X133372000Y-105447440D01*
X133619765Y-105398157D01*
X133829809Y-105257809D01*
X133970157Y-105047765D01*
X134008469Y-104855156D01*
X134377460Y-105224147D01*
X134402000Y-105234312D01*
X134402001Y-105942288D01*
X134250569Y-106093720D01*
X134093000Y-106474126D01*
X134093000Y-106885874D01*
X134250569Y-107266280D01*
X134541720Y-107557431D01*
X134922126Y-107715000D01*
X135333874Y-107715000D01*
X135714280Y-107557431D01*
X136005431Y-107266280D01*
X136163000Y-106885874D01*
X136163000Y-106474126D01*
X136005431Y-106093720D01*
X135922000Y-106010289D01*
X135922000Y-105234312D01*
X135946540Y-105224147D01*
X136149170Y-105021517D01*
X136910088Y-105021517D01*
X136978077Y-105262460D01*
X137497171Y-105447201D01*
X138047448Y-105419230D01*
X138425923Y-105262460D01*
X138493912Y-105021517D01*
X137702000Y-104229605D01*
X136910088Y-105021517D01*
X136149170Y-105021517D01*
X136336147Y-104834540D01*
X136425397Y-104619070D01*
X136489540Y-104773923D01*
X136730483Y-104841912D01*
X137522395Y-104050000D01*
X137881605Y-104050000D01*
X138673517Y-104841912D01*
X138914460Y-104773923D01*
X138973745Y-104607342D01*
X139067853Y-104834540D01*
X139457460Y-105224147D01*
X139966506Y-105435000D01*
X140517494Y-105435000D01*
X141026540Y-105224147D01*
X141416147Y-104834540D01*
X141512000Y-104603130D01*
X141607853Y-104834540D01*
X141997460Y-105224147D01*
X142506506Y-105435000D01*
X143057494Y-105435000D01*
X143566540Y-105224147D01*
X143956147Y-104834540D01*
X144167000Y-104325494D01*
X144167000Y-103774506D01*
X143956147Y-103265460D01*
X143566540Y-102875853D01*
X143057494Y-102665000D01*
X142506506Y-102665000D01*
X141997460Y-102875853D01*
X141607853Y-103265460D01*
X141512000Y-103496870D01*
X141416147Y-103265460D01*
X141026540Y-102875853D01*
X140517494Y-102665000D01*
X139966506Y-102665000D01*
X139457460Y-102875853D01*
X139067853Y-103265460D01*
X138978603Y-103480930D01*
X138914460Y-103326077D01*
X138673517Y-103258088D01*
X137881605Y-104050000D01*
X137522395Y-104050000D01*
X136730483Y-103258088D01*
X136489540Y-103326077D01*
X136430255Y-103492658D01*
X136336147Y-103265460D01*
X136149170Y-103078483D01*
X136910088Y-103078483D01*
X137702000Y-103870395D01*
X138493912Y-103078483D01*
X138425923Y-102837540D01*
X137906829Y-102652799D01*
X137356552Y-102680770D01*
X136978077Y-102837540D01*
X136910088Y-103078483D01*
X136149170Y-103078483D01*
X135946540Y-102875853D01*
X135437494Y-102665000D01*
X134886506Y-102665000D01*
X134377460Y-102875853D01*
X134008469Y-103244844D01*
X133970157Y-103052235D01*
X133829809Y-102842191D01*
X133619765Y-102701843D01*
X133372000Y-102652560D01*
X131872000Y-102652560D01*
X131624235Y-102701843D01*
X131414191Y-102842191D01*
X131273843Y-103052235D01*
X131224560Y-103300000D01*
X130758000Y-103300000D01*
X130758000Y-100049000D01*
X159310001Y-100049000D01*
X159310000Y-132615000D01*
G04 #@! TD*
M02*
