M48
;DRILL file {KiCad 5.0.0-fee4fd1~66~ubuntu18.04.1} date Sat Aug 25 15:06:25 2018
;FORMAT={3:3/ absolute / metric / suppress trailing zeros}
FMAT,2
METRIC,LZ
T1C0.400
T2C0.600
T3C0.800
T4C0.850
T5C0.990
T6C1.000
%
G90
G05
M71
T1
X135128Y-10668
X136398Y-111252
X136906Y-11557
X139192Y-11049
X141732Y-12954
X143002Y-11811
X143002Y-120142
X15621Y-126746
X159004Y-130556
T3
X154212Y-11154
X154212Y-11408
X154212Y-11662
X154212Y-11916
X132622Y-10405
X135162Y-10405
X137702Y-10405
X140242Y-10405
X142782Y-10405
X133096Y-115348
X133096Y-117348
X133096Y-119348
T4
X135192Y-12577
X135192Y-13077
T5
X143682Y-12648
X143682Y-13098
X150182Y-12648
X150182Y-13098
T6
X133096Y-113348
X133096Y-121348
T2
X132142Y-12477G85X132842Y-12477
G05
X132842Y-13177G85X132142Y-13177
G05
T0
M30
