G04 #@! TF.GenerationSoftware,KiCad,Pcbnew,5.0.0-fee4fd1~66~ubuntu18.04.1*
G04 #@! TF.CreationDate,2018-08-25T15:06:22-04:00*
G04 #@! TF.ProjectId,RGB Pulse Blinky,5247422050756C736520426C696E6B79,1*
G04 #@! TF.SameCoordinates,Original*
G04 #@! TF.FileFunction,Soldermask,Top*
G04 #@! TF.FilePolarity,Negative*
%FSLAX46Y46*%
G04 Gerber Fmt 4.6, Leading zero omitted, Abs format (unit mm)*
G04 Created by KiCad (PCBNEW 5.0.0-fee4fd1~66~ubuntu18.04.1) date Sat Aug 25 15:06:22 2018*
%MOMM*%
%LPD*%
G01*
G04 APERTURE LIST*
%ADD10C,0.100000*%
%ADD11C,1.550000*%
%ADD12R,1.400000X1.400000*%
%ADD13R,2.300000X1.600000*%
%ADD14O,2.300000X1.600000*%
%ADD15R,2.300000X1.900000*%
%ADD16C,1.850000*%
%ADD17R,1.750000X0.800000*%
%ADD18C,1.900000*%
%ADD19R,1.900000X1.900000*%
%ADD20O,2.400000X1.900000*%
%ADD21O,2.400000X1.400000*%
%ADD22C,2.400000*%
%ADD23R,1.250000X1.550000*%
%ADD24R,1.250000X1.350000*%
%ADD25R,1.370000X1.550000*%
%ADD26R,1.370000X1.350000*%
%ADD27R,1.000000X2.350000*%
G04 APERTURE END LIST*
D10*
G04 #@! TO.C,C1*
G36*
X140966071Y-130059623D02*
X140998781Y-130064475D01*
X141030857Y-130072509D01*
X141061991Y-130083649D01*
X141091884Y-130097787D01*
X141120247Y-130114787D01*
X141146807Y-130134485D01*
X141171308Y-130156692D01*
X141193515Y-130181193D01*
X141213213Y-130207753D01*
X141230213Y-130236116D01*
X141244351Y-130266009D01*
X141255491Y-130297143D01*
X141263525Y-130329219D01*
X141268377Y-130361929D01*
X141270000Y-130394956D01*
X141270000Y-131521044D01*
X141268377Y-131554071D01*
X141263525Y-131586781D01*
X141255491Y-131618857D01*
X141244351Y-131649991D01*
X141230213Y-131679884D01*
X141213213Y-131708247D01*
X141193515Y-131734807D01*
X141171308Y-131759308D01*
X141146807Y-131781515D01*
X141120247Y-131801213D01*
X141091884Y-131818213D01*
X141061991Y-131832351D01*
X141030857Y-131843491D01*
X140998781Y-131851525D01*
X140966071Y-131856377D01*
X140933044Y-131858000D01*
X140056956Y-131858000D01*
X140023929Y-131856377D01*
X139991219Y-131851525D01*
X139959143Y-131843491D01*
X139928009Y-131832351D01*
X139898116Y-131818213D01*
X139869753Y-131801213D01*
X139843193Y-131781515D01*
X139818692Y-131759308D01*
X139796485Y-131734807D01*
X139776787Y-131708247D01*
X139759787Y-131679884D01*
X139745649Y-131649991D01*
X139734509Y-131618857D01*
X139726475Y-131586781D01*
X139721623Y-131554071D01*
X139720000Y-131521044D01*
X139720000Y-130394956D01*
X139721623Y-130361929D01*
X139726475Y-130329219D01*
X139734509Y-130297143D01*
X139745649Y-130266009D01*
X139759787Y-130236116D01*
X139776787Y-130207753D01*
X139796485Y-130181193D01*
X139818692Y-130156692D01*
X139843193Y-130134485D01*
X139869753Y-130114787D01*
X139898116Y-130097787D01*
X139928009Y-130083649D01*
X139959143Y-130072509D01*
X139991219Y-130064475D01*
X140023929Y-130059623D01*
X140056956Y-130058000D01*
X140933044Y-130058000D01*
X140966071Y-130059623D01*
X140966071Y-130059623D01*
G37*
D11*
X140495000Y-130958000D03*
D10*
G36*
X138916071Y-130059623D02*
X138948781Y-130064475D01*
X138980857Y-130072509D01*
X139011991Y-130083649D01*
X139041884Y-130097787D01*
X139070247Y-130114787D01*
X139096807Y-130134485D01*
X139121308Y-130156692D01*
X139143515Y-130181193D01*
X139163213Y-130207753D01*
X139180213Y-130236116D01*
X139194351Y-130266009D01*
X139205491Y-130297143D01*
X139213525Y-130329219D01*
X139218377Y-130361929D01*
X139220000Y-130394956D01*
X139220000Y-131521044D01*
X139218377Y-131554071D01*
X139213525Y-131586781D01*
X139205491Y-131618857D01*
X139194351Y-131649991D01*
X139180213Y-131679884D01*
X139163213Y-131708247D01*
X139143515Y-131734807D01*
X139121308Y-131759308D01*
X139096807Y-131781515D01*
X139070247Y-131801213D01*
X139041884Y-131818213D01*
X139011991Y-131832351D01*
X138980857Y-131843491D01*
X138948781Y-131851525D01*
X138916071Y-131856377D01*
X138883044Y-131858000D01*
X138006956Y-131858000D01*
X137973929Y-131856377D01*
X137941219Y-131851525D01*
X137909143Y-131843491D01*
X137878009Y-131832351D01*
X137848116Y-131818213D01*
X137819753Y-131801213D01*
X137793193Y-131781515D01*
X137768692Y-131759308D01*
X137746485Y-131734807D01*
X137726787Y-131708247D01*
X137709787Y-131679884D01*
X137695649Y-131649991D01*
X137684509Y-131618857D01*
X137676475Y-131586781D01*
X137671623Y-131554071D01*
X137670000Y-131521044D01*
X137670000Y-130394956D01*
X137671623Y-130361929D01*
X137676475Y-130329219D01*
X137684509Y-130297143D01*
X137695649Y-130266009D01*
X137709787Y-130236116D01*
X137726787Y-130207753D01*
X137746485Y-130181193D01*
X137768692Y-130156692D01*
X137793193Y-130134485D01*
X137819753Y-130114787D01*
X137848116Y-130097787D01*
X137878009Y-130083649D01*
X137909143Y-130072509D01*
X137941219Y-130064475D01*
X137973929Y-130059623D01*
X138006956Y-130058000D01*
X138883044Y-130058000D01*
X138916071Y-130059623D01*
X138916071Y-130059623D01*
G37*
D11*
X138445000Y-130958000D03*
G04 #@! TD*
D10*
G04 #@! TO.C,C2*
G36*
X140946071Y-127289623D02*
X140978781Y-127294475D01*
X141010857Y-127302509D01*
X141041991Y-127313649D01*
X141071884Y-127327787D01*
X141100247Y-127344787D01*
X141126807Y-127364485D01*
X141151308Y-127386692D01*
X141173515Y-127411193D01*
X141193213Y-127437753D01*
X141210213Y-127466116D01*
X141224351Y-127496009D01*
X141235491Y-127527143D01*
X141243525Y-127559219D01*
X141248377Y-127591929D01*
X141250000Y-127624956D01*
X141250000Y-128751044D01*
X141248377Y-128784071D01*
X141243525Y-128816781D01*
X141235491Y-128848857D01*
X141224351Y-128879991D01*
X141210213Y-128909884D01*
X141193213Y-128938247D01*
X141173515Y-128964807D01*
X141151308Y-128989308D01*
X141126807Y-129011515D01*
X141100247Y-129031213D01*
X141071884Y-129048213D01*
X141041991Y-129062351D01*
X141010857Y-129073491D01*
X140978781Y-129081525D01*
X140946071Y-129086377D01*
X140913044Y-129088000D01*
X140036956Y-129088000D01*
X140003929Y-129086377D01*
X139971219Y-129081525D01*
X139939143Y-129073491D01*
X139908009Y-129062351D01*
X139878116Y-129048213D01*
X139849753Y-129031213D01*
X139823193Y-129011515D01*
X139798692Y-128989308D01*
X139776485Y-128964807D01*
X139756787Y-128938247D01*
X139739787Y-128909884D01*
X139725649Y-128879991D01*
X139714509Y-128848857D01*
X139706475Y-128816781D01*
X139701623Y-128784071D01*
X139700000Y-128751044D01*
X139700000Y-127624956D01*
X139701623Y-127591929D01*
X139706475Y-127559219D01*
X139714509Y-127527143D01*
X139725649Y-127496009D01*
X139739787Y-127466116D01*
X139756787Y-127437753D01*
X139776485Y-127411193D01*
X139798692Y-127386692D01*
X139823193Y-127364485D01*
X139849753Y-127344787D01*
X139878116Y-127327787D01*
X139908009Y-127313649D01*
X139939143Y-127302509D01*
X139971219Y-127294475D01*
X140003929Y-127289623D01*
X140036956Y-127288000D01*
X140913044Y-127288000D01*
X140946071Y-127289623D01*
X140946071Y-127289623D01*
G37*
D11*
X140475000Y-128188000D03*
D10*
G36*
X138896071Y-127289623D02*
X138928781Y-127294475D01*
X138960857Y-127302509D01*
X138991991Y-127313649D01*
X139021884Y-127327787D01*
X139050247Y-127344787D01*
X139076807Y-127364485D01*
X139101308Y-127386692D01*
X139123515Y-127411193D01*
X139143213Y-127437753D01*
X139160213Y-127466116D01*
X139174351Y-127496009D01*
X139185491Y-127527143D01*
X139193525Y-127559219D01*
X139198377Y-127591929D01*
X139200000Y-127624956D01*
X139200000Y-128751044D01*
X139198377Y-128784071D01*
X139193525Y-128816781D01*
X139185491Y-128848857D01*
X139174351Y-128879991D01*
X139160213Y-128909884D01*
X139143213Y-128938247D01*
X139123515Y-128964807D01*
X139101308Y-128989308D01*
X139076807Y-129011515D01*
X139050247Y-129031213D01*
X139021884Y-129048213D01*
X138991991Y-129062351D01*
X138960857Y-129073491D01*
X138928781Y-129081525D01*
X138896071Y-129086377D01*
X138863044Y-129088000D01*
X137986956Y-129088000D01*
X137953929Y-129086377D01*
X137921219Y-129081525D01*
X137889143Y-129073491D01*
X137858009Y-129062351D01*
X137828116Y-129048213D01*
X137799753Y-129031213D01*
X137773193Y-129011515D01*
X137748692Y-128989308D01*
X137726485Y-128964807D01*
X137706787Y-128938247D01*
X137689787Y-128909884D01*
X137675649Y-128879991D01*
X137664509Y-128848857D01*
X137656475Y-128816781D01*
X137651623Y-128784071D01*
X137650000Y-128751044D01*
X137650000Y-127624956D01*
X137651623Y-127591929D01*
X137656475Y-127559219D01*
X137664509Y-127527143D01*
X137675649Y-127496009D01*
X137689787Y-127466116D01*
X137706787Y-127437753D01*
X137726485Y-127411193D01*
X137748692Y-127386692D01*
X137773193Y-127364485D01*
X137799753Y-127344787D01*
X137828116Y-127327787D01*
X137858009Y-127313649D01*
X137889143Y-127302509D01*
X137921219Y-127294475D01*
X137953929Y-127289623D01*
X137986956Y-127288000D01*
X138863044Y-127288000D01*
X138896071Y-127289623D01*
X138896071Y-127289623D01*
G37*
D11*
X138425000Y-128188000D03*
G04 #@! TD*
D10*
G04 #@! TO.C,C3*
G36*
X138288071Y-105991623D02*
X138320781Y-105996475D01*
X138352857Y-106004509D01*
X138383991Y-106015649D01*
X138413884Y-106029787D01*
X138442247Y-106046787D01*
X138468807Y-106066485D01*
X138493308Y-106088692D01*
X138515515Y-106113193D01*
X138535213Y-106139753D01*
X138552213Y-106168116D01*
X138566351Y-106198009D01*
X138577491Y-106229143D01*
X138585525Y-106261219D01*
X138590377Y-106293929D01*
X138592000Y-106326956D01*
X138592000Y-107203044D01*
X138590377Y-107236071D01*
X138585525Y-107268781D01*
X138577491Y-107300857D01*
X138566351Y-107331991D01*
X138552213Y-107361884D01*
X138535213Y-107390247D01*
X138515515Y-107416807D01*
X138493308Y-107441308D01*
X138468807Y-107463515D01*
X138442247Y-107483213D01*
X138413884Y-107500213D01*
X138383991Y-107514351D01*
X138352857Y-107525491D01*
X138320781Y-107533525D01*
X138288071Y-107538377D01*
X138255044Y-107540000D01*
X137128956Y-107540000D01*
X137095929Y-107538377D01*
X137063219Y-107533525D01*
X137031143Y-107525491D01*
X137000009Y-107514351D01*
X136970116Y-107500213D01*
X136941753Y-107483213D01*
X136915193Y-107463515D01*
X136890692Y-107441308D01*
X136868485Y-107416807D01*
X136848787Y-107390247D01*
X136831787Y-107361884D01*
X136817649Y-107331991D01*
X136806509Y-107300857D01*
X136798475Y-107268781D01*
X136793623Y-107236071D01*
X136792000Y-107203044D01*
X136792000Y-106326956D01*
X136793623Y-106293929D01*
X136798475Y-106261219D01*
X136806509Y-106229143D01*
X136817649Y-106198009D01*
X136831787Y-106168116D01*
X136848787Y-106139753D01*
X136868485Y-106113193D01*
X136890692Y-106088692D01*
X136915193Y-106066485D01*
X136941753Y-106046787D01*
X136970116Y-106029787D01*
X137000009Y-106015649D01*
X137031143Y-106004509D01*
X137063219Y-105996475D01*
X137095929Y-105991623D01*
X137128956Y-105990000D01*
X138255044Y-105990000D01*
X138288071Y-105991623D01*
X138288071Y-105991623D01*
G37*
D11*
X137692000Y-106765000D03*
D10*
G36*
X138288071Y-108041623D02*
X138320781Y-108046475D01*
X138352857Y-108054509D01*
X138383991Y-108065649D01*
X138413884Y-108079787D01*
X138442247Y-108096787D01*
X138468807Y-108116485D01*
X138493308Y-108138692D01*
X138515515Y-108163193D01*
X138535213Y-108189753D01*
X138552213Y-108218116D01*
X138566351Y-108248009D01*
X138577491Y-108279143D01*
X138585525Y-108311219D01*
X138590377Y-108343929D01*
X138592000Y-108376956D01*
X138592000Y-109253044D01*
X138590377Y-109286071D01*
X138585525Y-109318781D01*
X138577491Y-109350857D01*
X138566351Y-109381991D01*
X138552213Y-109411884D01*
X138535213Y-109440247D01*
X138515515Y-109466807D01*
X138493308Y-109491308D01*
X138468807Y-109513515D01*
X138442247Y-109533213D01*
X138413884Y-109550213D01*
X138383991Y-109564351D01*
X138352857Y-109575491D01*
X138320781Y-109583525D01*
X138288071Y-109588377D01*
X138255044Y-109590000D01*
X137128956Y-109590000D01*
X137095929Y-109588377D01*
X137063219Y-109583525D01*
X137031143Y-109575491D01*
X137000009Y-109564351D01*
X136970116Y-109550213D01*
X136941753Y-109533213D01*
X136915193Y-109513515D01*
X136890692Y-109491308D01*
X136868485Y-109466807D01*
X136848787Y-109440247D01*
X136831787Y-109411884D01*
X136817649Y-109381991D01*
X136806509Y-109350857D01*
X136798475Y-109318781D01*
X136793623Y-109286071D01*
X136792000Y-109253044D01*
X136792000Y-108376956D01*
X136793623Y-108343929D01*
X136798475Y-108311219D01*
X136806509Y-108279143D01*
X136817649Y-108248009D01*
X136831787Y-108218116D01*
X136848787Y-108189753D01*
X136868485Y-108163193D01*
X136890692Y-108138692D01*
X136915193Y-108116485D01*
X136941753Y-108096787D01*
X136970116Y-108079787D01*
X137000009Y-108065649D01*
X137031143Y-108054509D01*
X137063219Y-108046475D01*
X137095929Y-108041623D01*
X137128956Y-108040000D01*
X138255044Y-108040000D01*
X138288071Y-108041623D01*
X138288071Y-108041623D01*
G37*
D11*
X137692000Y-108815000D03*
G04 #@! TD*
D10*
G04 #@! TO.C,C4*
G36*
X137502071Y-116311623D02*
X137534781Y-116316475D01*
X137566857Y-116324509D01*
X137597991Y-116335649D01*
X137627884Y-116349787D01*
X137656247Y-116366787D01*
X137682807Y-116386485D01*
X137707308Y-116408692D01*
X137729515Y-116433193D01*
X137749213Y-116459753D01*
X137766213Y-116488116D01*
X137780351Y-116518009D01*
X137791491Y-116549143D01*
X137799525Y-116581219D01*
X137804377Y-116613929D01*
X137806000Y-116646956D01*
X137806000Y-117523044D01*
X137804377Y-117556071D01*
X137799525Y-117588781D01*
X137791491Y-117620857D01*
X137780351Y-117651991D01*
X137766213Y-117681884D01*
X137749213Y-117710247D01*
X137729515Y-117736807D01*
X137707308Y-117761308D01*
X137682807Y-117783515D01*
X137656247Y-117803213D01*
X137627884Y-117820213D01*
X137597991Y-117834351D01*
X137566857Y-117845491D01*
X137534781Y-117853525D01*
X137502071Y-117858377D01*
X137469044Y-117860000D01*
X136342956Y-117860000D01*
X136309929Y-117858377D01*
X136277219Y-117853525D01*
X136245143Y-117845491D01*
X136214009Y-117834351D01*
X136184116Y-117820213D01*
X136155753Y-117803213D01*
X136129193Y-117783515D01*
X136104692Y-117761308D01*
X136082485Y-117736807D01*
X136062787Y-117710247D01*
X136045787Y-117681884D01*
X136031649Y-117651991D01*
X136020509Y-117620857D01*
X136012475Y-117588781D01*
X136007623Y-117556071D01*
X136006000Y-117523044D01*
X136006000Y-116646956D01*
X136007623Y-116613929D01*
X136012475Y-116581219D01*
X136020509Y-116549143D01*
X136031649Y-116518009D01*
X136045787Y-116488116D01*
X136062787Y-116459753D01*
X136082485Y-116433193D01*
X136104692Y-116408692D01*
X136129193Y-116386485D01*
X136155753Y-116366787D01*
X136184116Y-116349787D01*
X136214009Y-116335649D01*
X136245143Y-116324509D01*
X136277219Y-116316475D01*
X136309929Y-116311623D01*
X136342956Y-116310000D01*
X137469044Y-116310000D01*
X137502071Y-116311623D01*
X137502071Y-116311623D01*
G37*
D11*
X136906000Y-117085000D03*
D10*
G36*
X137502071Y-118361623D02*
X137534781Y-118366475D01*
X137566857Y-118374509D01*
X137597991Y-118385649D01*
X137627884Y-118399787D01*
X137656247Y-118416787D01*
X137682807Y-118436485D01*
X137707308Y-118458692D01*
X137729515Y-118483193D01*
X137749213Y-118509753D01*
X137766213Y-118538116D01*
X137780351Y-118568009D01*
X137791491Y-118599143D01*
X137799525Y-118631219D01*
X137804377Y-118663929D01*
X137806000Y-118696956D01*
X137806000Y-119573044D01*
X137804377Y-119606071D01*
X137799525Y-119638781D01*
X137791491Y-119670857D01*
X137780351Y-119701991D01*
X137766213Y-119731884D01*
X137749213Y-119760247D01*
X137729515Y-119786807D01*
X137707308Y-119811308D01*
X137682807Y-119833515D01*
X137656247Y-119853213D01*
X137627884Y-119870213D01*
X137597991Y-119884351D01*
X137566857Y-119895491D01*
X137534781Y-119903525D01*
X137502071Y-119908377D01*
X137469044Y-119910000D01*
X136342956Y-119910000D01*
X136309929Y-119908377D01*
X136277219Y-119903525D01*
X136245143Y-119895491D01*
X136214009Y-119884351D01*
X136184116Y-119870213D01*
X136155753Y-119853213D01*
X136129193Y-119833515D01*
X136104692Y-119811308D01*
X136082485Y-119786807D01*
X136062787Y-119760247D01*
X136045787Y-119731884D01*
X136031649Y-119701991D01*
X136020509Y-119670857D01*
X136012475Y-119638781D01*
X136007623Y-119606071D01*
X136006000Y-119573044D01*
X136006000Y-118696956D01*
X136007623Y-118663929D01*
X136012475Y-118631219D01*
X136020509Y-118599143D01*
X136031649Y-118568009D01*
X136045787Y-118538116D01*
X136062787Y-118509753D01*
X136082485Y-118483193D01*
X136104692Y-118458692D01*
X136129193Y-118436485D01*
X136155753Y-118416787D01*
X136184116Y-118399787D01*
X136214009Y-118385649D01*
X136245143Y-118374509D01*
X136277219Y-118366475D01*
X136309929Y-118361623D01*
X136342956Y-118360000D01*
X137469044Y-118360000D01*
X137502071Y-118361623D01*
X137502071Y-118361623D01*
G37*
D11*
X136906000Y-119135000D03*
G04 #@! TD*
D12*
G04 #@! TO.C,D1*
X148687000Y-103405000D03*
X148687000Y-102155000D03*
X146837000Y-103405000D03*
X146837000Y-102155000D03*
G04 #@! TD*
D10*
G04 #@! TO.C,D2*
G36*
X135244071Y-107795623D02*
X135276781Y-107800475D01*
X135308857Y-107808509D01*
X135339991Y-107819649D01*
X135369884Y-107833787D01*
X135398247Y-107850787D01*
X135424807Y-107870485D01*
X135449308Y-107892692D01*
X135471515Y-107917193D01*
X135491213Y-107943753D01*
X135508213Y-107972116D01*
X135522351Y-108002009D01*
X135533491Y-108033143D01*
X135541525Y-108065219D01*
X135546377Y-108097929D01*
X135548000Y-108130956D01*
X135548000Y-109007044D01*
X135546377Y-109040071D01*
X135541525Y-109072781D01*
X135533491Y-109104857D01*
X135522351Y-109135991D01*
X135508213Y-109165884D01*
X135491213Y-109194247D01*
X135471515Y-109220807D01*
X135449308Y-109245308D01*
X135424807Y-109267515D01*
X135398247Y-109287213D01*
X135369884Y-109304213D01*
X135339991Y-109318351D01*
X135308857Y-109329491D01*
X135276781Y-109337525D01*
X135244071Y-109342377D01*
X135211044Y-109344000D01*
X134084956Y-109344000D01*
X134051929Y-109342377D01*
X134019219Y-109337525D01*
X133987143Y-109329491D01*
X133956009Y-109318351D01*
X133926116Y-109304213D01*
X133897753Y-109287213D01*
X133871193Y-109267515D01*
X133846692Y-109245308D01*
X133824485Y-109220807D01*
X133804787Y-109194247D01*
X133787787Y-109165884D01*
X133773649Y-109135991D01*
X133762509Y-109104857D01*
X133754475Y-109072781D01*
X133749623Y-109040071D01*
X133748000Y-109007044D01*
X133748000Y-108130956D01*
X133749623Y-108097929D01*
X133754475Y-108065219D01*
X133762509Y-108033143D01*
X133773649Y-108002009D01*
X133787787Y-107972116D01*
X133804787Y-107943753D01*
X133824485Y-107917193D01*
X133846692Y-107892692D01*
X133871193Y-107870485D01*
X133897753Y-107850787D01*
X133926116Y-107833787D01*
X133956009Y-107819649D01*
X133987143Y-107808509D01*
X134019219Y-107800475D01*
X134051929Y-107795623D01*
X134084956Y-107794000D01*
X135211044Y-107794000D01*
X135244071Y-107795623D01*
X135244071Y-107795623D01*
G37*
D11*
X134648000Y-108569000D03*
D10*
G36*
X135244071Y-109845623D02*
X135276781Y-109850475D01*
X135308857Y-109858509D01*
X135339991Y-109869649D01*
X135369884Y-109883787D01*
X135398247Y-109900787D01*
X135424807Y-109920485D01*
X135449308Y-109942692D01*
X135471515Y-109967193D01*
X135491213Y-109993753D01*
X135508213Y-110022116D01*
X135522351Y-110052009D01*
X135533491Y-110083143D01*
X135541525Y-110115219D01*
X135546377Y-110147929D01*
X135548000Y-110180956D01*
X135548000Y-111057044D01*
X135546377Y-111090071D01*
X135541525Y-111122781D01*
X135533491Y-111154857D01*
X135522351Y-111185991D01*
X135508213Y-111215884D01*
X135491213Y-111244247D01*
X135471515Y-111270807D01*
X135449308Y-111295308D01*
X135424807Y-111317515D01*
X135398247Y-111337213D01*
X135369884Y-111354213D01*
X135339991Y-111368351D01*
X135308857Y-111379491D01*
X135276781Y-111387525D01*
X135244071Y-111392377D01*
X135211044Y-111394000D01*
X134084956Y-111394000D01*
X134051929Y-111392377D01*
X134019219Y-111387525D01*
X133987143Y-111379491D01*
X133956009Y-111368351D01*
X133926116Y-111354213D01*
X133897753Y-111337213D01*
X133871193Y-111317515D01*
X133846692Y-111295308D01*
X133824485Y-111270807D01*
X133804787Y-111244247D01*
X133787787Y-111215884D01*
X133773649Y-111185991D01*
X133762509Y-111154857D01*
X133754475Y-111122781D01*
X133749623Y-111090071D01*
X133748000Y-111057044D01*
X133748000Y-110180956D01*
X133749623Y-110147929D01*
X133754475Y-110115219D01*
X133762509Y-110083143D01*
X133773649Y-110052009D01*
X133787787Y-110022116D01*
X133804787Y-109993753D01*
X133824485Y-109967193D01*
X133846692Y-109942692D01*
X133871193Y-109920485D01*
X133897753Y-109900787D01*
X133926116Y-109883787D01*
X133956009Y-109869649D01*
X133987143Y-109858509D01*
X134019219Y-109850475D01*
X134051929Y-109845623D01*
X134084956Y-109844000D01*
X135211044Y-109844000D01*
X135244071Y-109845623D01*
X135244071Y-109845623D01*
G37*
D11*
X134648000Y-110619000D03*
G04 #@! TD*
D13*
G04 #@! TO.C,J1*
X132492000Y-125370000D03*
X132492000Y-131170000D03*
D14*
X132492000Y-131770000D03*
X132492000Y-124770000D03*
D15*
X132492000Y-127270000D03*
D16*
X135192000Y-130770000D03*
D17*
X135192000Y-128270000D03*
X135192000Y-128920000D03*
X135192000Y-129570000D03*
X135192000Y-126970000D03*
X135192000Y-127620000D03*
D16*
X135192000Y-125770000D03*
D15*
X132492000Y-129270000D03*
G04 #@! TD*
D18*
G04 #@! TO.C,J2*
X142782000Y-104050000D03*
X140242000Y-104050000D03*
X137702000Y-104050000D03*
X135162000Y-104050000D03*
D19*
X132622000Y-104050000D03*
G04 #@! TD*
D18*
G04 #@! TO.C,J3*
X154212000Y-111540000D03*
X154212000Y-114080000D03*
X154212000Y-116620000D03*
D19*
X154212000Y-119160000D03*
G04 #@! TD*
D10*
G04 #@! TO.C,R1*
G36*
X141283071Y-124871623D02*
X141315781Y-124876475D01*
X141347857Y-124884509D01*
X141378991Y-124895649D01*
X141408884Y-124909787D01*
X141437247Y-124926787D01*
X141463807Y-124946485D01*
X141488308Y-124968692D01*
X141510515Y-124993193D01*
X141530213Y-125019753D01*
X141547213Y-125048116D01*
X141561351Y-125078009D01*
X141572491Y-125109143D01*
X141580525Y-125141219D01*
X141585377Y-125173929D01*
X141587000Y-125206956D01*
X141587000Y-126333044D01*
X141585377Y-126366071D01*
X141580525Y-126398781D01*
X141572491Y-126430857D01*
X141561351Y-126461991D01*
X141547213Y-126491884D01*
X141530213Y-126520247D01*
X141510515Y-126546807D01*
X141488308Y-126571308D01*
X141463807Y-126593515D01*
X141437247Y-126613213D01*
X141408884Y-126630213D01*
X141378991Y-126644351D01*
X141347857Y-126655491D01*
X141315781Y-126663525D01*
X141283071Y-126668377D01*
X141250044Y-126670000D01*
X140373956Y-126670000D01*
X140340929Y-126668377D01*
X140308219Y-126663525D01*
X140276143Y-126655491D01*
X140245009Y-126644351D01*
X140215116Y-126630213D01*
X140186753Y-126613213D01*
X140160193Y-126593515D01*
X140135692Y-126571308D01*
X140113485Y-126546807D01*
X140093787Y-126520247D01*
X140076787Y-126491884D01*
X140062649Y-126461991D01*
X140051509Y-126430857D01*
X140043475Y-126398781D01*
X140038623Y-126366071D01*
X140037000Y-126333044D01*
X140037000Y-125206956D01*
X140038623Y-125173929D01*
X140043475Y-125141219D01*
X140051509Y-125109143D01*
X140062649Y-125078009D01*
X140076787Y-125048116D01*
X140093787Y-125019753D01*
X140113485Y-124993193D01*
X140135692Y-124968692D01*
X140160193Y-124946485D01*
X140186753Y-124926787D01*
X140215116Y-124909787D01*
X140245009Y-124895649D01*
X140276143Y-124884509D01*
X140308219Y-124876475D01*
X140340929Y-124871623D01*
X140373956Y-124870000D01*
X141250044Y-124870000D01*
X141283071Y-124871623D01*
X141283071Y-124871623D01*
G37*
D11*
X140812000Y-125770000D03*
D10*
G36*
X139233071Y-124871623D02*
X139265781Y-124876475D01*
X139297857Y-124884509D01*
X139328991Y-124895649D01*
X139358884Y-124909787D01*
X139387247Y-124926787D01*
X139413807Y-124946485D01*
X139438308Y-124968692D01*
X139460515Y-124993193D01*
X139480213Y-125019753D01*
X139497213Y-125048116D01*
X139511351Y-125078009D01*
X139522491Y-125109143D01*
X139530525Y-125141219D01*
X139535377Y-125173929D01*
X139537000Y-125206956D01*
X139537000Y-126333044D01*
X139535377Y-126366071D01*
X139530525Y-126398781D01*
X139522491Y-126430857D01*
X139511351Y-126461991D01*
X139497213Y-126491884D01*
X139480213Y-126520247D01*
X139460515Y-126546807D01*
X139438308Y-126571308D01*
X139413807Y-126593515D01*
X139387247Y-126613213D01*
X139358884Y-126630213D01*
X139328991Y-126644351D01*
X139297857Y-126655491D01*
X139265781Y-126663525D01*
X139233071Y-126668377D01*
X139200044Y-126670000D01*
X138323956Y-126670000D01*
X138290929Y-126668377D01*
X138258219Y-126663525D01*
X138226143Y-126655491D01*
X138195009Y-126644351D01*
X138165116Y-126630213D01*
X138136753Y-126613213D01*
X138110193Y-126593515D01*
X138085692Y-126571308D01*
X138063485Y-126546807D01*
X138043787Y-126520247D01*
X138026787Y-126491884D01*
X138012649Y-126461991D01*
X138001509Y-126430857D01*
X137993475Y-126398781D01*
X137988623Y-126366071D01*
X137987000Y-126333044D01*
X137987000Y-125206956D01*
X137988623Y-125173929D01*
X137993475Y-125141219D01*
X138001509Y-125109143D01*
X138012649Y-125078009D01*
X138026787Y-125048116D01*
X138043787Y-125019753D01*
X138063485Y-124993193D01*
X138085692Y-124968692D01*
X138110193Y-124946485D01*
X138136753Y-124926787D01*
X138165116Y-124909787D01*
X138195009Y-124895649D01*
X138226143Y-124884509D01*
X138258219Y-124876475D01*
X138290929Y-124871623D01*
X138323956Y-124870000D01*
X139200044Y-124870000D01*
X139233071Y-124871623D01*
X139233071Y-124871623D01*
G37*
D11*
X138762000Y-125770000D03*
G04 #@! TD*
D10*
G04 #@! TO.C,R2*
G36*
X158330071Y-120647623D02*
X158362781Y-120652475D01*
X158394857Y-120660509D01*
X158425991Y-120671649D01*
X158455884Y-120685787D01*
X158484247Y-120702787D01*
X158510807Y-120722485D01*
X158535308Y-120744692D01*
X158557515Y-120769193D01*
X158577213Y-120795753D01*
X158594213Y-120824116D01*
X158608351Y-120854009D01*
X158619491Y-120885143D01*
X158627525Y-120917219D01*
X158632377Y-120949929D01*
X158634000Y-120982956D01*
X158634000Y-121859044D01*
X158632377Y-121892071D01*
X158627525Y-121924781D01*
X158619491Y-121956857D01*
X158608351Y-121987991D01*
X158594213Y-122017884D01*
X158577213Y-122046247D01*
X158557515Y-122072807D01*
X158535308Y-122097308D01*
X158510807Y-122119515D01*
X158484247Y-122139213D01*
X158455884Y-122156213D01*
X158425991Y-122170351D01*
X158394857Y-122181491D01*
X158362781Y-122189525D01*
X158330071Y-122194377D01*
X158297044Y-122196000D01*
X157170956Y-122196000D01*
X157137929Y-122194377D01*
X157105219Y-122189525D01*
X157073143Y-122181491D01*
X157042009Y-122170351D01*
X157012116Y-122156213D01*
X156983753Y-122139213D01*
X156957193Y-122119515D01*
X156932692Y-122097308D01*
X156910485Y-122072807D01*
X156890787Y-122046247D01*
X156873787Y-122017884D01*
X156859649Y-121987991D01*
X156848509Y-121956857D01*
X156840475Y-121924781D01*
X156835623Y-121892071D01*
X156834000Y-121859044D01*
X156834000Y-120982956D01*
X156835623Y-120949929D01*
X156840475Y-120917219D01*
X156848509Y-120885143D01*
X156859649Y-120854009D01*
X156873787Y-120824116D01*
X156890787Y-120795753D01*
X156910485Y-120769193D01*
X156932692Y-120744692D01*
X156957193Y-120722485D01*
X156983753Y-120702787D01*
X157012116Y-120685787D01*
X157042009Y-120671649D01*
X157073143Y-120660509D01*
X157105219Y-120652475D01*
X157137929Y-120647623D01*
X157170956Y-120646000D01*
X158297044Y-120646000D01*
X158330071Y-120647623D01*
X158330071Y-120647623D01*
G37*
D11*
X157734000Y-121421000D03*
D10*
G36*
X158330071Y-118597623D02*
X158362781Y-118602475D01*
X158394857Y-118610509D01*
X158425991Y-118621649D01*
X158455884Y-118635787D01*
X158484247Y-118652787D01*
X158510807Y-118672485D01*
X158535308Y-118694692D01*
X158557515Y-118719193D01*
X158577213Y-118745753D01*
X158594213Y-118774116D01*
X158608351Y-118804009D01*
X158619491Y-118835143D01*
X158627525Y-118867219D01*
X158632377Y-118899929D01*
X158634000Y-118932956D01*
X158634000Y-119809044D01*
X158632377Y-119842071D01*
X158627525Y-119874781D01*
X158619491Y-119906857D01*
X158608351Y-119937991D01*
X158594213Y-119967884D01*
X158577213Y-119996247D01*
X158557515Y-120022807D01*
X158535308Y-120047308D01*
X158510807Y-120069515D01*
X158484247Y-120089213D01*
X158455884Y-120106213D01*
X158425991Y-120120351D01*
X158394857Y-120131491D01*
X158362781Y-120139525D01*
X158330071Y-120144377D01*
X158297044Y-120146000D01*
X157170956Y-120146000D01*
X157137929Y-120144377D01*
X157105219Y-120139525D01*
X157073143Y-120131491D01*
X157042009Y-120120351D01*
X157012116Y-120106213D01*
X156983753Y-120089213D01*
X156957193Y-120069515D01*
X156932692Y-120047308D01*
X156910485Y-120022807D01*
X156890787Y-119996247D01*
X156873787Y-119967884D01*
X156859649Y-119937991D01*
X156848509Y-119906857D01*
X156840475Y-119874781D01*
X156835623Y-119842071D01*
X156834000Y-119809044D01*
X156834000Y-118932956D01*
X156835623Y-118899929D01*
X156840475Y-118867219D01*
X156848509Y-118835143D01*
X156859649Y-118804009D01*
X156873787Y-118774116D01*
X156890787Y-118745753D01*
X156910485Y-118719193D01*
X156932692Y-118694692D01*
X156957193Y-118672485D01*
X156983753Y-118652787D01*
X157012116Y-118635787D01*
X157042009Y-118621649D01*
X157073143Y-118610509D01*
X157105219Y-118602475D01*
X157137929Y-118597623D01*
X157170956Y-118596000D01*
X158297044Y-118596000D01*
X158330071Y-118597623D01*
X158330071Y-118597623D01*
G37*
D11*
X157734000Y-119371000D03*
G04 #@! TD*
D10*
G04 #@! TO.C,R3*
G36*
X138384071Y-100447623D02*
X138416781Y-100452475D01*
X138448857Y-100460509D01*
X138479991Y-100471649D01*
X138509884Y-100485787D01*
X138538247Y-100502787D01*
X138564807Y-100522485D01*
X138589308Y-100544692D01*
X138611515Y-100569193D01*
X138631213Y-100595753D01*
X138648213Y-100624116D01*
X138662351Y-100654009D01*
X138673491Y-100685143D01*
X138681525Y-100717219D01*
X138686377Y-100749929D01*
X138688000Y-100782956D01*
X138688000Y-101909044D01*
X138686377Y-101942071D01*
X138681525Y-101974781D01*
X138673491Y-102006857D01*
X138662351Y-102037991D01*
X138648213Y-102067884D01*
X138631213Y-102096247D01*
X138611515Y-102122807D01*
X138589308Y-102147308D01*
X138564807Y-102169515D01*
X138538247Y-102189213D01*
X138509884Y-102206213D01*
X138479991Y-102220351D01*
X138448857Y-102231491D01*
X138416781Y-102239525D01*
X138384071Y-102244377D01*
X138351044Y-102246000D01*
X137474956Y-102246000D01*
X137441929Y-102244377D01*
X137409219Y-102239525D01*
X137377143Y-102231491D01*
X137346009Y-102220351D01*
X137316116Y-102206213D01*
X137287753Y-102189213D01*
X137261193Y-102169515D01*
X137236692Y-102147308D01*
X137214485Y-102122807D01*
X137194787Y-102096247D01*
X137177787Y-102067884D01*
X137163649Y-102037991D01*
X137152509Y-102006857D01*
X137144475Y-101974781D01*
X137139623Y-101942071D01*
X137138000Y-101909044D01*
X137138000Y-100782956D01*
X137139623Y-100749929D01*
X137144475Y-100717219D01*
X137152509Y-100685143D01*
X137163649Y-100654009D01*
X137177787Y-100624116D01*
X137194787Y-100595753D01*
X137214485Y-100569193D01*
X137236692Y-100544692D01*
X137261193Y-100522485D01*
X137287753Y-100502787D01*
X137316116Y-100485787D01*
X137346009Y-100471649D01*
X137377143Y-100460509D01*
X137409219Y-100452475D01*
X137441929Y-100447623D01*
X137474956Y-100446000D01*
X138351044Y-100446000D01*
X138384071Y-100447623D01*
X138384071Y-100447623D01*
G37*
D11*
X137913000Y-101346000D03*
D10*
G36*
X140434071Y-100447623D02*
X140466781Y-100452475D01*
X140498857Y-100460509D01*
X140529991Y-100471649D01*
X140559884Y-100485787D01*
X140588247Y-100502787D01*
X140614807Y-100522485D01*
X140639308Y-100544692D01*
X140661515Y-100569193D01*
X140681213Y-100595753D01*
X140698213Y-100624116D01*
X140712351Y-100654009D01*
X140723491Y-100685143D01*
X140731525Y-100717219D01*
X140736377Y-100749929D01*
X140738000Y-100782956D01*
X140738000Y-101909044D01*
X140736377Y-101942071D01*
X140731525Y-101974781D01*
X140723491Y-102006857D01*
X140712351Y-102037991D01*
X140698213Y-102067884D01*
X140681213Y-102096247D01*
X140661515Y-102122807D01*
X140639308Y-102147308D01*
X140614807Y-102169515D01*
X140588247Y-102189213D01*
X140559884Y-102206213D01*
X140529991Y-102220351D01*
X140498857Y-102231491D01*
X140466781Y-102239525D01*
X140434071Y-102244377D01*
X140401044Y-102246000D01*
X139524956Y-102246000D01*
X139491929Y-102244377D01*
X139459219Y-102239525D01*
X139427143Y-102231491D01*
X139396009Y-102220351D01*
X139366116Y-102206213D01*
X139337753Y-102189213D01*
X139311193Y-102169515D01*
X139286692Y-102147308D01*
X139264485Y-102122807D01*
X139244787Y-102096247D01*
X139227787Y-102067884D01*
X139213649Y-102037991D01*
X139202509Y-102006857D01*
X139194475Y-101974781D01*
X139189623Y-101942071D01*
X139188000Y-101909044D01*
X139188000Y-100782956D01*
X139189623Y-100749929D01*
X139194475Y-100717219D01*
X139202509Y-100685143D01*
X139213649Y-100654009D01*
X139227787Y-100624116D01*
X139244787Y-100595753D01*
X139264485Y-100569193D01*
X139286692Y-100544692D01*
X139311193Y-100522485D01*
X139337753Y-100502787D01*
X139366116Y-100485787D01*
X139396009Y-100471649D01*
X139427143Y-100460509D01*
X139459219Y-100452475D01*
X139491929Y-100447623D01*
X139524956Y-100446000D01*
X140401044Y-100446000D01*
X140434071Y-100447623D01*
X140434071Y-100447623D01*
G37*
D11*
X139963000Y-101346000D03*
G04 #@! TD*
D10*
G04 #@! TO.C,R4*
G36*
X133304071Y-100447623D02*
X133336781Y-100452475D01*
X133368857Y-100460509D01*
X133399991Y-100471649D01*
X133429884Y-100485787D01*
X133458247Y-100502787D01*
X133484807Y-100522485D01*
X133509308Y-100544692D01*
X133531515Y-100569193D01*
X133551213Y-100595753D01*
X133568213Y-100624116D01*
X133582351Y-100654009D01*
X133593491Y-100685143D01*
X133601525Y-100717219D01*
X133606377Y-100749929D01*
X133608000Y-100782956D01*
X133608000Y-101909044D01*
X133606377Y-101942071D01*
X133601525Y-101974781D01*
X133593491Y-102006857D01*
X133582351Y-102037991D01*
X133568213Y-102067884D01*
X133551213Y-102096247D01*
X133531515Y-102122807D01*
X133509308Y-102147308D01*
X133484807Y-102169515D01*
X133458247Y-102189213D01*
X133429884Y-102206213D01*
X133399991Y-102220351D01*
X133368857Y-102231491D01*
X133336781Y-102239525D01*
X133304071Y-102244377D01*
X133271044Y-102246000D01*
X132394956Y-102246000D01*
X132361929Y-102244377D01*
X132329219Y-102239525D01*
X132297143Y-102231491D01*
X132266009Y-102220351D01*
X132236116Y-102206213D01*
X132207753Y-102189213D01*
X132181193Y-102169515D01*
X132156692Y-102147308D01*
X132134485Y-102122807D01*
X132114787Y-102096247D01*
X132097787Y-102067884D01*
X132083649Y-102037991D01*
X132072509Y-102006857D01*
X132064475Y-101974781D01*
X132059623Y-101942071D01*
X132058000Y-101909044D01*
X132058000Y-100782956D01*
X132059623Y-100749929D01*
X132064475Y-100717219D01*
X132072509Y-100685143D01*
X132083649Y-100654009D01*
X132097787Y-100624116D01*
X132114787Y-100595753D01*
X132134485Y-100569193D01*
X132156692Y-100544692D01*
X132181193Y-100522485D01*
X132207753Y-100502787D01*
X132236116Y-100485787D01*
X132266009Y-100471649D01*
X132297143Y-100460509D01*
X132329219Y-100452475D01*
X132361929Y-100447623D01*
X132394956Y-100446000D01*
X133271044Y-100446000D01*
X133304071Y-100447623D01*
X133304071Y-100447623D01*
G37*
D11*
X132833000Y-101346000D03*
D10*
G36*
X135354071Y-100447623D02*
X135386781Y-100452475D01*
X135418857Y-100460509D01*
X135449991Y-100471649D01*
X135479884Y-100485787D01*
X135508247Y-100502787D01*
X135534807Y-100522485D01*
X135559308Y-100544692D01*
X135581515Y-100569193D01*
X135601213Y-100595753D01*
X135618213Y-100624116D01*
X135632351Y-100654009D01*
X135643491Y-100685143D01*
X135651525Y-100717219D01*
X135656377Y-100749929D01*
X135658000Y-100782956D01*
X135658000Y-101909044D01*
X135656377Y-101942071D01*
X135651525Y-101974781D01*
X135643491Y-102006857D01*
X135632351Y-102037991D01*
X135618213Y-102067884D01*
X135601213Y-102096247D01*
X135581515Y-102122807D01*
X135559308Y-102147308D01*
X135534807Y-102169515D01*
X135508247Y-102189213D01*
X135479884Y-102206213D01*
X135449991Y-102220351D01*
X135418857Y-102231491D01*
X135386781Y-102239525D01*
X135354071Y-102244377D01*
X135321044Y-102246000D01*
X134444956Y-102246000D01*
X134411929Y-102244377D01*
X134379219Y-102239525D01*
X134347143Y-102231491D01*
X134316009Y-102220351D01*
X134286116Y-102206213D01*
X134257753Y-102189213D01*
X134231193Y-102169515D01*
X134206692Y-102147308D01*
X134184485Y-102122807D01*
X134164787Y-102096247D01*
X134147787Y-102067884D01*
X134133649Y-102037991D01*
X134122509Y-102006857D01*
X134114475Y-101974781D01*
X134109623Y-101942071D01*
X134108000Y-101909044D01*
X134108000Y-100782956D01*
X134109623Y-100749929D01*
X134114475Y-100717219D01*
X134122509Y-100685143D01*
X134133649Y-100654009D01*
X134147787Y-100624116D01*
X134164787Y-100595753D01*
X134184485Y-100569193D01*
X134206692Y-100544692D01*
X134231193Y-100522485D01*
X134257753Y-100502787D01*
X134286116Y-100485787D01*
X134316009Y-100471649D01*
X134347143Y-100460509D01*
X134379219Y-100452475D01*
X134411929Y-100447623D01*
X134444956Y-100446000D01*
X135321044Y-100446000D01*
X135354071Y-100447623D01*
X135354071Y-100447623D01*
G37*
D11*
X134883000Y-101346000D03*
G04 #@! TD*
D10*
G04 #@! TO.C,R5*
G36*
X154882071Y-123191623D02*
X154914781Y-123196475D01*
X154946857Y-123204509D01*
X154977991Y-123215649D01*
X155007884Y-123229787D01*
X155036247Y-123246787D01*
X155062807Y-123266485D01*
X155087308Y-123288692D01*
X155109515Y-123313193D01*
X155129213Y-123339753D01*
X155146213Y-123368116D01*
X155160351Y-123398009D01*
X155171491Y-123429143D01*
X155179525Y-123461219D01*
X155184377Y-123493929D01*
X155186000Y-123526956D01*
X155186000Y-124403044D01*
X155184377Y-124436071D01*
X155179525Y-124468781D01*
X155171491Y-124500857D01*
X155160351Y-124531991D01*
X155146213Y-124561884D01*
X155129213Y-124590247D01*
X155109515Y-124616807D01*
X155087308Y-124641308D01*
X155062807Y-124663515D01*
X155036247Y-124683213D01*
X155007884Y-124700213D01*
X154977991Y-124714351D01*
X154946857Y-124725491D01*
X154914781Y-124733525D01*
X154882071Y-124738377D01*
X154849044Y-124740000D01*
X153722956Y-124740000D01*
X153689929Y-124738377D01*
X153657219Y-124733525D01*
X153625143Y-124725491D01*
X153594009Y-124714351D01*
X153564116Y-124700213D01*
X153535753Y-124683213D01*
X153509193Y-124663515D01*
X153484692Y-124641308D01*
X153462485Y-124616807D01*
X153442787Y-124590247D01*
X153425787Y-124561884D01*
X153411649Y-124531991D01*
X153400509Y-124500857D01*
X153392475Y-124468781D01*
X153387623Y-124436071D01*
X153386000Y-124403044D01*
X153386000Y-123526956D01*
X153387623Y-123493929D01*
X153392475Y-123461219D01*
X153400509Y-123429143D01*
X153411649Y-123398009D01*
X153425787Y-123368116D01*
X153442787Y-123339753D01*
X153462485Y-123313193D01*
X153484692Y-123288692D01*
X153509193Y-123266485D01*
X153535753Y-123246787D01*
X153564116Y-123229787D01*
X153594009Y-123215649D01*
X153625143Y-123204509D01*
X153657219Y-123196475D01*
X153689929Y-123191623D01*
X153722956Y-123190000D01*
X154849044Y-123190000D01*
X154882071Y-123191623D01*
X154882071Y-123191623D01*
G37*
D11*
X154286000Y-123965000D03*
D10*
G36*
X154882071Y-121141623D02*
X154914781Y-121146475D01*
X154946857Y-121154509D01*
X154977991Y-121165649D01*
X155007884Y-121179787D01*
X155036247Y-121196787D01*
X155062807Y-121216485D01*
X155087308Y-121238692D01*
X155109515Y-121263193D01*
X155129213Y-121289753D01*
X155146213Y-121318116D01*
X155160351Y-121348009D01*
X155171491Y-121379143D01*
X155179525Y-121411219D01*
X155184377Y-121443929D01*
X155186000Y-121476956D01*
X155186000Y-122353044D01*
X155184377Y-122386071D01*
X155179525Y-122418781D01*
X155171491Y-122450857D01*
X155160351Y-122481991D01*
X155146213Y-122511884D01*
X155129213Y-122540247D01*
X155109515Y-122566807D01*
X155087308Y-122591308D01*
X155062807Y-122613515D01*
X155036247Y-122633213D01*
X155007884Y-122650213D01*
X154977991Y-122664351D01*
X154946857Y-122675491D01*
X154914781Y-122683525D01*
X154882071Y-122688377D01*
X154849044Y-122690000D01*
X153722956Y-122690000D01*
X153689929Y-122688377D01*
X153657219Y-122683525D01*
X153625143Y-122675491D01*
X153594009Y-122664351D01*
X153564116Y-122650213D01*
X153535753Y-122633213D01*
X153509193Y-122613515D01*
X153484692Y-122591308D01*
X153462485Y-122566807D01*
X153442787Y-122540247D01*
X153425787Y-122511884D01*
X153411649Y-122481991D01*
X153400509Y-122450857D01*
X153392475Y-122418781D01*
X153387623Y-122386071D01*
X153386000Y-122353044D01*
X153386000Y-121476956D01*
X153387623Y-121443929D01*
X153392475Y-121411219D01*
X153400509Y-121379143D01*
X153411649Y-121348009D01*
X153425787Y-121318116D01*
X153442787Y-121289753D01*
X153462485Y-121263193D01*
X153484692Y-121238692D01*
X153509193Y-121216485D01*
X153535753Y-121196787D01*
X153564116Y-121179787D01*
X153594009Y-121165649D01*
X153625143Y-121154509D01*
X153657219Y-121146475D01*
X153689929Y-121141623D01*
X153722956Y-121140000D01*
X154849044Y-121140000D01*
X154882071Y-121141623D01*
X154882071Y-121141623D01*
G37*
D11*
X154286000Y-121915000D03*
G04 #@! TD*
D10*
G04 #@! TO.C,R6*
G36*
X140908071Y-108031623D02*
X140940781Y-108036475D01*
X140972857Y-108044509D01*
X141003991Y-108055649D01*
X141033884Y-108069787D01*
X141062247Y-108086787D01*
X141088807Y-108106485D01*
X141113308Y-108128692D01*
X141135515Y-108153193D01*
X141155213Y-108179753D01*
X141172213Y-108208116D01*
X141186351Y-108238009D01*
X141197491Y-108269143D01*
X141205525Y-108301219D01*
X141210377Y-108333929D01*
X141212000Y-108366956D01*
X141212000Y-109243044D01*
X141210377Y-109276071D01*
X141205525Y-109308781D01*
X141197491Y-109340857D01*
X141186351Y-109371991D01*
X141172213Y-109401884D01*
X141155213Y-109430247D01*
X141135515Y-109456807D01*
X141113308Y-109481308D01*
X141088807Y-109503515D01*
X141062247Y-109523213D01*
X141033884Y-109540213D01*
X141003991Y-109554351D01*
X140972857Y-109565491D01*
X140940781Y-109573525D01*
X140908071Y-109578377D01*
X140875044Y-109580000D01*
X139748956Y-109580000D01*
X139715929Y-109578377D01*
X139683219Y-109573525D01*
X139651143Y-109565491D01*
X139620009Y-109554351D01*
X139590116Y-109540213D01*
X139561753Y-109523213D01*
X139535193Y-109503515D01*
X139510692Y-109481308D01*
X139488485Y-109456807D01*
X139468787Y-109430247D01*
X139451787Y-109401884D01*
X139437649Y-109371991D01*
X139426509Y-109340857D01*
X139418475Y-109308781D01*
X139413623Y-109276071D01*
X139412000Y-109243044D01*
X139412000Y-108366956D01*
X139413623Y-108333929D01*
X139418475Y-108301219D01*
X139426509Y-108269143D01*
X139437649Y-108238009D01*
X139451787Y-108208116D01*
X139468787Y-108179753D01*
X139488485Y-108153193D01*
X139510692Y-108128692D01*
X139535193Y-108106485D01*
X139561753Y-108086787D01*
X139590116Y-108069787D01*
X139620009Y-108055649D01*
X139651143Y-108044509D01*
X139683219Y-108036475D01*
X139715929Y-108031623D01*
X139748956Y-108030000D01*
X140875044Y-108030000D01*
X140908071Y-108031623D01*
X140908071Y-108031623D01*
G37*
D11*
X140312000Y-108805000D03*
D10*
G36*
X140908071Y-105981623D02*
X140940781Y-105986475D01*
X140972857Y-105994509D01*
X141003991Y-106005649D01*
X141033884Y-106019787D01*
X141062247Y-106036787D01*
X141088807Y-106056485D01*
X141113308Y-106078692D01*
X141135515Y-106103193D01*
X141155213Y-106129753D01*
X141172213Y-106158116D01*
X141186351Y-106188009D01*
X141197491Y-106219143D01*
X141205525Y-106251219D01*
X141210377Y-106283929D01*
X141212000Y-106316956D01*
X141212000Y-107193044D01*
X141210377Y-107226071D01*
X141205525Y-107258781D01*
X141197491Y-107290857D01*
X141186351Y-107321991D01*
X141172213Y-107351884D01*
X141155213Y-107380247D01*
X141135515Y-107406807D01*
X141113308Y-107431308D01*
X141088807Y-107453515D01*
X141062247Y-107473213D01*
X141033884Y-107490213D01*
X141003991Y-107504351D01*
X140972857Y-107515491D01*
X140940781Y-107523525D01*
X140908071Y-107528377D01*
X140875044Y-107530000D01*
X139748956Y-107530000D01*
X139715929Y-107528377D01*
X139683219Y-107523525D01*
X139651143Y-107515491D01*
X139620009Y-107504351D01*
X139590116Y-107490213D01*
X139561753Y-107473213D01*
X139535193Y-107453515D01*
X139510692Y-107431308D01*
X139488485Y-107406807D01*
X139468787Y-107380247D01*
X139451787Y-107351884D01*
X139437649Y-107321991D01*
X139426509Y-107290857D01*
X139418475Y-107258781D01*
X139413623Y-107226071D01*
X139412000Y-107193044D01*
X139412000Y-106316956D01*
X139413623Y-106283929D01*
X139418475Y-106251219D01*
X139426509Y-106219143D01*
X139437649Y-106188009D01*
X139451787Y-106158116D01*
X139468787Y-106129753D01*
X139488485Y-106103193D01*
X139510692Y-106078692D01*
X139535193Y-106056485D01*
X139561753Y-106036787D01*
X139590116Y-106019787D01*
X139620009Y-106005649D01*
X139651143Y-105994509D01*
X139683219Y-105986475D01*
X139715929Y-105981623D01*
X139748956Y-105980000D01*
X140875044Y-105980000D01*
X140908071Y-105981623D01*
X140908071Y-105981623D01*
G37*
D11*
X140312000Y-106755000D03*
G04 #@! TD*
D10*
G04 #@! TO.C,R7*
G36*
X151288071Y-105571623D02*
X151320781Y-105576475D01*
X151352857Y-105584509D01*
X151383991Y-105595649D01*
X151413884Y-105609787D01*
X151442247Y-105626787D01*
X151468807Y-105646485D01*
X151493308Y-105668692D01*
X151515515Y-105693193D01*
X151535213Y-105719753D01*
X151552213Y-105748116D01*
X151566351Y-105778009D01*
X151577491Y-105809143D01*
X151585525Y-105841219D01*
X151590377Y-105873929D01*
X151592000Y-105906956D01*
X151592000Y-106783044D01*
X151590377Y-106816071D01*
X151585525Y-106848781D01*
X151577491Y-106880857D01*
X151566351Y-106911991D01*
X151552213Y-106941884D01*
X151535213Y-106970247D01*
X151515515Y-106996807D01*
X151493308Y-107021308D01*
X151468807Y-107043515D01*
X151442247Y-107063213D01*
X151413884Y-107080213D01*
X151383991Y-107094351D01*
X151352857Y-107105491D01*
X151320781Y-107113525D01*
X151288071Y-107118377D01*
X151255044Y-107120000D01*
X150128956Y-107120000D01*
X150095929Y-107118377D01*
X150063219Y-107113525D01*
X150031143Y-107105491D01*
X150000009Y-107094351D01*
X149970116Y-107080213D01*
X149941753Y-107063213D01*
X149915193Y-107043515D01*
X149890692Y-107021308D01*
X149868485Y-106996807D01*
X149848787Y-106970247D01*
X149831787Y-106941884D01*
X149817649Y-106911991D01*
X149806509Y-106880857D01*
X149798475Y-106848781D01*
X149793623Y-106816071D01*
X149792000Y-106783044D01*
X149792000Y-105906956D01*
X149793623Y-105873929D01*
X149798475Y-105841219D01*
X149806509Y-105809143D01*
X149817649Y-105778009D01*
X149831787Y-105748116D01*
X149848787Y-105719753D01*
X149868485Y-105693193D01*
X149890692Y-105668692D01*
X149915193Y-105646485D01*
X149941753Y-105626787D01*
X149970116Y-105609787D01*
X150000009Y-105595649D01*
X150031143Y-105584509D01*
X150063219Y-105576475D01*
X150095929Y-105571623D01*
X150128956Y-105570000D01*
X151255044Y-105570000D01*
X151288071Y-105571623D01*
X151288071Y-105571623D01*
G37*
D11*
X150692000Y-106345000D03*
D10*
G36*
X151288071Y-107621623D02*
X151320781Y-107626475D01*
X151352857Y-107634509D01*
X151383991Y-107645649D01*
X151413884Y-107659787D01*
X151442247Y-107676787D01*
X151468807Y-107696485D01*
X151493308Y-107718692D01*
X151515515Y-107743193D01*
X151535213Y-107769753D01*
X151552213Y-107798116D01*
X151566351Y-107828009D01*
X151577491Y-107859143D01*
X151585525Y-107891219D01*
X151590377Y-107923929D01*
X151592000Y-107956956D01*
X151592000Y-108833044D01*
X151590377Y-108866071D01*
X151585525Y-108898781D01*
X151577491Y-108930857D01*
X151566351Y-108961991D01*
X151552213Y-108991884D01*
X151535213Y-109020247D01*
X151515515Y-109046807D01*
X151493308Y-109071308D01*
X151468807Y-109093515D01*
X151442247Y-109113213D01*
X151413884Y-109130213D01*
X151383991Y-109144351D01*
X151352857Y-109155491D01*
X151320781Y-109163525D01*
X151288071Y-109168377D01*
X151255044Y-109170000D01*
X150128956Y-109170000D01*
X150095929Y-109168377D01*
X150063219Y-109163525D01*
X150031143Y-109155491D01*
X150000009Y-109144351D01*
X149970116Y-109130213D01*
X149941753Y-109113213D01*
X149915193Y-109093515D01*
X149890692Y-109071308D01*
X149868485Y-109046807D01*
X149848787Y-109020247D01*
X149831787Y-108991884D01*
X149817649Y-108961991D01*
X149806509Y-108930857D01*
X149798475Y-108898781D01*
X149793623Y-108866071D01*
X149792000Y-108833044D01*
X149792000Y-107956956D01*
X149793623Y-107923929D01*
X149798475Y-107891219D01*
X149806509Y-107859143D01*
X149817649Y-107828009D01*
X149831787Y-107798116D01*
X149848787Y-107769753D01*
X149868485Y-107743193D01*
X149890692Y-107718692D01*
X149915193Y-107696485D01*
X149941753Y-107676787D01*
X149970116Y-107659787D01*
X150000009Y-107645649D01*
X150031143Y-107634509D01*
X150063219Y-107626475D01*
X150095929Y-107621623D01*
X150128956Y-107620000D01*
X151255044Y-107620000D01*
X151288071Y-107621623D01*
X151288071Y-107621623D01*
G37*
D11*
X150692000Y-108395000D03*
G04 #@! TD*
D10*
G04 #@! TO.C,R8*
G36*
X148968071Y-105561623D02*
X149000781Y-105566475D01*
X149032857Y-105574509D01*
X149063991Y-105585649D01*
X149093884Y-105599787D01*
X149122247Y-105616787D01*
X149148807Y-105636485D01*
X149173308Y-105658692D01*
X149195515Y-105683193D01*
X149215213Y-105709753D01*
X149232213Y-105738116D01*
X149246351Y-105768009D01*
X149257491Y-105799143D01*
X149265525Y-105831219D01*
X149270377Y-105863929D01*
X149272000Y-105896956D01*
X149272000Y-106773044D01*
X149270377Y-106806071D01*
X149265525Y-106838781D01*
X149257491Y-106870857D01*
X149246351Y-106901991D01*
X149232213Y-106931884D01*
X149215213Y-106960247D01*
X149195515Y-106986807D01*
X149173308Y-107011308D01*
X149148807Y-107033515D01*
X149122247Y-107053213D01*
X149093884Y-107070213D01*
X149063991Y-107084351D01*
X149032857Y-107095491D01*
X149000781Y-107103525D01*
X148968071Y-107108377D01*
X148935044Y-107110000D01*
X147808956Y-107110000D01*
X147775929Y-107108377D01*
X147743219Y-107103525D01*
X147711143Y-107095491D01*
X147680009Y-107084351D01*
X147650116Y-107070213D01*
X147621753Y-107053213D01*
X147595193Y-107033515D01*
X147570692Y-107011308D01*
X147548485Y-106986807D01*
X147528787Y-106960247D01*
X147511787Y-106931884D01*
X147497649Y-106901991D01*
X147486509Y-106870857D01*
X147478475Y-106838781D01*
X147473623Y-106806071D01*
X147472000Y-106773044D01*
X147472000Y-105896956D01*
X147473623Y-105863929D01*
X147478475Y-105831219D01*
X147486509Y-105799143D01*
X147497649Y-105768009D01*
X147511787Y-105738116D01*
X147528787Y-105709753D01*
X147548485Y-105683193D01*
X147570692Y-105658692D01*
X147595193Y-105636485D01*
X147621753Y-105616787D01*
X147650116Y-105599787D01*
X147680009Y-105585649D01*
X147711143Y-105574509D01*
X147743219Y-105566475D01*
X147775929Y-105561623D01*
X147808956Y-105560000D01*
X148935044Y-105560000D01*
X148968071Y-105561623D01*
X148968071Y-105561623D01*
G37*
D11*
X148372000Y-106335000D03*
D10*
G36*
X148968071Y-107611623D02*
X149000781Y-107616475D01*
X149032857Y-107624509D01*
X149063991Y-107635649D01*
X149093884Y-107649787D01*
X149122247Y-107666787D01*
X149148807Y-107686485D01*
X149173308Y-107708692D01*
X149195515Y-107733193D01*
X149215213Y-107759753D01*
X149232213Y-107788116D01*
X149246351Y-107818009D01*
X149257491Y-107849143D01*
X149265525Y-107881219D01*
X149270377Y-107913929D01*
X149272000Y-107946956D01*
X149272000Y-108823044D01*
X149270377Y-108856071D01*
X149265525Y-108888781D01*
X149257491Y-108920857D01*
X149246351Y-108951991D01*
X149232213Y-108981884D01*
X149215213Y-109010247D01*
X149195515Y-109036807D01*
X149173308Y-109061308D01*
X149148807Y-109083515D01*
X149122247Y-109103213D01*
X149093884Y-109120213D01*
X149063991Y-109134351D01*
X149032857Y-109145491D01*
X149000781Y-109153525D01*
X148968071Y-109158377D01*
X148935044Y-109160000D01*
X147808956Y-109160000D01*
X147775929Y-109158377D01*
X147743219Y-109153525D01*
X147711143Y-109145491D01*
X147680009Y-109134351D01*
X147650116Y-109120213D01*
X147621753Y-109103213D01*
X147595193Y-109083515D01*
X147570692Y-109061308D01*
X147548485Y-109036807D01*
X147528787Y-109010247D01*
X147511787Y-108981884D01*
X147497649Y-108951991D01*
X147486509Y-108920857D01*
X147478475Y-108888781D01*
X147473623Y-108856071D01*
X147472000Y-108823044D01*
X147472000Y-107946956D01*
X147473623Y-107913929D01*
X147478475Y-107881219D01*
X147486509Y-107849143D01*
X147497649Y-107818009D01*
X147511787Y-107788116D01*
X147528787Y-107759753D01*
X147548485Y-107733193D01*
X147570692Y-107708692D01*
X147595193Y-107686485D01*
X147621753Y-107666787D01*
X147650116Y-107649787D01*
X147680009Y-107635649D01*
X147711143Y-107624509D01*
X147743219Y-107616475D01*
X147775929Y-107611623D01*
X147808956Y-107610000D01*
X148935044Y-107610000D01*
X148968071Y-107611623D01*
X148968071Y-107611623D01*
G37*
D11*
X148372000Y-108385000D03*
G04 #@! TD*
D10*
G04 #@! TO.C,R9*
G36*
X146578071Y-105561623D02*
X146610781Y-105566475D01*
X146642857Y-105574509D01*
X146673991Y-105585649D01*
X146703884Y-105599787D01*
X146732247Y-105616787D01*
X146758807Y-105636485D01*
X146783308Y-105658692D01*
X146805515Y-105683193D01*
X146825213Y-105709753D01*
X146842213Y-105738116D01*
X146856351Y-105768009D01*
X146867491Y-105799143D01*
X146875525Y-105831219D01*
X146880377Y-105863929D01*
X146882000Y-105896956D01*
X146882000Y-106773044D01*
X146880377Y-106806071D01*
X146875525Y-106838781D01*
X146867491Y-106870857D01*
X146856351Y-106901991D01*
X146842213Y-106931884D01*
X146825213Y-106960247D01*
X146805515Y-106986807D01*
X146783308Y-107011308D01*
X146758807Y-107033515D01*
X146732247Y-107053213D01*
X146703884Y-107070213D01*
X146673991Y-107084351D01*
X146642857Y-107095491D01*
X146610781Y-107103525D01*
X146578071Y-107108377D01*
X146545044Y-107110000D01*
X145418956Y-107110000D01*
X145385929Y-107108377D01*
X145353219Y-107103525D01*
X145321143Y-107095491D01*
X145290009Y-107084351D01*
X145260116Y-107070213D01*
X145231753Y-107053213D01*
X145205193Y-107033515D01*
X145180692Y-107011308D01*
X145158485Y-106986807D01*
X145138787Y-106960247D01*
X145121787Y-106931884D01*
X145107649Y-106901991D01*
X145096509Y-106870857D01*
X145088475Y-106838781D01*
X145083623Y-106806071D01*
X145082000Y-106773044D01*
X145082000Y-105896956D01*
X145083623Y-105863929D01*
X145088475Y-105831219D01*
X145096509Y-105799143D01*
X145107649Y-105768009D01*
X145121787Y-105738116D01*
X145138787Y-105709753D01*
X145158485Y-105683193D01*
X145180692Y-105658692D01*
X145205193Y-105636485D01*
X145231753Y-105616787D01*
X145260116Y-105599787D01*
X145290009Y-105585649D01*
X145321143Y-105574509D01*
X145353219Y-105566475D01*
X145385929Y-105561623D01*
X145418956Y-105560000D01*
X146545044Y-105560000D01*
X146578071Y-105561623D01*
X146578071Y-105561623D01*
G37*
D11*
X145982000Y-106335000D03*
D10*
G36*
X146578071Y-107611623D02*
X146610781Y-107616475D01*
X146642857Y-107624509D01*
X146673991Y-107635649D01*
X146703884Y-107649787D01*
X146732247Y-107666787D01*
X146758807Y-107686485D01*
X146783308Y-107708692D01*
X146805515Y-107733193D01*
X146825213Y-107759753D01*
X146842213Y-107788116D01*
X146856351Y-107818009D01*
X146867491Y-107849143D01*
X146875525Y-107881219D01*
X146880377Y-107913929D01*
X146882000Y-107946956D01*
X146882000Y-108823044D01*
X146880377Y-108856071D01*
X146875525Y-108888781D01*
X146867491Y-108920857D01*
X146856351Y-108951991D01*
X146842213Y-108981884D01*
X146825213Y-109010247D01*
X146805515Y-109036807D01*
X146783308Y-109061308D01*
X146758807Y-109083515D01*
X146732247Y-109103213D01*
X146703884Y-109120213D01*
X146673991Y-109134351D01*
X146642857Y-109145491D01*
X146610781Y-109153525D01*
X146578071Y-109158377D01*
X146545044Y-109160000D01*
X145418956Y-109160000D01*
X145385929Y-109158377D01*
X145353219Y-109153525D01*
X145321143Y-109145491D01*
X145290009Y-109134351D01*
X145260116Y-109120213D01*
X145231753Y-109103213D01*
X145205193Y-109083515D01*
X145180692Y-109061308D01*
X145158485Y-109036807D01*
X145138787Y-109010247D01*
X145121787Y-108981884D01*
X145107649Y-108951991D01*
X145096509Y-108920857D01*
X145088475Y-108888781D01*
X145083623Y-108856071D01*
X145082000Y-108823044D01*
X145082000Y-107946956D01*
X145083623Y-107913929D01*
X145088475Y-107881219D01*
X145096509Y-107849143D01*
X145107649Y-107818009D01*
X145121787Y-107788116D01*
X145138787Y-107759753D01*
X145158485Y-107733193D01*
X145180692Y-107708692D01*
X145205193Y-107686485D01*
X145231753Y-107666787D01*
X145260116Y-107649787D01*
X145290009Y-107635649D01*
X145321143Y-107624509D01*
X145353219Y-107616475D01*
X145385929Y-107611623D01*
X145418956Y-107610000D01*
X146545044Y-107610000D01*
X146578071Y-107611623D01*
X146578071Y-107611623D01*
G37*
D11*
X145982000Y-108385000D03*
G04 #@! TD*
D10*
G04 #@! TO.C,R10*
G36*
X132784071Y-107755623D02*
X132816781Y-107760475D01*
X132848857Y-107768509D01*
X132879991Y-107779649D01*
X132909884Y-107793787D01*
X132938247Y-107810787D01*
X132964807Y-107830485D01*
X132989308Y-107852692D01*
X133011515Y-107877193D01*
X133031213Y-107903753D01*
X133048213Y-107932116D01*
X133062351Y-107962009D01*
X133073491Y-107993143D01*
X133081525Y-108025219D01*
X133086377Y-108057929D01*
X133088000Y-108090956D01*
X133088000Y-108967044D01*
X133086377Y-109000071D01*
X133081525Y-109032781D01*
X133073491Y-109064857D01*
X133062351Y-109095991D01*
X133048213Y-109125884D01*
X133031213Y-109154247D01*
X133011515Y-109180807D01*
X132989308Y-109205308D01*
X132964807Y-109227515D01*
X132938247Y-109247213D01*
X132909884Y-109264213D01*
X132879991Y-109278351D01*
X132848857Y-109289491D01*
X132816781Y-109297525D01*
X132784071Y-109302377D01*
X132751044Y-109304000D01*
X131624956Y-109304000D01*
X131591929Y-109302377D01*
X131559219Y-109297525D01*
X131527143Y-109289491D01*
X131496009Y-109278351D01*
X131466116Y-109264213D01*
X131437753Y-109247213D01*
X131411193Y-109227515D01*
X131386692Y-109205308D01*
X131364485Y-109180807D01*
X131344787Y-109154247D01*
X131327787Y-109125884D01*
X131313649Y-109095991D01*
X131302509Y-109064857D01*
X131294475Y-109032781D01*
X131289623Y-109000071D01*
X131288000Y-108967044D01*
X131288000Y-108090956D01*
X131289623Y-108057929D01*
X131294475Y-108025219D01*
X131302509Y-107993143D01*
X131313649Y-107962009D01*
X131327787Y-107932116D01*
X131344787Y-107903753D01*
X131364485Y-107877193D01*
X131386692Y-107852692D01*
X131411193Y-107830485D01*
X131437753Y-107810787D01*
X131466116Y-107793787D01*
X131496009Y-107779649D01*
X131527143Y-107768509D01*
X131559219Y-107760475D01*
X131591929Y-107755623D01*
X131624956Y-107754000D01*
X132751044Y-107754000D01*
X132784071Y-107755623D01*
X132784071Y-107755623D01*
G37*
D11*
X132188000Y-108529000D03*
D10*
G36*
X132784071Y-109805623D02*
X132816781Y-109810475D01*
X132848857Y-109818509D01*
X132879991Y-109829649D01*
X132909884Y-109843787D01*
X132938247Y-109860787D01*
X132964807Y-109880485D01*
X132989308Y-109902692D01*
X133011515Y-109927193D01*
X133031213Y-109953753D01*
X133048213Y-109982116D01*
X133062351Y-110012009D01*
X133073491Y-110043143D01*
X133081525Y-110075219D01*
X133086377Y-110107929D01*
X133088000Y-110140956D01*
X133088000Y-111017044D01*
X133086377Y-111050071D01*
X133081525Y-111082781D01*
X133073491Y-111114857D01*
X133062351Y-111145991D01*
X133048213Y-111175884D01*
X133031213Y-111204247D01*
X133011515Y-111230807D01*
X132989308Y-111255308D01*
X132964807Y-111277515D01*
X132938247Y-111297213D01*
X132909884Y-111314213D01*
X132879991Y-111328351D01*
X132848857Y-111339491D01*
X132816781Y-111347525D01*
X132784071Y-111352377D01*
X132751044Y-111354000D01*
X131624956Y-111354000D01*
X131591929Y-111352377D01*
X131559219Y-111347525D01*
X131527143Y-111339491D01*
X131496009Y-111328351D01*
X131466116Y-111314213D01*
X131437753Y-111297213D01*
X131411193Y-111277515D01*
X131386692Y-111255308D01*
X131364485Y-111230807D01*
X131344787Y-111204247D01*
X131327787Y-111175884D01*
X131313649Y-111145991D01*
X131302509Y-111114857D01*
X131294475Y-111082781D01*
X131289623Y-111050071D01*
X131288000Y-111017044D01*
X131288000Y-110140956D01*
X131289623Y-110107929D01*
X131294475Y-110075219D01*
X131302509Y-110043143D01*
X131313649Y-110012009D01*
X131327787Y-109982116D01*
X131344787Y-109953753D01*
X131364485Y-109927193D01*
X131386692Y-109902692D01*
X131411193Y-109880485D01*
X131437753Y-109860787D01*
X131466116Y-109843787D01*
X131496009Y-109829649D01*
X131527143Y-109818509D01*
X131559219Y-109810475D01*
X131591929Y-109805623D01*
X131624956Y-109804000D01*
X132751044Y-109804000D01*
X132784071Y-109805623D01*
X132784071Y-109805623D01*
G37*
D11*
X132188000Y-110579000D03*
G04 #@! TD*
D20*
G04 #@! TO.C,SW1*
X133096000Y-121348000D03*
D21*
X133096000Y-119348000D03*
X133096000Y-117348000D03*
X133096000Y-115348000D03*
D20*
X133096000Y-113348000D03*
G04 #@! TD*
D22*
G04 #@! TO.C,SW2*
X143682000Y-126480000D03*
X143682000Y-130980000D03*
X150182000Y-126480000D03*
X150182000Y-130980000D03*
G04 #@! TD*
D23*
G04 #@! TO.C,U1*
X157568000Y-129069000D03*
D24*
X157568000Y-130419000D03*
D25*
X156368000Y-129069000D03*
D26*
X156368000Y-130419000D03*
G04 #@! TD*
D27*
G04 #@! TO.C,U2*
X150547000Y-122270000D03*
X150547000Y-112870000D03*
X149277000Y-122270000D03*
X149277000Y-112870000D03*
X148007000Y-122270000D03*
X148007000Y-112870000D03*
X146737000Y-122270000D03*
X146737000Y-112870000D03*
X145467000Y-122270000D03*
X145467000Y-112870000D03*
X144197000Y-122270000D03*
X144197000Y-112870000D03*
X142927000Y-122270000D03*
X142927000Y-112870000D03*
X141657000Y-122270000D03*
X141657000Y-112870000D03*
X140387000Y-122270000D03*
X140387000Y-112870000D03*
X139117000Y-122270000D03*
X139117000Y-112870000D03*
G04 #@! TD*
M02*
