G04 #@! TF.GenerationSoftware,KiCad,Pcbnew,5.0.0-fee4fd1~66~ubuntu18.04.1*
G04 #@! TF.CreationDate,2018-08-25T15:06:22-04:00*
G04 #@! TF.ProjectId,RGB Pulse Blinky,5247422050756C736520426C696E6B79,1*
G04 #@! TF.SameCoordinates,Original*
G04 #@! TF.FileFunction,Copper,L1,Top,Signal*
G04 #@! TF.FilePolarity,Positive*
%FSLAX46Y46*%
G04 Gerber Fmt 4.6, Leading zero omitted, Abs format (unit mm)*
G04 Created by KiCad (PCBNEW 5.0.0-fee4fd1~66~ubuntu18.04.1) date Sat Aug 25 15:06:22 2018*
%MOMM*%
%LPD*%
G01*
G04 APERTURE LIST*
G04 #@! TA.AperFunction,Conductor*
%ADD10C,0.100000*%
G04 #@! TD*
G04 #@! TA.AperFunction,SMDPad,CuDef*
%ADD11C,1.150000*%
G04 #@! TD*
G04 #@! TA.AperFunction,SMDPad,CuDef*
%ADD12R,1.000000X1.000000*%
G04 #@! TD*
G04 #@! TA.AperFunction,SMDPad,CuDef*
%ADD13R,1.900000X1.200000*%
G04 #@! TD*
G04 #@! TA.AperFunction,ComponentPad*
%ADD14O,1.900000X1.200000*%
G04 #@! TD*
G04 #@! TA.AperFunction,SMDPad,CuDef*
%ADD15R,1.900000X1.500000*%
G04 #@! TD*
G04 #@! TA.AperFunction,ComponentPad*
%ADD16C,1.450000*%
G04 #@! TD*
G04 #@! TA.AperFunction,SMDPad,CuDef*
%ADD17R,1.350000X0.400000*%
G04 #@! TD*
G04 #@! TA.AperFunction,ComponentPad*
%ADD18C,1.500000*%
G04 #@! TD*
G04 #@! TA.AperFunction,ComponentPad*
%ADD19R,1.500000X1.500000*%
G04 #@! TD*
G04 #@! TA.AperFunction,ComponentPad*
%ADD20O,2.000000X1.500000*%
G04 #@! TD*
G04 #@! TA.AperFunction,ComponentPad*
%ADD21O,2.000000X1.000000*%
G04 #@! TD*
G04 #@! TA.AperFunction,ComponentPad*
%ADD22C,2.000000*%
G04 #@! TD*
G04 #@! TA.AperFunction,SMDPad,CuDef*
%ADD23R,0.850000X1.150000*%
G04 #@! TD*
G04 #@! TA.AperFunction,SMDPad,CuDef*
%ADD24R,0.850000X0.950000*%
G04 #@! TD*
G04 #@! TA.AperFunction,SMDPad,CuDef*
%ADD25R,0.970000X1.150000*%
G04 #@! TD*
G04 #@! TA.AperFunction,SMDPad,CuDef*
%ADD26R,0.970000X0.950000*%
G04 #@! TD*
G04 #@! TA.AperFunction,SMDPad,CuDef*
%ADD27R,0.600000X1.950000*%
G04 #@! TD*
G04 #@! TA.AperFunction,ViaPad*
%ADD28C,0.800000*%
G04 #@! TD*
G04 #@! TA.AperFunction,Conductor*
%ADD29C,0.250000*%
G04 #@! TD*
G04 APERTURE END LIST*
D10*
G04 #@! TO.N,GND*
G04 #@! TO.C,C1*
G36*
X140844505Y-130259204D02*
X140868773Y-130262804D01*
X140892572Y-130268765D01*
X140915671Y-130277030D01*
X140937850Y-130287520D01*
X140958893Y-130300132D01*
X140978599Y-130314747D01*
X140996777Y-130331223D01*
X141013253Y-130349401D01*
X141027868Y-130369107D01*
X141040480Y-130390150D01*
X141050970Y-130412329D01*
X141059235Y-130435428D01*
X141065196Y-130459227D01*
X141068796Y-130483495D01*
X141070000Y-130507999D01*
X141070000Y-131408001D01*
X141068796Y-131432505D01*
X141065196Y-131456773D01*
X141059235Y-131480572D01*
X141050970Y-131503671D01*
X141040480Y-131525850D01*
X141027868Y-131546893D01*
X141013253Y-131566599D01*
X140996777Y-131584777D01*
X140978599Y-131601253D01*
X140958893Y-131615868D01*
X140937850Y-131628480D01*
X140915671Y-131638970D01*
X140892572Y-131647235D01*
X140868773Y-131653196D01*
X140844505Y-131656796D01*
X140820001Y-131658000D01*
X140169999Y-131658000D01*
X140145495Y-131656796D01*
X140121227Y-131653196D01*
X140097428Y-131647235D01*
X140074329Y-131638970D01*
X140052150Y-131628480D01*
X140031107Y-131615868D01*
X140011401Y-131601253D01*
X139993223Y-131584777D01*
X139976747Y-131566599D01*
X139962132Y-131546893D01*
X139949520Y-131525850D01*
X139939030Y-131503671D01*
X139930765Y-131480572D01*
X139924804Y-131456773D01*
X139921204Y-131432505D01*
X139920000Y-131408001D01*
X139920000Y-130507999D01*
X139921204Y-130483495D01*
X139924804Y-130459227D01*
X139930765Y-130435428D01*
X139939030Y-130412329D01*
X139949520Y-130390150D01*
X139962132Y-130369107D01*
X139976747Y-130349401D01*
X139993223Y-130331223D01*
X140011401Y-130314747D01*
X140031107Y-130300132D01*
X140052150Y-130287520D01*
X140074329Y-130277030D01*
X140097428Y-130268765D01*
X140121227Y-130262804D01*
X140145495Y-130259204D01*
X140169999Y-130258000D01*
X140820001Y-130258000D01*
X140844505Y-130259204D01*
X140844505Y-130259204D01*
G37*
D11*
G04 #@! TD*
G04 #@! TO.P,C1,2*
G04 #@! TO.N,GND*
X140495000Y-130958000D03*
D10*
G04 #@! TO.N,Net-(C1-Pad1)*
G04 #@! TO.C,C1*
G36*
X138794505Y-130259204D02*
X138818773Y-130262804D01*
X138842572Y-130268765D01*
X138865671Y-130277030D01*
X138887850Y-130287520D01*
X138908893Y-130300132D01*
X138928599Y-130314747D01*
X138946777Y-130331223D01*
X138963253Y-130349401D01*
X138977868Y-130369107D01*
X138990480Y-130390150D01*
X139000970Y-130412329D01*
X139009235Y-130435428D01*
X139015196Y-130459227D01*
X139018796Y-130483495D01*
X139020000Y-130507999D01*
X139020000Y-131408001D01*
X139018796Y-131432505D01*
X139015196Y-131456773D01*
X139009235Y-131480572D01*
X139000970Y-131503671D01*
X138990480Y-131525850D01*
X138977868Y-131546893D01*
X138963253Y-131566599D01*
X138946777Y-131584777D01*
X138928599Y-131601253D01*
X138908893Y-131615868D01*
X138887850Y-131628480D01*
X138865671Y-131638970D01*
X138842572Y-131647235D01*
X138818773Y-131653196D01*
X138794505Y-131656796D01*
X138770001Y-131658000D01*
X138119999Y-131658000D01*
X138095495Y-131656796D01*
X138071227Y-131653196D01*
X138047428Y-131647235D01*
X138024329Y-131638970D01*
X138002150Y-131628480D01*
X137981107Y-131615868D01*
X137961401Y-131601253D01*
X137943223Y-131584777D01*
X137926747Y-131566599D01*
X137912132Y-131546893D01*
X137899520Y-131525850D01*
X137889030Y-131503671D01*
X137880765Y-131480572D01*
X137874804Y-131456773D01*
X137871204Y-131432505D01*
X137870000Y-131408001D01*
X137870000Y-130507999D01*
X137871204Y-130483495D01*
X137874804Y-130459227D01*
X137880765Y-130435428D01*
X137889030Y-130412329D01*
X137899520Y-130390150D01*
X137912132Y-130369107D01*
X137926747Y-130349401D01*
X137943223Y-130331223D01*
X137961401Y-130314747D01*
X137981107Y-130300132D01*
X138002150Y-130287520D01*
X138024329Y-130277030D01*
X138047428Y-130268765D01*
X138071227Y-130262804D01*
X138095495Y-130259204D01*
X138119999Y-130258000D01*
X138770001Y-130258000D01*
X138794505Y-130259204D01*
X138794505Y-130259204D01*
G37*
D11*
G04 #@! TD*
G04 #@! TO.P,C1,1*
G04 #@! TO.N,Net-(C1-Pad1)*
X138445000Y-130958000D03*
D10*
G04 #@! TO.N,GND*
G04 #@! TO.C,C2*
G36*
X140824505Y-127489204D02*
X140848773Y-127492804D01*
X140872572Y-127498765D01*
X140895671Y-127507030D01*
X140917850Y-127517520D01*
X140938893Y-127530132D01*
X140958599Y-127544747D01*
X140976777Y-127561223D01*
X140993253Y-127579401D01*
X141007868Y-127599107D01*
X141020480Y-127620150D01*
X141030970Y-127642329D01*
X141039235Y-127665428D01*
X141045196Y-127689227D01*
X141048796Y-127713495D01*
X141050000Y-127737999D01*
X141050000Y-128638001D01*
X141048796Y-128662505D01*
X141045196Y-128686773D01*
X141039235Y-128710572D01*
X141030970Y-128733671D01*
X141020480Y-128755850D01*
X141007868Y-128776893D01*
X140993253Y-128796599D01*
X140976777Y-128814777D01*
X140958599Y-128831253D01*
X140938893Y-128845868D01*
X140917850Y-128858480D01*
X140895671Y-128868970D01*
X140872572Y-128877235D01*
X140848773Y-128883196D01*
X140824505Y-128886796D01*
X140800001Y-128888000D01*
X140149999Y-128888000D01*
X140125495Y-128886796D01*
X140101227Y-128883196D01*
X140077428Y-128877235D01*
X140054329Y-128868970D01*
X140032150Y-128858480D01*
X140011107Y-128845868D01*
X139991401Y-128831253D01*
X139973223Y-128814777D01*
X139956747Y-128796599D01*
X139942132Y-128776893D01*
X139929520Y-128755850D01*
X139919030Y-128733671D01*
X139910765Y-128710572D01*
X139904804Y-128686773D01*
X139901204Y-128662505D01*
X139900000Y-128638001D01*
X139900000Y-127737999D01*
X139901204Y-127713495D01*
X139904804Y-127689227D01*
X139910765Y-127665428D01*
X139919030Y-127642329D01*
X139929520Y-127620150D01*
X139942132Y-127599107D01*
X139956747Y-127579401D01*
X139973223Y-127561223D01*
X139991401Y-127544747D01*
X140011107Y-127530132D01*
X140032150Y-127517520D01*
X140054329Y-127507030D01*
X140077428Y-127498765D01*
X140101227Y-127492804D01*
X140125495Y-127489204D01*
X140149999Y-127488000D01*
X140800001Y-127488000D01*
X140824505Y-127489204D01*
X140824505Y-127489204D01*
G37*
D11*
G04 #@! TD*
G04 #@! TO.P,C2,2*
G04 #@! TO.N,GND*
X140475000Y-128188000D03*
D10*
G04 #@! TO.N,Net-(C1-Pad1)*
G04 #@! TO.C,C2*
G36*
X138774505Y-127489204D02*
X138798773Y-127492804D01*
X138822572Y-127498765D01*
X138845671Y-127507030D01*
X138867850Y-127517520D01*
X138888893Y-127530132D01*
X138908599Y-127544747D01*
X138926777Y-127561223D01*
X138943253Y-127579401D01*
X138957868Y-127599107D01*
X138970480Y-127620150D01*
X138980970Y-127642329D01*
X138989235Y-127665428D01*
X138995196Y-127689227D01*
X138998796Y-127713495D01*
X139000000Y-127737999D01*
X139000000Y-128638001D01*
X138998796Y-128662505D01*
X138995196Y-128686773D01*
X138989235Y-128710572D01*
X138980970Y-128733671D01*
X138970480Y-128755850D01*
X138957868Y-128776893D01*
X138943253Y-128796599D01*
X138926777Y-128814777D01*
X138908599Y-128831253D01*
X138888893Y-128845868D01*
X138867850Y-128858480D01*
X138845671Y-128868970D01*
X138822572Y-128877235D01*
X138798773Y-128883196D01*
X138774505Y-128886796D01*
X138750001Y-128888000D01*
X138099999Y-128888000D01*
X138075495Y-128886796D01*
X138051227Y-128883196D01*
X138027428Y-128877235D01*
X138004329Y-128868970D01*
X137982150Y-128858480D01*
X137961107Y-128845868D01*
X137941401Y-128831253D01*
X137923223Y-128814777D01*
X137906747Y-128796599D01*
X137892132Y-128776893D01*
X137879520Y-128755850D01*
X137869030Y-128733671D01*
X137860765Y-128710572D01*
X137854804Y-128686773D01*
X137851204Y-128662505D01*
X137850000Y-128638001D01*
X137850000Y-127737999D01*
X137851204Y-127713495D01*
X137854804Y-127689227D01*
X137860765Y-127665428D01*
X137869030Y-127642329D01*
X137879520Y-127620150D01*
X137892132Y-127599107D01*
X137906747Y-127579401D01*
X137923223Y-127561223D01*
X137941401Y-127544747D01*
X137961107Y-127530132D01*
X137982150Y-127517520D01*
X138004329Y-127507030D01*
X138027428Y-127498765D01*
X138051227Y-127492804D01*
X138075495Y-127489204D01*
X138099999Y-127488000D01*
X138750001Y-127488000D01*
X138774505Y-127489204D01*
X138774505Y-127489204D01*
G37*
D11*
G04 #@! TD*
G04 #@! TO.P,C2,1*
G04 #@! TO.N,Net-(C1-Pad1)*
X138425000Y-128188000D03*
D10*
G04 #@! TO.N,GND*
G04 #@! TO.C,C3*
G36*
X138166505Y-106191204D02*
X138190773Y-106194804D01*
X138214572Y-106200765D01*
X138237671Y-106209030D01*
X138259850Y-106219520D01*
X138280893Y-106232132D01*
X138300599Y-106246747D01*
X138318777Y-106263223D01*
X138335253Y-106281401D01*
X138349868Y-106301107D01*
X138362480Y-106322150D01*
X138372970Y-106344329D01*
X138381235Y-106367428D01*
X138387196Y-106391227D01*
X138390796Y-106415495D01*
X138392000Y-106439999D01*
X138392000Y-107090001D01*
X138390796Y-107114505D01*
X138387196Y-107138773D01*
X138381235Y-107162572D01*
X138372970Y-107185671D01*
X138362480Y-107207850D01*
X138349868Y-107228893D01*
X138335253Y-107248599D01*
X138318777Y-107266777D01*
X138300599Y-107283253D01*
X138280893Y-107297868D01*
X138259850Y-107310480D01*
X138237671Y-107320970D01*
X138214572Y-107329235D01*
X138190773Y-107335196D01*
X138166505Y-107338796D01*
X138142001Y-107340000D01*
X137241999Y-107340000D01*
X137217495Y-107338796D01*
X137193227Y-107335196D01*
X137169428Y-107329235D01*
X137146329Y-107320970D01*
X137124150Y-107310480D01*
X137103107Y-107297868D01*
X137083401Y-107283253D01*
X137065223Y-107266777D01*
X137048747Y-107248599D01*
X137034132Y-107228893D01*
X137021520Y-107207850D01*
X137011030Y-107185671D01*
X137002765Y-107162572D01*
X136996804Y-107138773D01*
X136993204Y-107114505D01*
X136992000Y-107090001D01*
X136992000Y-106439999D01*
X136993204Y-106415495D01*
X136996804Y-106391227D01*
X137002765Y-106367428D01*
X137011030Y-106344329D01*
X137021520Y-106322150D01*
X137034132Y-106301107D01*
X137048747Y-106281401D01*
X137065223Y-106263223D01*
X137083401Y-106246747D01*
X137103107Y-106232132D01*
X137124150Y-106219520D01*
X137146329Y-106209030D01*
X137169428Y-106200765D01*
X137193227Y-106194804D01*
X137217495Y-106191204D01*
X137241999Y-106190000D01*
X138142001Y-106190000D01*
X138166505Y-106191204D01*
X138166505Y-106191204D01*
G37*
D11*
G04 #@! TD*
G04 #@! TO.P,C3,2*
G04 #@! TO.N,GND*
X137692000Y-106765000D03*
D10*
G04 #@! TO.N,Net-(C3-Pad1)*
G04 #@! TO.C,C3*
G36*
X138166505Y-108241204D02*
X138190773Y-108244804D01*
X138214572Y-108250765D01*
X138237671Y-108259030D01*
X138259850Y-108269520D01*
X138280893Y-108282132D01*
X138300599Y-108296747D01*
X138318777Y-108313223D01*
X138335253Y-108331401D01*
X138349868Y-108351107D01*
X138362480Y-108372150D01*
X138372970Y-108394329D01*
X138381235Y-108417428D01*
X138387196Y-108441227D01*
X138390796Y-108465495D01*
X138392000Y-108489999D01*
X138392000Y-109140001D01*
X138390796Y-109164505D01*
X138387196Y-109188773D01*
X138381235Y-109212572D01*
X138372970Y-109235671D01*
X138362480Y-109257850D01*
X138349868Y-109278893D01*
X138335253Y-109298599D01*
X138318777Y-109316777D01*
X138300599Y-109333253D01*
X138280893Y-109347868D01*
X138259850Y-109360480D01*
X138237671Y-109370970D01*
X138214572Y-109379235D01*
X138190773Y-109385196D01*
X138166505Y-109388796D01*
X138142001Y-109390000D01*
X137241999Y-109390000D01*
X137217495Y-109388796D01*
X137193227Y-109385196D01*
X137169428Y-109379235D01*
X137146329Y-109370970D01*
X137124150Y-109360480D01*
X137103107Y-109347868D01*
X137083401Y-109333253D01*
X137065223Y-109316777D01*
X137048747Y-109298599D01*
X137034132Y-109278893D01*
X137021520Y-109257850D01*
X137011030Y-109235671D01*
X137002765Y-109212572D01*
X136996804Y-109188773D01*
X136993204Y-109164505D01*
X136992000Y-109140001D01*
X136992000Y-108489999D01*
X136993204Y-108465495D01*
X136996804Y-108441227D01*
X137002765Y-108417428D01*
X137011030Y-108394329D01*
X137021520Y-108372150D01*
X137034132Y-108351107D01*
X137048747Y-108331401D01*
X137065223Y-108313223D01*
X137083401Y-108296747D01*
X137103107Y-108282132D01*
X137124150Y-108269520D01*
X137146329Y-108259030D01*
X137169428Y-108250765D01*
X137193227Y-108244804D01*
X137217495Y-108241204D01*
X137241999Y-108240000D01*
X138142001Y-108240000D01*
X138166505Y-108241204D01*
X138166505Y-108241204D01*
G37*
D11*
G04 #@! TD*
G04 #@! TO.P,C3,1*
G04 #@! TO.N,Net-(C3-Pad1)*
X137692000Y-108815000D03*
D10*
G04 #@! TO.N,GND*
G04 #@! TO.C,C4*
G36*
X137380505Y-116511204D02*
X137404773Y-116514804D01*
X137428572Y-116520765D01*
X137451671Y-116529030D01*
X137473850Y-116539520D01*
X137494893Y-116552132D01*
X137514599Y-116566747D01*
X137532777Y-116583223D01*
X137549253Y-116601401D01*
X137563868Y-116621107D01*
X137576480Y-116642150D01*
X137586970Y-116664329D01*
X137595235Y-116687428D01*
X137601196Y-116711227D01*
X137604796Y-116735495D01*
X137606000Y-116759999D01*
X137606000Y-117410001D01*
X137604796Y-117434505D01*
X137601196Y-117458773D01*
X137595235Y-117482572D01*
X137586970Y-117505671D01*
X137576480Y-117527850D01*
X137563868Y-117548893D01*
X137549253Y-117568599D01*
X137532777Y-117586777D01*
X137514599Y-117603253D01*
X137494893Y-117617868D01*
X137473850Y-117630480D01*
X137451671Y-117640970D01*
X137428572Y-117649235D01*
X137404773Y-117655196D01*
X137380505Y-117658796D01*
X137356001Y-117660000D01*
X136455999Y-117660000D01*
X136431495Y-117658796D01*
X136407227Y-117655196D01*
X136383428Y-117649235D01*
X136360329Y-117640970D01*
X136338150Y-117630480D01*
X136317107Y-117617868D01*
X136297401Y-117603253D01*
X136279223Y-117586777D01*
X136262747Y-117568599D01*
X136248132Y-117548893D01*
X136235520Y-117527850D01*
X136225030Y-117505671D01*
X136216765Y-117482572D01*
X136210804Y-117458773D01*
X136207204Y-117434505D01*
X136206000Y-117410001D01*
X136206000Y-116759999D01*
X136207204Y-116735495D01*
X136210804Y-116711227D01*
X136216765Y-116687428D01*
X136225030Y-116664329D01*
X136235520Y-116642150D01*
X136248132Y-116621107D01*
X136262747Y-116601401D01*
X136279223Y-116583223D01*
X136297401Y-116566747D01*
X136317107Y-116552132D01*
X136338150Y-116539520D01*
X136360329Y-116529030D01*
X136383428Y-116520765D01*
X136407227Y-116514804D01*
X136431495Y-116511204D01*
X136455999Y-116510000D01*
X137356001Y-116510000D01*
X137380505Y-116511204D01*
X137380505Y-116511204D01*
G37*
D11*
G04 #@! TD*
G04 #@! TO.P,C4,2*
G04 #@! TO.N,GND*
X136906000Y-117085000D03*
D10*
G04 #@! TO.N,VDD*
G04 #@! TO.C,C4*
G36*
X137380505Y-118561204D02*
X137404773Y-118564804D01*
X137428572Y-118570765D01*
X137451671Y-118579030D01*
X137473850Y-118589520D01*
X137494893Y-118602132D01*
X137514599Y-118616747D01*
X137532777Y-118633223D01*
X137549253Y-118651401D01*
X137563868Y-118671107D01*
X137576480Y-118692150D01*
X137586970Y-118714329D01*
X137595235Y-118737428D01*
X137601196Y-118761227D01*
X137604796Y-118785495D01*
X137606000Y-118809999D01*
X137606000Y-119460001D01*
X137604796Y-119484505D01*
X137601196Y-119508773D01*
X137595235Y-119532572D01*
X137586970Y-119555671D01*
X137576480Y-119577850D01*
X137563868Y-119598893D01*
X137549253Y-119618599D01*
X137532777Y-119636777D01*
X137514599Y-119653253D01*
X137494893Y-119667868D01*
X137473850Y-119680480D01*
X137451671Y-119690970D01*
X137428572Y-119699235D01*
X137404773Y-119705196D01*
X137380505Y-119708796D01*
X137356001Y-119710000D01*
X136455999Y-119710000D01*
X136431495Y-119708796D01*
X136407227Y-119705196D01*
X136383428Y-119699235D01*
X136360329Y-119690970D01*
X136338150Y-119680480D01*
X136317107Y-119667868D01*
X136297401Y-119653253D01*
X136279223Y-119636777D01*
X136262747Y-119618599D01*
X136248132Y-119598893D01*
X136235520Y-119577850D01*
X136225030Y-119555671D01*
X136216765Y-119532572D01*
X136210804Y-119508773D01*
X136207204Y-119484505D01*
X136206000Y-119460001D01*
X136206000Y-118809999D01*
X136207204Y-118785495D01*
X136210804Y-118761227D01*
X136216765Y-118737428D01*
X136225030Y-118714329D01*
X136235520Y-118692150D01*
X136248132Y-118671107D01*
X136262747Y-118651401D01*
X136279223Y-118633223D01*
X136297401Y-118616747D01*
X136317107Y-118602132D01*
X136338150Y-118589520D01*
X136360329Y-118579030D01*
X136383428Y-118570765D01*
X136407227Y-118564804D01*
X136431495Y-118561204D01*
X136455999Y-118560000D01*
X137356001Y-118560000D01*
X137380505Y-118561204D01*
X137380505Y-118561204D01*
G37*
D11*
G04 #@! TD*
G04 #@! TO.P,C4,1*
G04 #@! TO.N,VDD*
X136906000Y-119135000D03*
D12*
G04 #@! TO.P,D1,2*
G04 #@! TO.N,Net-(D1-Pad2)*
X148687000Y-103405000D03*
G04 #@! TO.P,D1,1*
G04 #@! TO.N,Net-(D1-Pad1)*
X148687000Y-102155000D03*
G04 #@! TO.P,D1,3*
G04 #@! TO.N,Net-(D1-Pad3)*
X146837000Y-103405000D03*
G04 #@! TO.P,D1,4*
G04 #@! TO.N,VDD*
X146837000Y-102155000D03*
G04 #@! TD*
D10*
G04 #@! TO.N,Net-(D2-Pad2)*
G04 #@! TO.C,D2*
G36*
X135122505Y-107995204D02*
X135146773Y-107998804D01*
X135170572Y-108004765D01*
X135193671Y-108013030D01*
X135215850Y-108023520D01*
X135236893Y-108036132D01*
X135256599Y-108050747D01*
X135274777Y-108067223D01*
X135291253Y-108085401D01*
X135305868Y-108105107D01*
X135318480Y-108126150D01*
X135328970Y-108148329D01*
X135337235Y-108171428D01*
X135343196Y-108195227D01*
X135346796Y-108219495D01*
X135348000Y-108243999D01*
X135348000Y-108894001D01*
X135346796Y-108918505D01*
X135343196Y-108942773D01*
X135337235Y-108966572D01*
X135328970Y-108989671D01*
X135318480Y-109011850D01*
X135305868Y-109032893D01*
X135291253Y-109052599D01*
X135274777Y-109070777D01*
X135256599Y-109087253D01*
X135236893Y-109101868D01*
X135215850Y-109114480D01*
X135193671Y-109124970D01*
X135170572Y-109133235D01*
X135146773Y-109139196D01*
X135122505Y-109142796D01*
X135098001Y-109144000D01*
X134197999Y-109144000D01*
X134173495Y-109142796D01*
X134149227Y-109139196D01*
X134125428Y-109133235D01*
X134102329Y-109124970D01*
X134080150Y-109114480D01*
X134059107Y-109101868D01*
X134039401Y-109087253D01*
X134021223Y-109070777D01*
X134004747Y-109052599D01*
X133990132Y-109032893D01*
X133977520Y-109011850D01*
X133967030Y-108989671D01*
X133958765Y-108966572D01*
X133952804Y-108942773D01*
X133949204Y-108918505D01*
X133948000Y-108894001D01*
X133948000Y-108243999D01*
X133949204Y-108219495D01*
X133952804Y-108195227D01*
X133958765Y-108171428D01*
X133967030Y-108148329D01*
X133977520Y-108126150D01*
X133990132Y-108105107D01*
X134004747Y-108085401D01*
X134021223Y-108067223D01*
X134039401Y-108050747D01*
X134059107Y-108036132D01*
X134080150Y-108023520D01*
X134102329Y-108013030D01*
X134125428Y-108004765D01*
X134149227Y-107998804D01*
X134173495Y-107995204D01*
X134197999Y-107994000D01*
X135098001Y-107994000D01*
X135122505Y-107995204D01*
X135122505Y-107995204D01*
G37*
D11*
G04 #@! TD*
G04 #@! TO.P,D2,2*
G04 #@! TO.N,Net-(D2-Pad2)*
X134648000Y-108569000D03*
D10*
G04 #@! TO.N,GND*
G04 #@! TO.C,D2*
G36*
X135122505Y-110045204D02*
X135146773Y-110048804D01*
X135170572Y-110054765D01*
X135193671Y-110063030D01*
X135215850Y-110073520D01*
X135236893Y-110086132D01*
X135256599Y-110100747D01*
X135274777Y-110117223D01*
X135291253Y-110135401D01*
X135305868Y-110155107D01*
X135318480Y-110176150D01*
X135328970Y-110198329D01*
X135337235Y-110221428D01*
X135343196Y-110245227D01*
X135346796Y-110269495D01*
X135348000Y-110293999D01*
X135348000Y-110944001D01*
X135346796Y-110968505D01*
X135343196Y-110992773D01*
X135337235Y-111016572D01*
X135328970Y-111039671D01*
X135318480Y-111061850D01*
X135305868Y-111082893D01*
X135291253Y-111102599D01*
X135274777Y-111120777D01*
X135256599Y-111137253D01*
X135236893Y-111151868D01*
X135215850Y-111164480D01*
X135193671Y-111174970D01*
X135170572Y-111183235D01*
X135146773Y-111189196D01*
X135122505Y-111192796D01*
X135098001Y-111194000D01*
X134197999Y-111194000D01*
X134173495Y-111192796D01*
X134149227Y-111189196D01*
X134125428Y-111183235D01*
X134102329Y-111174970D01*
X134080150Y-111164480D01*
X134059107Y-111151868D01*
X134039401Y-111137253D01*
X134021223Y-111120777D01*
X134004747Y-111102599D01*
X133990132Y-111082893D01*
X133977520Y-111061850D01*
X133967030Y-111039671D01*
X133958765Y-111016572D01*
X133952804Y-110992773D01*
X133949204Y-110968505D01*
X133948000Y-110944001D01*
X133948000Y-110293999D01*
X133949204Y-110269495D01*
X133952804Y-110245227D01*
X133958765Y-110221428D01*
X133967030Y-110198329D01*
X133977520Y-110176150D01*
X133990132Y-110155107D01*
X134004747Y-110135401D01*
X134021223Y-110117223D01*
X134039401Y-110100747D01*
X134059107Y-110086132D01*
X134080150Y-110073520D01*
X134102329Y-110063030D01*
X134125428Y-110054765D01*
X134149227Y-110048804D01*
X134173495Y-110045204D01*
X134197999Y-110044000D01*
X135098001Y-110044000D01*
X135122505Y-110045204D01*
X135122505Y-110045204D01*
G37*
D11*
G04 #@! TD*
G04 #@! TO.P,D2,1*
G04 #@! TO.N,GND*
X134648000Y-110619000D03*
D13*
G04 #@! TO.P,J1,6*
G04 #@! TO.N,GND*
X132492000Y-125370000D03*
X132492000Y-131170000D03*
D14*
X132492000Y-131770000D03*
X132492000Y-124770000D03*
D15*
X132492000Y-127270000D03*
D16*
X135192000Y-130770000D03*
D17*
G04 #@! TO.P,J1,3*
G04 #@! TO.N,Net-(J1-Pad3)*
X135192000Y-128270000D03*
G04 #@! TO.P,J1,4*
G04 #@! TO.N,Net-(J1-Pad4)*
X135192000Y-128920000D03*
G04 #@! TO.P,J1,5*
G04 #@! TO.N,GND*
X135192000Y-129570000D03*
G04 #@! TO.P,J1,1*
G04 #@! TO.N,Net-(C1-Pad1)*
X135192000Y-126970000D03*
G04 #@! TO.P,J1,2*
G04 #@! TO.N,Net-(J1-Pad2)*
X135192000Y-127620000D03*
D16*
G04 #@! TO.P,J1,6*
G04 #@! TO.N,GND*
X135192000Y-125770000D03*
D15*
X132492000Y-129270000D03*
G04 #@! TD*
D18*
G04 #@! TO.P,J2,5*
G04 #@! TO.N,Net-(J2-Pad5)*
X142782000Y-104050000D03*
G04 #@! TO.P,J2,4*
G04 #@! TO.N,Net-(J2-Pad4)*
X140242000Y-104050000D03*
G04 #@! TO.P,J2,3*
G04 #@! TO.N,GND*
X137702000Y-104050000D03*
G04 #@! TO.P,J2,2*
G04 #@! TO.N,VDD*
X135162000Y-104050000D03*
D19*
G04 #@! TO.P,J2,1*
G04 #@! TO.N,Net-(C3-Pad1)*
X132622000Y-104050000D03*
G04 #@! TD*
D18*
G04 #@! TO.P,J3,4*
G04 #@! TO.N,GND*
X154212000Y-111540000D03*
G04 #@! TO.P,J3,3*
G04 #@! TO.N,Net-(J3-Pad3)*
X154212000Y-114080000D03*
G04 #@! TO.P,J3,2*
G04 #@! TO.N,Net-(J3-Pad2)*
X154212000Y-116620000D03*
D19*
G04 #@! TO.P,J3,1*
G04 #@! TO.N,VDD*
X154212000Y-119160000D03*
G04 #@! TD*
D10*
G04 #@! TO.N,Net-(R1-Pad2)*
G04 #@! TO.C,R1*
G36*
X141161505Y-125071204D02*
X141185773Y-125074804D01*
X141209572Y-125080765D01*
X141232671Y-125089030D01*
X141254850Y-125099520D01*
X141275893Y-125112132D01*
X141295599Y-125126747D01*
X141313777Y-125143223D01*
X141330253Y-125161401D01*
X141344868Y-125181107D01*
X141357480Y-125202150D01*
X141367970Y-125224329D01*
X141376235Y-125247428D01*
X141382196Y-125271227D01*
X141385796Y-125295495D01*
X141387000Y-125319999D01*
X141387000Y-126220001D01*
X141385796Y-126244505D01*
X141382196Y-126268773D01*
X141376235Y-126292572D01*
X141367970Y-126315671D01*
X141357480Y-126337850D01*
X141344868Y-126358893D01*
X141330253Y-126378599D01*
X141313777Y-126396777D01*
X141295599Y-126413253D01*
X141275893Y-126427868D01*
X141254850Y-126440480D01*
X141232671Y-126450970D01*
X141209572Y-126459235D01*
X141185773Y-126465196D01*
X141161505Y-126468796D01*
X141137001Y-126470000D01*
X140486999Y-126470000D01*
X140462495Y-126468796D01*
X140438227Y-126465196D01*
X140414428Y-126459235D01*
X140391329Y-126450970D01*
X140369150Y-126440480D01*
X140348107Y-126427868D01*
X140328401Y-126413253D01*
X140310223Y-126396777D01*
X140293747Y-126378599D01*
X140279132Y-126358893D01*
X140266520Y-126337850D01*
X140256030Y-126315671D01*
X140247765Y-126292572D01*
X140241804Y-126268773D01*
X140238204Y-126244505D01*
X140237000Y-126220001D01*
X140237000Y-125319999D01*
X140238204Y-125295495D01*
X140241804Y-125271227D01*
X140247765Y-125247428D01*
X140256030Y-125224329D01*
X140266520Y-125202150D01*
X140279132Y-125181107D01*
X140293747Y-125161401D01*
X140310223Y-125143223D01*
X140328401Y-125126747D01*
X140348107Y-125112132D01*
X140369150Y-125099520D01*
X140391329Y-125089030D01*
X140414428Y-125080765D01*
X140438227Y-125074804D01*
X140462495Y-125071204D01*
X140486999Y-125070000D01*
X141137001Y-125070000D01*
X141161505Y-125071204D01*
X141161505Y-125071204D01*
G37*
D11*
G04 #@! TD*
G04 #@! TO.P,R1,2*
G04 #@! TO.N,Net-(R1-Pad2)*
X140812000Y-125770000D03*
D10*
G04 #@! TO.N,VDD*
G04 #@! TO.C,R1*
G36*
X139111505Y-125071204D02*
X139135773Y-125074804D01*
X139159572Y-125080765D01*
X139182671Y-125089030D01*
X139204850Y-125099520D01*
X139225893Y-125112132D01*
X139245599Y-125126747D01*
X139263777Y-125143223D01*
X139280253Y-125161401D01*
X139294868Y-125181107D01*
X139307480Y-125202150D01*
X139317970Y-125224329D01*
X139326235Y-125247428D01*
X139332196Y-125271227D01*
X139335796Y-125295495D01*
X139337000Y-125319999D01*
X139337000Y-126220001D01*
X139335796Y-126244505D01*
X139332196Y-126268773D01*
X139326235Y-126292572D01*
X139317970Y-126315671D01*
X139307480Y-126337850D01*
X139294868Y-126358893D01*
X139280253Y-126378599D01*
X139263777Y-126396777D01*
X139245599Y-126413253D01*
X139225893Y-126427868D01*
X139204850Y-126440480D01*
X139182671Y-126450970D01*
X139159572Y-126459235D01*
X139135773Y-126465196D01*
X139111505Y-126468796D01*
X139087001Y-126470000D01*
X138436999Y-126470000D01*
X138412495Y-126468796D01*
X138388227Y-126465196D01*
X138364428Y-126459235D01*
X138341329Y-126450970D01*
X138319150Y-126440480D01*
X138298107Y-126427868D01*
X138278401Y-126413253D01*
X138260223Y-126396777D01*
X138243747Y-126378599D01*
X138229132Y-126358893D01*
X138216520Y-126337850D01*
X138206030Y-126315671D01*
X138197765Y-126292572D01*
X138191804Y-126268773D01*
X138188204Y-126244505D01*
X138187000Y-126220001D01*
X138187000Y-125319999D01*
X138188204Y-125295495D01*
X138191804Y-125271227D01*
X138197765Y-125247428D01*
X138206030Y-125224329D01*
X138216520Y-125202150D01*
X138229132Y-125181107D01*
X138243747Y-125161401D01*
X138260223Y-125143223D01*
X138278401Y-125126747D01*
X138298107Y-125112132D01*
X138319150Y-125099520D01*
X138341329Y-125089030D01*
X138364428Y-125080765D01*
X138388227Y-125074804D01*
X138412495Y-125071204D01*
X138436999Y-125070000D01*
X139087001Y-125070000D01*
X139111505Y-125071204D01*
X139111505Y-125071204D01*
G37*
D11*
G04 #@! TD*
G04 #@! TO.P,R1,1*
G04 #@! TO.N,VDD*
X138762000Y-125770000D03*
D10*
G04 #@! TO.N,Net-(R2-Pad2)*
G04 #@! TO.C,R2*
G36*
X158208505Y-120847204D02*
X158232773Y-120850804D01*
X158256572Y-120856765D01*
X158279671Y-120865030D01*
X158301850Y-120875520D01*
X158322893Y-120888132D01*
X158342599Y-120902747D01*
X158360777Y-120919223D01*
X158377253Y-120937401D01*
X158391868Y-120957107D01*
X158404480Y-120978150D01*
X158414970Y-121000329D01*
X158423235Y-121023428D01*
X158429196Y-121047227D01*
X158432796Y-121071495D01*
X158434000Y-121095999D01*
X158434000Y-121746001D01*
X158432796Y-121770505D01*
X158429196Y-121794773D01*
X158423235Y-121818572D01*
X158414970Y-121841671D01*
X158404480Y-121863850D01*
X158391868Y-121884893D01*
X158377253Y-121904599D01*
X158360777Y-121922777D01*
X158342599Y-121939253D01*
X158322893Y-121953868D01*
X158301850Y-121966480D01*
X158279671Y-121976970D01*
X158256572Y-121985235D01*
X158232773Y-121991196D01*
X158208505Y-121994796D01*
X158184001Y-121996000D01*
X157283999Y-121996000D01*
X157259495Y-121994796D01*
X157235227Y-121991196D01*
X157211428Y-121985235D01*
X157188329Y-121976970D01*
X157166150Y-121966480D01*
X157145107Y-121953868D01*
X157125401Y-121939253D01*
X157107223Y-121922777D01*
X157090747Y-121904599D01*
X157076132Y-121884893D01*
X157063520Y-121863850D01*
X157053030Y-121841671D01*
X157044765Y-121818572D01*
X157038804Y-121794773D01*
X157035204Y-121770505D01*
X157034000Y-121746001D01*
X157034000Y-121095999D01*
X157035204Y-121071495D01*
X157038804Y-121047227D01*
X157044765Y-121023428D01*
X157053030Y-121000329D01*
X157063520Y-120978150D01*
X157076132Y-120957107D01*
X157090747Y-120937401D01*
X157107223Y-120919223D01*
X157125401Y-120902747D01*
X157145107Y-120888132D01*
X157166150Y-120875520D01*
X157188329Y-120865030D01*
X157211428Y-120856765D01*
X157235227Y-120850804D01*
X157259495Y-120847204D01*
X157283999Y-120846000D01*
X158184001Y-120846000D01*
X158208505Y-120847204D01*
X158208505Y-120847204D01*
G37*
D11*
G04 #@! TD*
G04 #@! TO.P,R2,2*
G04 #@! TO.N,Net-(R2-Pad2)*
X157734000Y-121421000D03*
D10*
G04 #@! TO.N,VDD*
G04 #@! TO.C,R2*
G36*
X158208505Y-118797204D02*
X158232773Y-118800804D01*
X158256572Y-118806765D01*
X158279671Y-118815030D01*
X158301850Y-118825520D01*
X158322893Y-118838132D01*
X158342599Y-118852747D01*
X158360777Y-118869223D01*
X158377253Y-118887401D01*
X158391868Y-118907107D01*
X158404480Y-118928150D01*
X158414970Y-118950329D01*
X158423235Y-118973428D01*
X158429196Y-118997227D01*
X158432796Y-119021495D01*
X158434000Y-119045999D01*
X158434000Y-119696001D01*
X158432796Y-119720505D01*
X158429196Y-119744773D01*
X158423235Y-119768572D01*
X158414970Y-119791671D01*
X158404480Y-119813850D01*
X158391868Y-119834893D01*
X158377253Y-119854599D01*
X158360777Y-119872777D01*
X158342599Y-119889253D01*
X158322893Y-119903868D01*
X158301850Y-119916480D01*
X158279671Y-119926970D01*
X158256572Y-119935235D01*
X158232773Y-119941196D01*
X158208505Y-119944796D01*
X158184001Y-119946000D01*
X157283999Y-119946000D01*
X157259495Y-119944796D01*
X157235227Y-119941196D01*
X157211428Y-119935235D01*
X157188329Y-119926970D01*
X157166150Y-119916480D01*
X157145107Y-119903868D01*
X157125401Y-119889253D01*
X157107223Y-119872777D01*
X157090747Y-119854599D01*
X157076132Y-119834893D01*
X157063520Y-119813850D01*
X157053030Y-119791671D01*
X157044765Y-119768572D01*
X157038804Y-119744773D01*
X157035204Y-119720505D01*
X157034000Y-119696001D01*
X157034000Y-119045999D01*
X157035204Y-119021495D01*
X157038804Y-118997227D01*
X157044765Y-118973428D01*
X157053030Y-118950329D01*
X157063520Y-118928150D01*
X157076132Y-118907107D01*
X157090747Y-118887401D01*
X157107223Y-118869223D01*
X157125401Y-118852747D01*
X157145107Y-118838132D01*
X157166150Y-118825520D01*
X157188329Y-118815030D01*
X157211428Y-118806765D01*
X157235227Y-118800804D01*
X157259495Y-118797204D01*
X157283999Y-118796000D01*
X158184001Y-118796000D01*
X158208505Y-118797204D01*
X158208505Y-118797204D01*
G37*
D11*
G04 #@! TD*
G04 #@! TO.P,R2,1*
G04 #@! TO.N,VDD*
X157734000Y-119371000D03*
D10*
G04 #@! TO.N,GND*
G04 #@! TO.C,R3*
G36*
X138262505Y-100647204D02*
X138286773Y-100650804D01*
X138310572Y-100656765D01*
X138333671Y-100665030D01*
X138355850Y-100675520D01*
X138376893Y-100688132D01*
X138396599Y-100702747D01*
X138414777Y-100719223D01*
X138431253Y-100737401D01*
X138445868Y-100757107D01*
X138458480Y-100778150D01*
X138468970Y-100800329D01*
X138477235Y-100823428D01*
X138483196Y-100847227D01*
X138486796Y-100871495D01*
X138488000Y-100895999D01*
X138488000Y-101796001D01*
X138486796Y-101820505D01*
X138483196Y-101844773D01*
X138477235Y-101868572D01*
X138468970Y-101891671D01*
X138458480Y-101913850D01*
X138445868Y-101934893D01*
X138431253Y-101954599D01*
X138414777Y-101972777D01*
X138396599Y-101989253D01*
X138376893Y-102003868D01*
X138355850Y-102016480D01*
X138333671Y-102026970D01*
X138310572Y-102035235D01*
X138286773Y-102041196D01*
X138262505Y-102044796D01*
X138238001Y-102046000D01*
X137587999Y-102046000D01*
X137563495Y-102044796D01*
X137539227Y-102041196D01*
X137515428Y-102035235D01*
X137492329Y-102026970D01*
X137470150Y-102016480D01*
X137449107Y-102003868D01*
X137429401Y-101989253D01*
X137411223Y-101972777D01*
X137394747Y-101954599D01*
X137380132Y-101934893D01*
X137367520Y-101913850D01*
X137357030Y-101891671D01*
X137348765Y-101868572D01*
X137342804Y-101844773D01*
X137339204Y-101820505D01*
X137338000Y-101796001D01*
X137338000Y-100895999D01*
X137339204Y-100871495D01*
X137342804Y-100847227D01*
X137348765Y-100823428D01*
X137357030Y-100800329D01*
X137367520Y-100778150D01*
X137380132Y-100757107D01*
X137394747Y-100737401D01*
X137411223Y-100719223D01*
X137429401Y-100702747D01*
X137449107Y-100688132D01*
X137470150Y-100675520D01*
X137492329Y-100665030D01*
X137515428Y-100656765D01*
X137539227Y-100650804D01*
X137563495Y-100647204D01*
X137587999Y-100646000D01*
X138238001Y-100646000D01*
X138262505Y-100647204D01*
X138262505Y-100647204D01*
G37*
D11*
G04 #@! TD*
G04 #@! TO.P,R3,2*
G04 #@! TO.N,GND*
X137913000Y-101346000D03*
D10*
G04 #@! TO.N,Net-(J2-Pad5)*
G04 #@! TO.C,R3*
G36*
X140312505Y-100647204D02*
X140336773Y-100650804D01*
X140360572Y-100656765D01*
X140383671Y-100665030D01*
X140405850Y-100675520D01*
X140426893Y-100688132D01*
X140446599Y-100702747D01*
X140464777Y-100719223D01*
X140481253Y-100737401D01*
X140495868Y-100757107D01*
X140508480Y-100778150D01*
X140518970Y-100800329D01*
X140527235Y-100823428D01*
X140533196Y-100847227D01*
X140536796Y-100871495D01*
X140538000Y-100895999D01*
X140538000Y-101796001D01*
X140536796Y-101820505D01*
X140533196Y-101844773D01*
X140527235Y-101868572D01*
X140518970Y-101891671D01*
X140508480Y-101913850D01*
X140495868Y-101934893D01*
X140481253Y-101954599D01*
X140464777Y-101972777D01*
X140446599Y-101989253D01*
X140426893Y-102003868D01*
X140405850Y-102016480D01*
X140383671Y-102026970D01*
X140360572Y-102035235D01*
X140336773Y-102041196D01*
X140312505Y-102044796D01*
X140288001Y-102046000D01*
X139637999Y-102046000D01*
X139613495Y-102044796D01*
X139589227Y-102041196D01*
X139565428Y-102035235D01*
X139542329Y-102026970D01*
X139520150Y-102016480D01*
X139499107Y-102003868D01*
X139479401Y-101989253D01*
X139461223Y-101972777D01*
X139444747Y-101954599D01*
X139430132Y-101934893D01*
X139417520Y-101913850D01*
X139407030Y-101891671D01*
X139398765Y-101868572D01*
X139392804Y-101844773D01*
X139389204Y-101820505D01*
X139388000Y-101796001D01*
X139388000Y-100895999D01*
X139389204Y-100871495D01*
X139392804Y-100847227D01*
X139398765Y-100823428D01*
X139407030Y-100800329D01*
X139417520Y-100778150D01*
X139430132Y-100757107D01*
X139444747Y-100737401D01*
X139461223Y-100719223D01*
X139479401Y-100702747D01*
X139499107Y-100688132D01*
X139520150Y-100675520D01*
X139542329Y-100665030D01*
X139565428Y-100656765D01*
X139589227Y-100650804D01*
X139613495Y-100647204D01*
X139637999Y-100646000D01*
X140288001Y-100646000D01*
X140312505Y-100647204D01*
X140312505Y-100647204D01*
G37*
D11*
G04 #@! TD*
G04 #@! TO.P,R3,1*
G04 #@! TO.N,Net-(J2-Pad5)*
X139963000Y-101346000D03*
D10*
G04 #@! TO.N,Net-(C3-Pad1)*
G04 #@! TO.C,R4*
G36*
X133182505Y-100647204D02*
X133206773Y-100650804D01*
X133230572Y-100656765D01*
X133253671Y-100665030D01*
X133275850Y-100675520D01*
X133296893Y-100688132D01*
X133316599Y-100702747D01*
X133334777Y-100719223D01*
X133351253Y-100737401D01*
X133365868Y-100757107D01*
X133378480Y-100778150D01*
X133388970Y-100800329D01*
X133397235Y-100823428D01*
X133403196Y-100847227D01*
X133406796Y-100871495D01*
X133408000Y-100895999D01*
X133408000Y-101796001D01*
X133406796Y-101820505D01*
X133403196Y-101844773D01*
X133397235Y-101868572D01*
X133388970Y-101891671D01*
X133378480Y-101913850D01*
X133365868Y-101934893D01*
X133351253Y-101954599D01*
X133334777Y-101972777D01*
X133316599Y-101989253D01*
X133296893Y-102003868D01*
X133275850Y-102016480D01*
X133253671Y-102026970D01*
X133230572Y-102035235D01*
X133206773Y-102041196D01*
X133182505Y-102044796D01*
X133158001Y-102046000D01*
X132507999Y-102046000D01*
X132483495Y-102044796D01*
X132459227Y-102041196D01*
X132435428Y-102035235D01*
X132412329Y-102026970D01*
X132390150Y-102016480D01*
X132369107Y-102003868D01*
X132349401Y-101989253D01*
X132331223Y-101972777D01*
X132314747Y-101954599D01*
X132300132Y-101934893D01*
X132287520Y-101913850D01*
X132277030Y-101891671D01*
X132268765Y-101868572D01*
X132262804Y-101844773D01*
X132259204Y-101820505D01*
X132258000Y-101796001D01*
X132258000Y-100895999D01*
X132259204Y-100871495D01*
X132262804Y-100847227D01*
X132268765Y-100823428D01*
X132277030Y-100800329D01*
X132287520Y-100778150D01*
X132300132Y-100757107D01*
X132314747Y-100737401D01*
X132331223Y-100719223D01*
X132349401Y-100702747D01*
X132369107Y-100688132D01*
X132390150Y-100675520D01*
X132412329Y-100665030D01*
X132435428Y-100656765D01*
X132459227Y-100650804D01*
X132483495Y-100647204D01*
X132507999Y-100646000D01*
X133158001Y-100646000D01*
X133182505Y-100647204D01*
X133182505Y-100647204D01*
G37*
D11*
G04 #@! TD*
G04 #@! TO.P,R4,2*
G04 #@! TO.N,Net-(C3-Pad1)*
X132833000Y-101346000D03*
D10*
G04 #@! TO.N,VDD*
G04 #@! TO.C,R4*
G36*
X135232505Y-100647204D02*
X135256773Y-100650804D01*
X135280572Y-100656765D01*
X135303671Y-100665030D01*
X135325850Y-100675520D01*
X135346893Y-100688132D01*
X135366599Y-100702747D01*
X135384777Y-100719223D01*
X135401253Y-100737401D01*
X135415868Y-100757107D01*
X135428480Y-100778150D01*
X135438970Y-100800329D01*
X135447235Y-100823428D01*
X135453196Y-100847227D01*
X135456796Y-100871495D01*
X135458000Y-100895999D01*
X135458000Y-101796001D01*
X135456796Y-101820505D01*
X135453196Y-101844773D01*
X135447235Y-101868572D01*
X135438970Y-101891671D01*
X135428480Y-101913850D01*
X135415868Y-101934893D01*
X135401253Y-101954599D01*
X135384777Y-101972777D01*
X135366599Y-101989253D01*
X135346893Y-102003868D01*
X135325850Y-102016480D01*
X135303671Y-102026970D01*
X135280572Y-102035235D01*
X135256773Y-102041196D01*
X135232505Y-102044796D01*
X135208001Y-102046000D01*
X134557999Y-102046000D01*
X134533495Y-102044796D01*
X134509227Y-102041196D01*
X134485428Y-102035235D01*
X134462329Y-102026970D01*
X134440150Y-102016480D01*
X134419107Y-102003868D01*
X134399401Y-101989253D01*
X134381223Y-101972777D01*
X134364747Y-101954599D01*
X134350132Y-101934893D01*
X134337520Y-101913850D01*
X134327030Y-101891671D01*
X134318765Y-101868572D01*
X134312804Y-101844773D01*
X134309204Y-101820505D01*
X134308000Y-101796001D01*
X134308000Y-100895999D01*
X134309204Y-100871495D01*
X134312804Y-100847227D01*
X134318765Y-100823428D01*
X134327030Y-100800329D01*
X134337520Y-100778150D01*
X134350132Y-100757107D01*
X134364747Y-100737401D01*
X134381223Y-100719223D01*
X134399401Y-100702747D01*
X134419107Y-100688132D01*
X134440150Y-100675520D01*
X134462329Y-100665030D01*
X134485428Y-100656765D01*
X134509227Y-100650804D01*
X134533495Y-100647204D01*
X134557999Y-100646000D01*
X135208001Y-100646000D01*
X135232505Y-100647204D01*
X135232505Y-100647204D01*
G37*
D11*
G04 #@! TD*
G04 #@! TO.P,R4,1*
G04 #@! TO.N,VDD*
X134883000Y-101346000D03*
D10*
G04 #@! TO.N,Net-(R5-Pad2)*
G04 #@! TO.C,R5*
G36*
X154760505Y-123391204D02*
X154784773Y-123394804D01*
X154808572Y-123400765D01*
X154831671Y-123409030D01*
X154853850Y-123419520D01*
X154874893Y-123432132D01*
X154894599Y-123446747D01*
X154912777Y-123463223D01*
X154929253Y-123481401D01*
X154943868Y-123501107D01*
X154956480Y-123522150D01*
X154966970Y-123544329D01*
X154975235Y-123567428D01*
X154981196Y-123591227D01*
X154984796Y-123615495D01*
X154986000Y-123639999D01*
X154986000Y-124290001D01*
X154984796Y-124314505D01*
X154981196Y-124338773D01*
X154975235Y-124362572D01*
X154966970Y-124385671D01*
X154956480Y-124407850D01*
X154943868Y-124428893D01*
X154929253Y-124448599D01*
X154912777Y-124466777D01*
X154894599Y-124483253D01*
X154874893Y-124497868D01*
X154853850Y-124510480D01*
X154831671Y-124520970D01*
X154808572Y-124529235D01*
X154784773Y-124535196D01*
X154760505Y-124538796D01*
X154736001Y-124540000D01*
X153835999Y-124540000D01*
X153811495Y-124538796D01*
X153787227Y-124535196D01*
X153763428Y-124529235D01*
X153740329Y-124520970D01*
X153718150Y-124510480D01*
X153697107Y-124497868D01*
X153677401Y-124483253D01*
X153659223Y-124466777D01*
X153642747Y-124448599D01*
X153628132Y-124428893D01*
X153615520Y-124407850D01*
X153605030Y-124385671D01*
X153596765Y-124362572D01*
X153590804Y-124338773D01*
X153587204Y-124314505D01*
X153586000Y-124290001D01*
X153586000Y-123639999D01*
X153587204Y-123615495D01*
X153590804Y-123591227D01*
X153596765Y-123567428D01*
X153605030Y-123544329D01*
X153615520Y-123522150D01*
X153628132Y-123501107D01*
X153642747Y-123481401D01*
X153659223Y-123463223D01*
X153677401Y-123446747D01*
X153697107Y-123432132D01*
X153718150Y-123419520D01*
X153740329Y-123409030D01*
X153763428Y-123400765D01*
X153787227Y-123394804D01*
X153811495Y-123391204D01*
X153835999Y-123390000D01*
X154736001Y-123390000D01*
X154760505Y-123391204D01*
X154760505Y-123391204D01*
G37*
D11*
G04 #@! TD*
G04 #@! TO.P,R5,2*
G04 #@! TO.N,Net-(R5-Pad2)*
X154286000Y-123965000D03*
D10*
G04 #@! TO.N,VDD*
G04 #@! TO.C,R5*
G36*
X154760505Y-121341204D02*
X154784773Y-121344804D01*
X154808572Y-121350765D01*
X154831671Y-121359030D01*
X154853850Y-121369520D01*
X154874893Y-121382132D01*
X154894599Y-121396747D01*
X154912777Y-121413223D01*
X154929253Y-121431401D01*
X154943868Y-121451107D01*
X154956480Y-121472150D01*
X154966970Y-121494329D01*
X154975235Y-121517428D01*
X154981196Y-121541227D01*
X154984796Y-121565495D01*
X154986000Y-121589999D01*
X154986000Y-122240001D01*
X154984796Y-122264505D01*
X154981196Y-122288773D01*
X154975235Y-122312572D01*
X154966970Y-122335671D01*
X154956480Y-122357850D01*
X154943868Y-122378893D01*
X154929253Y-122398599D01*
X154912777Y-122416777D01*
X154894599Y-122433253D01*
X154874893Y-122447868D01*
X154853850Y-122460480D01*
X154831671Y-122470970D01*
X154808572Y-122479235D01*
X154784773Y-122485196D01*
X154760505Y-122488796D01*
X154736001Y-122490000D01*
X153835999Y-122490000D01*
X153811495Y-122488796D01*
X153787227Y-122485196D01*
X153763428Y-122479235D01*
X153740329Y-122470970D01*
X153718150Y-122460480D01*
X153697107Y-122447868D01*
X153677401Y-122433253D01*
X153659223Y-122416777D01*
X153642747Y-122398599D01*
X153628132Y-122378893D01*
X153615520Y-122357850D01*
X153605030Y-122335671D01*
X153596765Y-122312572D01*
X153590804Y-122288773D01*
X153587204Y-122264505D01*
X153586000Y-122240001D01*
X153586000Y-121589999D01*
X153587204Y-121565495D01*
X153590804Y-121541227D01*
X153596765Y-121517428D01*
X153605030Y-121494329D01*
X153615520Y-121472150D01*
X153628132Y-121451107D01*
X153642747Y-121431401D01*
X153659223Y-121413223D01*
X153677401Y-121396747D01*
X153697107Y-121382132D01*
X153718150Y-121369520D01*
X153740329Y-121359030D01*
X153763428Y-121350765D01*
X153787227Y-121344804D01*
X153811495Y-121341204D01*
X153835999Y-121340000D01*
X154736001Y-121340000D01*
X154760505Y-121341204D01*
X154760505Y-121341204D01*
G37*
D11*
G04 #@! TD*
G04 #@! TO.P,R5,1*
G04 #@! TO.N,VDD*
X154286000Y-121915000D03*
D10*
G04 #@! TO.N,GND*
G04 #@! TO.C,R6*
G36*
X140786505Y-108231204D02*
X140810773Y-108234804D01*
X140834572Y-108240765D01*
X140857671Y-108249030D01*
X140879850Y-108259520D01*
X140900893Y-108272132D01*
X140920599Y-108286747D01*
X140938777Y-108303223D01*
X140955253Y-108321401D01*
X140969868Y-108341107D01*
X140982480Y-108362150D01*
X140992970Y-108384329D01*
X141001235Y-108407428D01*
X141007196Y-108431227D01*
X141010796Y-108455495D01*
X141012000Y-108479999D01*
X141012000Y-109130001D01*
X141010796Y-109154505D01*
X141007196Y-109178773D01*
X141001235Y-109202572D01*
X140992970Y-109225671D01*
X140982480Y-109247850D01*
X140969868Y-109268893D01*
X140955253Y-109288599D01*
X140938777Y-109306777D01*
X140920599Y-109323253D01*
X140900893Y-109337868D01*
X140879850Y-109350480D01*
X140857671Y-109360970D01*
X140834572Y-109369235D01*
X140810773Y-109375196D01*
X140786505Y-109378796D01*
X140762001Y-109380000D01*
X139861999Y-109380000D01*
X139837495Y-109378796D01*
X139813227Y-109375196D01*
X139789428Y-109369235D01*
X139766329Y-109360970D01*
X139744150Y-109350480D01*
X139723107Y-109337868D01*
X139703401Y-109323253D01*
X139685223Y-109306777D01*
X139668747Y-109288599D01*
X139654132Y-109268893D01*
X139641520Y-109247850D01*
X139631030Y-109225671D01*
X139622765Y-109202572D01*
X139616804Y-109178773D01*
X139613204Y-109154505D01*
X139612000Y-109130001D01*
X139612000Y-108479999D01*
X139613204Y-108455495D01*
X139616804Y-108431227D01*
X139622765Y-108407428D01*
X139631030Y-108384329D01*
X139641520Y-108362150D01*
X139654132Y-108341107D01*
X139668747Y-108321401D01*
X139685223Y-108303223D01*
X139703401Y-108286747D01*
X139723107Y-108272132D01*
X139744150Y-108259520D01*
X139766329Y-108249030D01*
X139789428Y-108240765D01*
X139813227Y-108234804D01*
X139837495Y-108231204D01*
X139861999Y-108230000D01*
X140762001Y-108230000D01*
X140786505Y-108231204D01*
X140786505Y-108231204D01*
G37*
D11*
G04 #@! TD*
G04 #@! TO.P,R6,2*
G04 #@! TO.N,GND*
X140312000Y-108805000D03*
D10*
G04 #@! TO.N,Net-(J2-Pad4)*
G04 #@! TO.C,R6*
G36*
X140786505Y-106181204D02*
X140810773Y-106184804D01*
X140834572Y-106190765D01*
X140857671Y-106199030D01*
X140879850Y-106209520D01*
X140900893Y-106222132D01*
X140920599Y-106236747D01*
X140938777Y-106253223D01*
X140955253Y-106271401D01*
X140969868Y-106291107D01*
X140982480Y-106312150D01*
X140992970Y-106334329D01*
X141001235Y-106357428D01*
X141007196Y-106381227D01*
X141010796Y-106405495D01*
X141012000Y-106429999D01*
X141012000Y-107080001D01*
X141010796Y-107104505D01*
X141007196Y-107128773D01*
X141001235Y-107152572D01*
X140992970Y-107175671D01*
X140982480Y-107197850D01*
X140969868Y-107218893D01*
X140955253Y-107238599D01*
X140938777Y-107256777D01*
X140920599Y-107273253D01*
X140900893Y-107287868D01*
X140879850Y-107300480D01*
X140857671Y-107310970D01*
X140834572Y-107319235D01*
X140810773Y-107325196D01*
X140786505Y-107328796D01*
X140762001Y-107330000D01*
X139861999Y-107330000D01*
X139837495Y-107328796D01*
X139813227Y-107325196D01*
X139789428Y-107319235D01*
X139766329Y-107310970D01*
X139744150Y-107300480D01*
X139723107Y-107287868D01*
X139703401Y-107273253D01*
X139685223Y-107256777D01*
X139668747Y-107238599D01*
X139654132Y-107218893D01*
X139641520Y-107197850D01*
X139631030Y-107175671D01*
X139622765Y-107152572D01*
X139616804Y-107128773D01*
X139613204Y-107104505D01*
X139612000Y-107080001D01*
X139612000Y-106429999D01*
X139613204Y-106405495D01*
X139616804Y-106381227D01*
X139622765Y-106357428D01*
X139631030Y-106334329D01*
X139641520Y-106312150D01*
X139654132Y-106291107D01*
X139668747Y-106271401D01*
X139685223Y-106253223D01*
X139703401Y-106236747D01*
X139723107Y-106222132D01*
X139744150Y-106209520D01*
X139766329Y-106199030D01*
X139789428Y-106190765D01*
X139813227Y-106184804D01*
X139837495Y-106181204D01*
X139861999Y-106180000D01*
X140762001Y-106180000D01*
X140786505Y-106181204D01*
X140786505Y-106181204D01*
G37*
D11*
G04 #@! TD*
G04 #@! TO.P,R6,1*
G04 #@! TO.N,Net-(J2-Pad4)*
X140312000Y-106755000D03*
D10*
G04 #@! TO.N,Net-(D1-Pad1)*
G04 #@! TO.C,R7*
G36*
X151166505Y-105771204D02*
X151190773Y-105774804D01*
X151214572Y-105780765D01*
X151237671Y-105789030D01*
X151259850Y-105799520D01*
X151280893Y-105812132D01*
X151300599Y-105826747D01*
X151318777Y-105843223D01*
X151335253Y-105861401D01*
X151349868Y-105881107D01*
X151362480Y-105902150D01*
X151372970Y-105924329D01*
X151381235Y-105947428D01*
X151387196Y-105971227D01*
X151390796Y-105995495D01*
X151392000Y-106019999D01*
X151392000Y-106670001D01*
X151390796Y-106694505D01*
X151387196Y-106718773D01*
X151381235Y-106742572D01*
X151372970Y-106765671D01*
X151362480Y-106787850D01*
X151349868Y-106808893D01*
X151335253Y-106828599D01*
X151318777Y-106846777D01*
X151300599Y-106863253D01*
X151280893Y-106877868D01*
X151259850Y-106890480D01*
X151237671Y-106900970D01*
X151214572Y-106909235D01*
X151190773Y-106915196D01*
X151166505Y-106918796D01*
X151142001Y-106920000D01*
X150241999Y-106920000D01*
X150217495Y-106918796D01*
X150193227Y-106915196D01*
X150169428Y-106909235D01*
X150146329Y-106900970D01*
X150124150Y-106890480D01*
X150103107Y-106877868D01*
X150083401Y-106863253D01*
X150065223Y-106846777D01*
X150048747Y-106828599D01*
X150034132Y-106808893D01*
X150021520Y-106787850D01*
X150011030Y-106765671D01*
X150002765Y-106742572D01*
X149996804Y-106718773D01*
X149993204Y-106694505D01*
X149992000Y-106670001D01*
X149992000Y-106019999D01*
X149993204Y-105995495D01*
X149996804Y-105971227D01*
X150002765Y-105947428D01*
X150011030Y-105924329D01*
X150021520Y-105902150D01*
X150034132Y-105881107D01*
X150048747Y-105861401D01*
X150065223Y-105843223D01*
X150083401Y-105826747D01*
X150103107Y-105812132D01*
X150124150Y-105799520D01*
X150146329Y-105789030D01*
X150169428Y-105780765D01*
X150193227Y-105774804D01*
X150217495Y-105771204D01*
X150241999Y-105770000D01*
X151142001Y-105770000D01*
X151166505Y-105771204D01*
X151166505Y-105771204D01*
G37*
D11*
G04 #@! TD*
G04 #@! TO.P,R7,2*
G04 #@! TO.N,Net-(D1-Pad1)*
X150692000Y-106345000D03*
D10*
G04 #@! TO.N,Net-(R7-Pad1)*
G04 #@! TO.C,R7*
G36*
X151166505Y-107821204D02*
X151190773Y-107824804D01*
X151214572Y-107830765D01*
X151237671Y-107839030D01*
X151259850Y-107849520D01*
X151280893Y-107862132D01*
X151300599Y-107876747D01*
X151318777Y-107893223D01*
X151335253Y-107911401D01*
X151349868Y-107931107D01*
X151362480Y-107952150D01*
X151372970Y-107974329D01*
X151381235Y-107997428D01*
X151387196Y-108021227D01*
X151390796Y-108045495D01*
X151392000Y-108069999D01*
X151392000Y-108720001D01*
X151390796Y-108744505D01*
X151387196Y-108768773D01*
X151381235Y-108792572D01*
X151372970Y-108815671D01*
X151362480Y-108837850D01*
X151349868Y-108858893D01*
X151335253Y-108878599D01*
X151318777Y-108896777D01*
X151300599Y-108913253D01*
X151280893Y-108927868D01*
X151259850Y-108940480D01*
X151237671Y-108950970D01*
X151214572Y-108959235D01*
X151190773Y-108965196D01*
X151166505Y-108968796D01*
X151142001Y-108970000D01*
X150241999Y-108970000D01*
X150217495Y-108968796D01*
X150193227Y-108965196D01*
X150169428Y-108959235D01*
X150146329Y-108950970D01*
X150124150Y-108940480D01*
X150103107Y-108927868D01*
X150083401Y-108913253D01*
X150065223Y-108896777D01*
X150048747Y-108878599D01*
X150034132Y-108858893D01*
X150021520Y-108837850D01*
X150011030Y-108815671D01*
X150002765Y-108792572D01*
X149996804Y-108768773D01*
X149993204Y-108744505D01*
X149992000Y-108720001D01*
X149992000Y-108069999D01*
X149993204Y-108045495D01*
X149996804Y-108021227D01*
X150002765Y-107997428D01*
X150011030Y-107974329D01*
X150021520Y-107952150D01*
X150034132Y-107931107D01*
X150048747Y-107911401D01*
X150065223Y-107893223D01*
X150083401Y-107876747D01*
X150103107Y-107862132D01*
X150124150Y-107849520D01*
X150146329Y-107839030D01*
X150169428Y-107830765D01*
X150193227Y-107824804D01*
X150217495Y-107821204D01*
X150241999Y-107820000D01*
X151142001Y-107820000D01*
X151166505Y-107821204D01*
X151166505Y-107821204D01*
G37*
D11*
G04 #@! TD*
G04 #@! TO.P,R7,1*
G04 #@! TO.N,Net-(R7-Pad1)*
X150692000Y-108395000D03*
D10*
G04 #@! TO.N,Net-(D1-Pad2)*
G04 #@! TO.C,R8*
G36*
X148846505Y-105761204D02*
X148870773Y-105764804D01*
X148894572Y-105770765D01*
X148917671Y-105779030D01*
X148939850Y-105789520D01*
X148960893Y-105802132D01*
X148980599Y-105816747D01*
X148998777Y-105833223D01*
X149015253Y-105851401D01*
X149029868Y-105871107D01*
X149042480Y-105892150D01*
X149052970Y-105914329D01*
X149061235Y-105937428D01*
X149067196Y-105961227D01*
X149070796Y-105985495D01*
X149072000Y-106009999D01*
X149072000Y-106660001D01*
X149070796Y-106684505D01*
X149067196Y-106708773D01*
X149061235Y-106732572D01*
X149052970Y-106755671D01*
X149042480Y-106777850D01*
X149029868Y-106798893D01*
X149015253Y-106818599D01*
X148998777Y-106836777D01*
X148980599Y-106853253D01*
X148960893Y-106867868D01*
X148939850Y-106880480D01*
X148917671Y-106890970D01*
X148894572Y-106899235D01*
X148870773Y-106905196D01*
X148846505Y-106908796D01*
X148822001Y-106910000D01*
X147921999Y-106910000D01*
X147897495Y-106908796D01*
X147873227Y-106905196D01*
X147849428Y-106899235D01*
X147826329Y-106890970D01*
X147804150Y-106880480D01*
X147783107Y-106867868D01*
X147763401Y-106853253D01*
X147745223Y-106836777D01*
X147728747Y-106818599D01*
X147714132Y-106798893D01*
X147701520Y-106777850D01*
X147691030Y-106755671D01*
X147682765Y-106732572D01*
X147676804Y-106708773D01*
X147673204Y-106684505D01*
X147672000Y-106660001D01*
X147672000Y-106009999D01*
X147673204Y-105985495D01*
X147676804Y-105961227D01*
X147682765Y-105937428D01*
X147691030Y-105914329D01*
X147701520Y-105892150D01*
X147714132Y-105871107D01*
X147728747Y-105851401D01*
X147745223Y-105833223D01*
X147763401Y-105816747D01*
X147783107Y-105802132D01*
X147804150Y-105789520D01*
X147826329Y-105779030D01*
X147849428Y-105770765D01*
X147873227Y-105764804D01*
X147897495Y-105761204D01*
X147921999Y-105760000D01*
X148822001Y-105760000D01*
X148846505Y-105761204D01*
X148846505Y-105761204D01*
G37*
D11*
G04 #@! TD*
G04 #@! TO.P,R8,2*
G04 #@! TO.N,Net-(D1-Pad2)*
X148372000Y-106335000D03*
D10*
G04 #@! TO.N,Net-(R8-Pad1)*
G04 #@! TO.C,R8*
G36*
X148846505Y-107811204D02*
X148870773Y-107814804D01*
X148894572Y-107820765D01*
X148917671Y-107829030D01*
X148939850Y-107839520D01*
X148960893Y-107852132D01*
X148980599Y-107866747D01*
X148998777Y-107883223D01*
X149015253Y-107901401D01*
X149029868Y-107921107D01*
X149042480Y-107942150D01*
X149052970Y-107964329D01*
X149061235Y-107987428D01*
X149067196Y-108011227D01*
X149070796Y-108035495D01*
X149072000Y-108059999D01*
X149072000Y-108710001D01*
X149070796Y-108734505D01*
X149067196Y-108758773D01*
X149061235Y-108782572D01*
X149052970Y-108805671D01*
X149042480Y-108827850D01*
X149029868Y-108848893D01*
X149015253Y-108868599D01*
X148998777Y-108886777D01*
X148980599Y-108903253D01*
X148960893Y-108917868D01*
X148939850Y-108930480D01*
X148917671Y-108940970D01*
X148894572Y-108949235D01*
X148870773Y-108955196D01*
X148846505Y-108958796D01*
X148822001Y-108960000D01*
X147921999Y-108960000D01*
X147897495Y-108958796D01*
X147873227Y-108955196D01*
X147849428Y-108949235D01*
X147826329Y-108940970D01*
X147804150Y-108930480D01*
X147783107Y-108917868D01*
X147763401Y-108903253D01*
X147745223Y-108886777D01*
X147728747Y-108868599D01*
X147714132Y-108848893D01*
X147701520Y-108827850D01*
X147691030Y-108805671D01*
X147682765Y-108782572D01*
X147676804Y-108758773D01*
X147673204Y-108734505D01*
X147672000Y-108710001D01*
X147672000Y-108059999D01*
X147673204Y-108035495D01*
X147676804Y-108011227D01*
X147682765Y-107987428D01*
X147691030Y-107964329D01*
X147701520Y-107942150D01*
X147714132Y-107921107D01*
X147728747Y-107901401D01*
X147745223Y-107883223D01*
X147763401Y-107866747D01*
X147783107Y-107852132D01*
X147804150Y-107839520D01*
X147826329Y-107829030D01*
X147849428Y-107820765D01*
X147873227Y-107814804D01*
X147897495Y-107811204D01*
X147921999Y-107810000D01*
X148822001Y-107810000D01*
X148846505Y-107811204D01*
X148846505Y-107811204D01*
G37*
D11*
G04 #@! TD*
G04 #@! TO.P,R8,1*
G04 #@! TO.N,Net-(R8-Pad1)*
X148372000Y-108385000D03*
D10*
G04 #@! TO.N,Net-(D1-Pad3)*
G04 #@! TO.C,R9*
G36*
X146456505Y-105761204D02*
X146480773Y-105764804D01*
X146504572Y-105770765D01*
X146527671Y-105779030D01*
X146549850Y-105789520D01*
X146570893Y-105802132D01*
X146590599Y-105816747D01*
X146608777Y-105833223D01*
X146625253Y-105851401D01*
X146639868Y-105871107D01*
X146652480Y-105892150D01*
X146662970Y-105914329D01*
X146671235Y-105937428D01*
X146677196Y-105961227D01*
X146680796Y-105985495D01*
X146682000Y-106009999D01*
X146682000Y-106660001D01*
X146680796Y-106684505D01*
X146677196Y-106708773D01*
X146671235Y-106732572D01*
X146662970Y-106755671D01*
X146652480Y-106777850D01*
X146639868Y-106798893D01*
X146625253Y-106818599D01*
X146608777Y-106836777D01*
X146590599Y-106853253D01*
X146570893Y-106867868D01*
X146549850Y-106880480D01*
X146527671Y-106890970D01*
X146504572Y-106899235D01*
X146480773Y-106905196D01*
X146456505Y-106908796D01*
X146432001Y-106910000D01*
X145531999Y-106910000D01*
X145507495Y-106908796D01*
X145483227Y-106905196D01*
X145459428Y-106899235D01*
X145436329Y-106890970D01*
X145414150Y-106880480D01*
X145393107Y-106867868D01*
X145373401Y-106853253D01*
X145355223Y-106836777D01*
X145338747Y-106818599D01*
X145324132Y-106798893D01*
X145311520Y-106777850D01*
X145301030Y-106755671D01*
X145292765Y-106732572D01*
X145286804Y-106708773D01*
X145283204Y-106684505D01*
X145282000Y-106660001D01*
X145282000Y-106009999D01*
X145283204Y-105985495D01*
X145286804Y-105961227D01*
X145292765Y-105937428D01*
X145301030Y-105914329D01*
X145311520Y-105892150D01*
X145324132Y-105871107D01*
X145338747Y-105851401D01*
X145355223Y-105833223D01*
X145373401Y-105816747D01*
X145393107Y-105802132D01*
X145414150Y-105789520D01*
X145436329Y-105779030D01*
X145459428Y-105770765D01*
X145483227Y-105764804D01*
X145507495Y-105761204D01*
X145531999Y-105760000D01*
X146432001Y-105760000D01*
X146456505Y-105761204D01*
X146456505Y-105761204D01*
G37*
D11*
G04 #@! TD*
G04 #@! TO.P,R9,2*
G04 #@! TO.N,Net-(D1-Pad3)*
X145982000Y-106335000D03*
D10*
G04 #@! TO.N,Net-(R9-Pad1)*
G04 #@! TO.C,R9*
G36*
X146456505Y-107811204D02*
X146480773Y-107814804D01*
X146504572Y-107820765D01*
X146527671Y-107829030D01*
X146549850Y-107839520D01*
X146570893Y-107852132D01*
X146590599Y-107866747D01*
X146608777Y-107883223D01*
X146625253Y-107901401D01*
X146639868Y-107921107D01*
X146652480Y-107942150D01*
X146662970Y-107964329D01*
X146671235Y-107987428D01*
X146677196Y-108011227D01*
X146680796Y-108035495D01*
X146682000Y-108059999D01*
X146682000Y-108710001D01*
X146680796Y-108734505D01*
X146677196Y-108758773D01*
X146671235Y-108782572D01*
X146662970Y-108805671D01*
X146652480Y-108827850D01*
X146639868Y-108848893D01*
X146625253Y-108868599D01*
X146608777Y-108886777D01*
X146590599Y-108903253D01*
X146570893Y-108917868D01*
X146549850Y-108930480D01*
X146527671Y-108940970D01*
X146504572Y-108949235D01*
X146480773Y-108955196D01*
X146456505Y-108958796D01*
X146432001Y-108960000D01*
X145531999Y-108960000D01*
X145507495Y-108958796D01*
X145483227Y-108955196D01*
X145459428Y-108949235D01*
X145436329Y-108940970D01*
X145414150Y-108930480D01*
X145393107Y-108917868D01*
X145373401Y-108903253D01*
X145355223Y-108886777D01*
X145338747Y-108868599D01*
X145324132Y-108848893D01*
X145311520Y-108827850D01*
X145301030Y-108805671D01*
X145292765Y-108782572D01*
X145286804Y-108758773D01*
X145283204Y-108734505D01*
X145282000Y-108710001D01*
X145282000Y-108059999D01*
X145283204Y-108035495D01*
X145286804Y-108011227D01*
X145292765Y-107987428D01*
X145301030Y-107964329D01*
X145311520Y-107942150D01*
X145324132Y-107921107D01*
X145338747Y-107901401D01*
X145355223Y-107883223D01*
X145373401Y-107866747D01*
X145393107Y-107852132D01*
X145414150Y-107839520D01*
X145436329Y-107829030D01*
X145459428Y-107820765D01*
X145483227Y-107814804D01*
X145507495Y-107811204D01*
X145531999Y-107810000D01*
X146432001Y-107810000D01*
X146456505Y-107811204D01*
X146456505Y-107811204D01*
G37*
D11*
G04 #@! TD*
G04 #@! TO.P,R9,1*
G04 #@! TO.N,Net-(R9-Pad1)*
X145982000Y-108385000D03*
D10*
G04 #@! TO.N,Net-(D2-Pad2)*
G04 #@! TO.C,R10*
G36*
X132662505Y-107955204D02*
X132686773Y-107958804D01*
X132710572Y-107964765D01*
X132733671Y-107973030D01*
X132755850Y-107983520D01*
X132776893Y-107996132D01*
X132796599Y-108010747D01*
X132814777Y-108027223D01*
X132831253Y-108045401D01*
X132845868Y-108065107D01*
X132858480Y-108086150D01*
X132868970Y-108108329D01*
X132877235Y-108131428D01*
X132883196Y-108155227D01*
X132886796Y-108179495D01*
X132888000Y-108203999D01*
X132888000Y-108854001D01*
X132886796Y-108878505D01*
X132883196Y-108902773D01*
X132877235Y-108926572D01*
X132868970Y-108949671D01*
X132858480Y-108971850D01*
X132845868Y-108992893D01*
X132831253Y-109012599D01*
X132814777Y-109030777D01*
X132796599Y-109047253D01*
X132776893Y-109061868D01*
X132755850Y-109074480D01*
X132733671Y-109084970D01*
X132710572Y-109093235D01*
X132686773Y-109099196D01*
X132662505Y-109102796D01*
X132638001Y-109104000D01*
X131737999Y-109104000D01*
X131713495Y-109102796D01*
X131689227Y-109099196D01*
X131665428Y-109093235D01*
X131642329Y-109084970D01*
X131620150Y-109074480D01*
X131599107Y-109061868D01*
X131579401Y-109047253D01*
X131561223Y-109030777D01*
X131544747Y-109012599D01*
X131530132Y-108992893D01*
X131517520Y-108971850D01*
X131507030Y-108949671D01*
X131498765Y-108926572D01*
X131492804Y-108902773D01*
X131489204Y-108878505D01*
X131488000Y-108854001D01*
X131488000Y-108203999D01*
X131489204Y-108179495D01*
X131492804Y-108155227D01*
X131498765Y-108131428D01*
X131507030Y-108108329D01*
X131517520Y-108086150D01*
X131530132Y-108065107D01*
X131544747Y-108045401D01*
X131561223Y-108027223D01*
X131579401Y-108010747D01*
X131599107Y-107996132D01*
X131620150Y-107983520D01*
X131642329Y-107973030D01*
X131665428Y-107964765D01*
X131689227Y-107958804D01*
X131713495Y-107955204D01*
X131737999Y-107954000D01*
X132638001Y-107954000D01*
X132662505Y-107955204D01*
X132662505Y-107955204D01*
G37*
D11*
G04 #@! TD*
G04 #@! TO.P,R10,2*
G04 #@! TO.N,Net-(D2-Pad2)*
X132188000Y-108529000D03*
D10*
G04 #@! TO.N,VDD*
G04 #@! TO.C,R10*
G36*
X132662505Y-110005204D02*
X132686773Y-110008804D01*
X132710572Y-110014765D01*
X132733671Y-110023030D01*
X132755850Y-110033520D01*
X132776893Y-110046132D01*
X132796599Y-110060747D01*
X132814777Y-110077223D01*
X132831253Y-110095401D01*
X132845868Y-110115107D01*
X132858480Y-110136150D01*
X132868970Y-110158329D01*
X132877235Y-110181428D01*
X132883196Y-110205227D01*
X132886796Y-110229495D01*
X132888000Y-110253999D01*
X132888000Y-110904001D01*
X132886796Y-110928505D01*
X132883196Y-110952773D01*
X132877235Y-110976572D01*
X132868970Y-110999671D01*
X132858480Y-111021850D01*
X132845868Y-111042893D01*
X132831253Y-111062599D01*
X132814777Y-111080777D01*
X132796599Y-111097253D01*
X132776893Y-111111868D01*
X132755850Y-111124480D01*
X132733671Y-111134970D01*
X132710572Y-111143235D01*
X132686773Y-111149196D01*
X132662505Y-111152796D01*
X132638001Y-111154000D01*
X131737999Y-111154000D01*
X131713495Y-111152796D01*
X131689227Y-111149196D01*
X131665428Y-111143235D01*
X131642329Y-111134970D01*
X131620150Y-111124480D01*
X131599107Y-111111868D01*
X131579401Y-111097253D01*
X131561223Y-111080777D01*
X131544747Y-111062599D01*
X131530132Y-111042893D01*
X131517520Y-111021850D01*
X131507030Y-110999671D01*
X131498765Y-110976572D01*
X131492804Y-110952773D01*
X131489204Y-110928505D01*
X131488000Y-110904001D01*
X131488000Y-110253999D01*
X131489204Y-110229495D01*
X131492804Y-110205227D01*
X131498765Y-110181428D01*
X131507030Y-110158329D01*
X131517520Y-110136150D01*
X131530132Y-110115107D01*
X131544747Y-110095401D01*
X131561223Y-110077223D01*
X131579401Y-110060747D01*
X131599107Y-110046132D01*
X131620150Y-110033520D01*
X131642329Y-110023030D01*
X131665428Y-110014765D01*
X131689227Y-110008804D01*
X131713495Y-110005204D01*
X131737999Y-110004000D01*
X132638001Y-110004000D01*
X132662505Y-110005204D01*
X132662505Y-110005204D01*
G37*
D11*
G04 #@! TD*
G04 #@! TO.P,R10,1*
G04 #@! TO.N,VDD*
X132188000Y-110579000D03*
D20*
G04 #@! TO.P,SW1,5*
G04 #@! TO.N,N/C*
X133096000Y-121348000D03*
D21*
G04 #@! TO.P,SW1,4*
X133096000Y-119348000D03*
G04 #@! TO.P,SW1,3*
X133096000Y-117348000D03*
G04 #@! TO.P,SW1,2*
G04 #@! TO.N,VDD*
X133096000Y-115348000D03*
D20*
G04 #@! TO.P,SW1,1*
G04 #@! TO.N,Net-(C1-Pad1)*
X133096000Y-113348000D03*
G04 #@! TD*
D22*
G04 #@! TO.P,SW2,2*
G04 #@! TO.N,Net-(R1-Pad2)*
X143682000Y-126480000D03*
G04 #@! TO.P,SW2,1*
G04 #@! TO.N,GND*
X143682000Y-130980000D03*
G04 #@! TO.P,SW2,4*
G04 #@! TO.N,N/C*
X150182000Y-126480000D03*
G04 #@! TO.P,SW2,3*
X150182000Y-130980000D03*
G04 #@! TD*
D23*
G04 #@! TO.P,U1,3*
G04 #@! TO.N,Net-(R2-Pad2)*
X157568000Y-129069000D03*
D24*
G04 #@! TO.P,U1,4*
G04 #@! TO.N,GND*
X157568000Y-130419000D03*
D25*
G04 #@! TO.P,U1,1*
X156368000Y-129069000D03*
D26*
G04 #@! TO.P,U1,2*
G04 #@! TO.N,Net-(R5-Pad2)*
X156368000Y-130419000D03*
G04 #@! TD*
D27*
G04 #@! TO.P,U2,10*
G04 #@! TO.N,Net-(R5-Pad2)*
X150547000Y-122270000D03*
G04 #@! TO.P,U2,11*
G04 #@! TO.N,Net-(J3-Pad3)*
X150547000Y-112870000D03*
G04 #@! TO.P,U2,9*
G04 #@! TO.N,Net-(U2-Pad9)*
X149277000Y-122270000D03*
G04 #@! TO.P,U2,12*
G04 #@! TO.N,Net-(J3-Pad2)*
X149277000Y-112870000D03*
G04 #@! TO.P,U2,8*
G04 #@! TO.N,Net-(U2-Pad8)*
X148007000Y-122270000D03*
G04 #@! TO.P,U2,13*
G04 #@! TO.N,Net-(U2-Pad13)*
X148007000Y-112870000D03*
G04 #@! TO.P,U2,7*
G04 #@! TO.N,Net-(U2-Pad7)*
X146737000Y-122270000D03*
G04 #@! TO.P,U2,14*
G04 #@! TO.N,Net-(R7-Pad1)*
X146737000Y-112870000D03*
G04 #@! TO.P,U2,6*
G04 #@! TO.N,Net-(U2-Pad6)*
X145467000Y-122270000D03*
G04 #@! TO.P,U2,15*
G04 #@! TO.N,Net-(R8-Pad1)*
X145467000Y-112870000D03*
G04 #@! TO.P,U2,5*
G04 #@! TO.N,Net-(U2-Pad5)*
X144197000Y-122270000D03*
G04 #@! TO.P,U2,16*
G04 #@! TO.N,Net-(R9-Pad1)*
X144197000Y-112870000D03*
G04 #@! TO.P,U2,4*
G04 #@! TO.N,Net-(C3-Pad1)*
X142927000Y-122270000D03*
G04 #@! TO.P,U2,17*
G04 #@! TO.N,Net-(U2-Pad17)*
X142927000Y-112870000D03*
G04 #@! TO.P,U2,3*
G04 #@! TO.N,Net-(U2-Pad3)*
X141657000Y-122270000D03*
G04 #@! TO.P,U2,18*
G04 #@! TO.N,Net-(J2-Pad5)*
X141657000Y-112870000D03*
G04 #@! TO.P,U2,2*
G04 #@! TO.N,Net-(R1-Pad2)*
X140387000Y-122270000D03*
G04 #@! TO.P,U2,19*
G04 #@! TO.N,Net-(J2-Pad4)*
X140387000Y-112870000D03*
G04 #@! TO.P,U2,1*
G04 #@! TO.N,VDD*
X139117000Y-122270000D03*
G04 #@! TO.P,U2,20*
G04 #@! TO.N,GND*
X139117000Y-112870000D03*
G04 #@! TD*
D28*
G04 #@! TO.N,GND*
X136398000Y-111252000D03*
X141732000Y-129540000D03*
X136906000Y-115570000D03*
X159004000Y-130556000D03*
G04 #@! TO.N,Net-(C3-Pad1)*
X143002000Y-120142000D03*
X143002000Y-118110000D03*
G04 #@! TO.N,GND*
X139192000Y-110490000D03*
X156210000Y-126746000D03*
G04 #@! TO.N,VDD*
X135128000Y-106680000D03*
G04 #@! TD*
D29*
G04 #@! TO.N,Net-(C1-Pad1)*
X137160000Y-128188000D02*
X138425000Y-128188000D01*
X136640000Y-127668000D02*
X137160000Y-128188000D01*
X138425000Y-130938000D02*
X138445000Y-130958000D01*
X138425000Y-128188000D02*
X138425000Y-130938000D01*
X136144000Y-123444000D02*
X136640000Y-123940000D01*
X131318000Y-122936000D02*
X131826000Y-123444000D01*
X131318000Y-113876000D02*
X131318000Y-122936000D01*
X131846000Y-113348000D02*
X131318000Y-113876000D01*
X133096000Y-113348000D02*
X131846000Y-113348000D01*
X131826000Y-123444000D02*
X136144000Y-123444000D01*
X136117000Y-126970000D02*
X136144000Y-126997000D01*
X135192000Y-126970000D02*
X136117000Y-126970000D01*
X136144000Y-126997000D02*
X136389000Y-126997000D01*
X136640000Y-123940000D02*
X136640000Y-126746000D01*
X136389000Y-126997000D02*
X136640000Y-126746000D01*
X136383000Y-126997000D02*
X136640000Y-127254000D01*
X136640000Y-126746000D02*
X136640000Y-127254000D01*
X136144000Y-126997000D02*
X136383000Y-126997000D01*
X136640000Y-127254000D02*
X136640000Y-127668000D01*
G04 #@! TO.N,GND*
X137702000Y-106755000D02*
X137692000Y-106765000D01*
X137702000Y-104050000D02*
X137702000Y-106755000D01*
X132560000Y-127968000D02*
X132560000Y-129968000D01*
X132560000Y-126068000D02*
X132560000Y-127968000D01*
X132560000Y-131868000D02*
X132560000Y-129968000D01*
X132560000Y-126318000D02*
X132560000Y-126068000D01*
X139117000Y-110565000D02*
X139192000Y-110490000D01*
X139117000Y-112870000D02*
X139117000Y-110565000D01*
X140312000Y-108805000D02*
X140312000Y-110132000D01*
X140312000Y-110132000D02*
X139954000Y-110490000D01*
X139954000Y-110490000D02*
X139192000Y-110490000D01*
X141027000Y-129540000D02*
X141732000Y-129540000D01*
X140475000Y-128188000D02*
X140475000Y-128988000D01*
X140475000Y-128988000D02*
X141027000Y-129540000D01*
X140495000Y-130072000D02*
X141027000Y-129540000D01*
X140495000Y-130958000D02*
X140495000Y-130072000D01*
X137913000Y-103839000D02*
X137702000Y-104050000D01*
X137913000Y-101346000D02*
X137913000Y-103839000D01*
X159121000Y-130419000D02*
X159258000Y-130556000D01*
X156210000Y-128911000D02*
X156368000Y-129069000D01*
X156210000Y-126746000D02*
X156210000Y-128911000D01*
X158867000Y-130419000D02*
X159004000Y-130556000D01*
X157568000Y-130419000D02*
X158867000Y-130419000D01*
X136906000Y-117085000D02*
X136906000Y-115570000D01*
X135765000Y-110619000D02*
X136398000Y-111252000D01*
X134648000Y-110619000D02*
X135765000Y-110619000D01*
X135192000Y-129570000D02*
X135192000Y-130770000D01*
G04 #@! TO.N,Net-(C3-Pad1)*
X142927000Y-120217000D02*
X143002000Y-120142000D01*
X142927000Y-122270000D02*
X142927000Y-120217000D01*
X137692000Y-113816000D02*
X137692000Y-108815000D01*
X138684000Y-114808000D02*
X137692000Y-113816000D01*
X140265685Y-114808000D02*
X138684000Y-114808000D01*
X143002000Y-118110000D02*
X143002000Y-117544315D01*
X143002000Y-117544315D02*
X140265685Y-114808000D01*
X132622000Y-105444000D02*
X133096000Y-105918000D01*
X133096000Y-105918000D02*
X135890000Y-105918000D01*
X136144000Y-108572000D02*
X136387000Y-108815000D01*
X132622000Y-104050000D02*
X132622000Y-105444000D01*
X135890000Y-105918000D02*
X136144000Y-106172000D01*
X136892000Y-108815000D02*
X137692000Y-108815000D01*
X136387000Y-108815000D02*
X136892000Y-108815000D01*
X136144000Y-106172000D02*
X136144000Y-108572000D01*
X132833000Y-103839000D02*
X132622000Y-104050000D01*
X132833000Y-101346000D02*
X132833000Y-103839000D01*
G04 #@! TO.N,VDD*
X139117000Y-122270000D02*
X139117000Y-119813000D01*
X138439000Y-119135000D02*
X136906000Y-119135000D01*
X139117000Y-119813000D02*
X138439000Y-119135000D01*
X139117000Y-122270000D02*
X139117000Y-123773000D01*
X138762000Y-124128000D02*
X138762000Y-125770000D01*
X139117000Y-123773000D02*
X138762000Y-124128000D01*
X134987000Y-103875000D02*
X135162000Y-104050000D01*
X136931000Y-119160000D02*
X136906000Y-119135000D01*
X154212000Y-119160000D02*
X136931000Y-119160000D01*
X154306000Y-121935000D02*
X154286000Y-121915000D01*
X134883000Y-103771000D02*
X135162000Y-104050000D01*
X134883000Y-101346000D02*
X134883000Y-103771000D01*
X146087000Y-102155000D02*
X146040000Y-102108000D01*
X146837000Y-102155000D02*
X146087000Y-102155000D01*
X146040000Y-102108000D02*
X143764000Y-102108000D01*
X143764000Y-102108000D02*
X141732000Y-100076000D01*
X141732000Y-100076000D02*
X136906000Y-100076000D01*
X136906000Y-100076000D02*
X136398000Y-100584000D01*
X136398000Y-100584000D02*
X136398000Y-101092000D01*
X136398000Y-101092000D02*
X136144000Y-101346000D01*
X136144000Y-101346000D02*
X134883000Y-101346000D01*
X154212000Y-121841000D02*
X154286000Y-121915000D01*
X154212000Y-119160000D02*
X154212000Y-121841000D01*
X157523000Y-119160000D02*
X157734000Y-119371000D01*
X154212000Y-119160000D02*
X157523000Y-119160000D01*
X135645000Y-119135000D02*
X136906000Y-119135000D01*
X134874000Y-118364000D02*
X135645000Y-119135000D01*
X132188000Y-110579000D02*
X133604000Y-111995000D01*
X135128000Y-106680000D02*
X134620000Y-107188000D01*
X134620000Y-107188000D02*
X131064000Y-107188000D01*
X134346000Y-115348000D02*
X134874000Y-115876000D01*
X134874000Y-115876000D02*
X134874000Y-117602000D01*
X133096000Y-115348000D02*
X134346000Y-115348000D01*
X134874000Y-117400000D02*
X134874000Y-117602000D01*
X134874000Y-117602000D02*
X134874000Y-118364000D01*
X130810000Y-110325000D02*
X131064000Y-110579000D01*
X130810000Y-107442000D02*
X130810000Y-110325000D01*
X131064000Y-107188000D02*
X130810000Y-107442000D01*
X131064000Y-110579000D02*
X132188000Y-110579000D01*
X133604000Y-111995000D02*
X134093000Y-111995000D01*
X134874000Y-112776000D02*
X134874000Y-115876000D01*
X134093000Y-111995000D02*
X134874000Y-112776000D01*
G04 #@! TO.N,Net-(D1-Pad3)*
X145982000Y-106335000D02*
X145982000Y-105478000D01*
X146837000Y-104623000D02*
X146837000Y-103405000D01*
X145982000Y-105478000D02*
X146837000Y-104623000D01*
G04 #@! TO.N,Net-(D1-Pad1)*
X150692000Y-105670000D02*
X150622000Y-105600000D01*
X150692000Y-106345000D02*
X150692000Y-105670000D01*
X150622000Y-105600000D02*
X150622000Y-102870000D01*
X149907000Y-102155000D02*
X148687000Y-102155000D01*
X150622000Y-102870000D02*
X149907000Y-102155000D01*
G04 #@! TO.N,Net-(D1-Pad2)*
X148372000Y-106335000D02*
X148372000Y-105374000D01*
X148687000Y-105059000D02*
X148687000Y-103405000D01*
X148372000Y-105374000D02*
X148687000Y-105059000D01*
G04 #@! TO.N,Net-(D2-Pad2)*
X132228000Y-108569000D02*
X132188000Y-108529000D01*
X134648000Y-108569000D02*
X132228000Y-108569000D01*
G04 #@! TO.N,Net-(J2-Pad4)*
X140242000Y-106685000D02*
X140312000Y-106755000D01*
X140242000Y-104050000D02*
X140242000Y-106685000D01*
X140312000Y-106755000D02*
X141112000Y-106755000D01*
X141732000Y-109728000D02*
X141732000Y-107375000D01*
X140387000Y-112870000D02*
X140387000Y-111073000D01*
X141732000Y-107375000D02*
X141112000Y-106755000D01*
X140387000Y-111073000D02*
X141732000Y-109728000D01*
G04 #@! TO.N,Net-(J2-Pad5)*
X141657000Y-112870000D02*
X141657000Y-110819000D01*
X141657000Y-110819000D02*
X142782000Y-109694000D01*
X142782000Y-109694000D02*
X142782000Y-104050000D01*
X142782000Y-102396000D02*
X142782000Y-104050000D01*
X140027000Y-101346000D02*
X141732000Y-101346000D01*
X141732000Y-101346000D02*
X142782000Y-102396000D01*
G04 #@! TO.N,Net-(J3-Pad2)*
X150910000Y-116620000D02*
X154212000Y-116620000D01*
X149277000Y-112870000D02*
X149277000Y-113545000D01*
X149352000Y-115062000D02*
X150910000Y-116620000D01*
X149352000Y-113620000D02*
X149352000Y-115062000D01*
X149277000Y-113545000D02*
X149352000Y-113620000D01*
G04 #@! TO.N,Net-(J3-Pad3)*
X153002000Y-112870000D02*
X154212000Y-114080000D01*
X150547000Y-112870000D02*
X153002000Y-112870000D01*
G04 #@! TO.N,Net-(R1-Pad2)*
X140387000Y-122270000D02*
X140387000Y-124131000D01*
X140812000Y-124556000D02*
X140812000Y-125770000D01*
X140387000Y-124131000D02*
X140812000Y-124556000D01*
X142972000Y-125770000D02*
X143682000Y-126480000D01*
X140812000Y-125770000D02*
X142972000Y-125770000D01*
G04 #@! TO.N,Net-(R2-Pad2)*
X157568000Y-129069000D02*
X157568000Y-128270000D01*
X157568000Y-128270000D02*
X157568000Y-128407000D01*
X157568000Y-122262000D02*
X157568000Y-126492000D01*
X157734000Y-122096000D02*
X157568000Y-122262000D01*
X157734000Y-121421000D02*
X157734000Y-122096000D01*
X157568000Y-126404000D02*
X157568000Y-126492000D01*
X157568000Y-126492000D02*
X157568000Y-128270000D01*
G04 #@! TO.N,Net-(R5-Pad2)*
X151480000Y-122270000D02*
X150547000Y-122270000D01*
X154286000Y-123965000D02*
X153175000Y-123965000D01*
X153175000Y-123965000D02*
X151480000Y-122270000D01*
X154286000Y-129765000D02*
X154940000Y-130419000D01*
X154940000Y-130419000D02*
X156368000Y-130419000D01*
X154286000Y-123965000D02*
X154286000Y-129765000D01*
G04 #@! TO.N,Net-(R7-Pad1)*
X150692000Y-108395000D02*
X150692000Y-109404000D01*
X150692000Y-109404000D02*
X149098000Y-110998000D01*
X146737000Y-112195000D02*
X146737000Y-112870000D01*
X147934000Y-110998000D02*
X146737000Y-112195000D01*
X149098000Y-110998000D02*
X147934000Y-110998000D01*
G04 #@! TO.N,Net-(R8-Pad1)*
X148372000Y-109060000D02*
X147196000Y-110236000D01*
X148372000Y-108385000D02*
X148372000Y-109060000D01*
X147196000Y-110236000D02*
X146304000Y-110236000D01*
X145467000Y-111073000D02*
X145467000Y-112870000D01*
X146304000Y-110236000D02*
X145467000Y-111073000D01*
G04 #@! TO.N,Net-(R9-Pad1)*
X144197000Y-112195000D02*
X144272000Y-112120000D01*
X144197000Y-112870000D02*
X144197000Y-112195000D01*
X144272000Y-112120000D02*
X144272000Y-108966000D01*
X144853000Y-108385000D02*
X145982000Y-108385000D01*
X144272000Y-108966000D02*
X144853000Y-108385000D01*
G04 #@! TD*
M02*
